STARTFONT 2.1
COMMENT
COMMENT Converted from OpenType font "Arial.ttf" by "otf2bdf 3.0".
COMMENT
FONT -FreeType-Arial-Medium-R-Normal--60-600-72-72-P-286-ISO10646-1
SIZE 60 72 72
FONTBOUNDINGBOX 108 81 -40 -19
STARTPROPERTIES 19
FOUNDRY "FreeType"
FAMILY_NAME "Arial"
WEIGHT_NAME "Medium"
SLANT "R"
SETWIDTH_NAME "Normal"
ADD_STYLE_NAME ""
PIXEL_SIZE 60
POINT_SIZE 600
RESOLUTION_X 72
RESOLUTION_Y 72
SPACING "P"
AVERAGE_WIDTH 286
CHARSET_REGISTRY "ISO10646"
CHARSET_ENCODING "1"
FONT_ASCENT 54
FONT_DESCENT 12
COPYRIGHT "Typeface © The Monotype Corporation plc. Data © The Monotype Corporation plc/Type Solutions Inc. 1990-1992. All Rights Reserved"
_OTF_FONTFILE "Arial.ttf"
_OTF_PSNAME "ArialMT"
ENDPROPERTIES
CHARS 1186
STARTCHAR 0020
ENCODING 32
SWIDTH 283 0
DWIDTH 17 0
BBX 0 0 0 0
BITMAP
ENDCHAR
STARTCHAR 0021
ENCODING 33
SWIDTH 266 0
DWIDTH 16 0
BBX 6 43 5 0
BITMAP
7C
7C
7C
7C
7C
7C
7C
7C
7C
7C
7C
7C
7C
7C
7C
7C
7C
7C
7C
7C
7C
7C
7C
7C
7C
7C
7C
7C
7C
7C
7C
7C
00
00
00
00
00
FC
FC
FC
FC
FC
FC
ENDCHAR
STARTCHAR 0022
ENCODING 34
SWIDTH 350 0
DWIDTH 21 0
BBX 15 15 3 28
BITMAP
F83E
F83E
F83E
F83E
F83E
F83E
F83E
F83E
F83E
F83E
781E
781E
781E
701C
701C
ENDCHAR
STARTCHAR 0023
ENCODING 35
SWIDTH 566 0
DWIDTH 34 0
BBX 32 45 1 -1
BITMAP
001F0078
001F0078
001E0078
001E00F8
001E00F8
003E00F0
003E00F0
003C00F0
003C01F0
003C01F0
007C01E0
007C01E0
007801E0
FFFFFFFF
FFFFFFFF
FFFFFFFF
FFFFFFFF
00F003C0
00F007C0
00F007C0
01F00780
01F00780
01E00780
01E00F80
01E00F80
03E00F00
03E00F00
03C00F00
FFFFFFFF
FFFFFFFF
FFFFFFFF
FFFFFFFF
07801E00
07803E00
07803E00
0F803C00
0F803C00
0F003C00
0F007C00
1F007C00
1F007800
1F007800
1E00F800
1E00F800
3E00F800
ENDCHAR
STARTCHAR 0024
ENCODING 36
SWIDTH 550 0
DWIDTH 33 0
BBX 28 53 2 -6
BITMAP
00070000
00070000
00070000
00FFF000
03FFFC00
07FFFF00
0FFFFF80
1FE73F80
3F871FC0
3F070FC0
3E0707E0
7E0707E0
7E0703E0
7C070300
7C070000
7E070000
7E070000
7E070000
3F070000
3F870000
1FE70000
1FFF0000
0FFF8000
07FFF800
01FFFE00
003FFF00
0007FF80
00077FC0
00071FE0
000707E0
000703F0
000703F0
000701F0
000701F0
3C0701F0
FC0701F0
FC0701F0
7C0701F0
7E0703F0
7E0703F0
3F0707E0
3F870FE0
1FE71FC0
0FFFFF80
0FFFFF00
03FFFE00
00FFF800
000F0000
00070000
00070000
00070000
00070000
00070000
ENDCHAR
STARTCHAR 0025
ENCODING 37
SWIDTH 883 0
DWIDTH 53 0
BBX 46 47 3 -3
BITMAP
000000007800
07FC00007800
0FFE0000F000
1FFF0000F000
3FFF8001E000
7E0FC001E000
7C07C003C000
7C07C003C000
F803E0078000
F803E0078000
F803E00F0000
F803E00F0000
F803E01E0000
F803E01E0000
F803E03C0000
F803E03C0000
F803E0780000
7C07C0780000
7C07C0F00000
3F1F80F00000
3FFF81E00000
1FFF01E00000
0FFC03C00000
03F003C03F00
00000780FFC0
00000F81FFE0
00000F03FFF0
00001F03E1F0
00001E07C0F8
00003E07C0F8
00003C0F807C
00007C0F807C
0000780F807C
0000F80F807C
0000F00F807C
0001F00F807C
0001E00F807C
0003E00F807C
0003C00F807C
0007C00F807C
00078007C0F8
000F8007C0F8
000F0003E1F0
001F0003FFF0
001E0001FFE0
003E0000FFC0
003C00003F00
ENDCHAR
STARTCHAR 0026
ENCODING 38
SWIDTH 666 0
DWIDTH 40 0
BBX 36 44 3 0
BITMAP
001FF80000
003FFC0000
00FFFF0000
00FFFF0000
01F83F8000
03F01F8000
03E00FC000
03E00FC000
03E007C000
03E007C000
03E00FC000
03F00FC000
03F81F8000
01F83F8000
01FC7F0000
00FEFE0000
007FFC0000
003FF80000
003FE00000
00FFC00000
01FFE00000
07FFF00000
0FF3F80000
1FE3F81C00
3F81FC1F80
3F00FE1F80
7E007F1F00
7E003FBF00
FC003FBF00
FC001FFE00
FC000FFE00
FC0007FC00
FC0007FC00
FC0003F800
FC0003FC00
7E0007FE00
7F000FFF00
3F801FFF80
1FC07FBFC0
1FFFFF1FF0
07FFFE0FE0
03FFF807E0
00FFE001C0
0000000080
ENDCHAR
STARTCHAR 0027
ENCODING 39
SWIDTH 183 0
DWIDTH 11 0
BBX 5 15 3 28
BITMAP
F8
F8
F8
F8
F8
F8
F8
F8
F8
F8
78
78
78
70
70
ENDCHAR
STARTCHAR 0028
ENCODING 40
SWIDTH 333 0
DWIDTH 20 0
BBX 14 57 4 -13
BITMAP
003C
0078
0078
00F0
01F0
01E0
03E0
03C0
07C0
0780
0F80
0F00
1F00
1F00
3E00
3E00
3E00
7E00
7C00
7C00
7C00
7C00
FC00
FC00
FC00
FC00
F800
F800
F800
F800
F800
FC00
FC00
FC00
FC00
7C00
7C00
7C00
7C00
7E00
3E00
3E00
3F00
1F00
1F00
0F80
0F80
0780
07C0
03C0
03E0
01E0
01F0
00F0
0078
0078
003C
ENDCHAR
STARTCHAR 0029
ENCODING 41
SWIDTH 333 0
DWIDTH 20 0
BBX 13 57 4 -13
BITMAP
E000
F000
7800
7800
3C00
3E00
1E00
1F00
0F00
0F80
0780
07C0
07C0
03E0
03E0
03E0
01F0
01F0
01F0
01F0
01F8
01F8
00F8
00F8
00F8
00F8
00F8
00F8
00F8
00F8
00F8
00F8
00F8
00F8
00F8
01F8
01F8
01F0
01F0
01F0
03F0
03E0
03E0
03E0
07C0
07C0
0F80
0F80
0F00
1F00
1E00
3E00
3C00
7800
7800
F000
E000
ENDCHAR
STARTCHAR 002A
ENCODING 42
SWIDTH 383 0
DWIDTH 23 0
BBX 19 18 2 25
BITMAP
01E000
01E000
01E000
01E000
01E000
E1E3C0
FDEFC0
FFFFC0
FFFFE0
1FFF00
03F000
07F800
07FC00
0F3C00
1F3E00
3E1F00
1C0F00
0C0C00
ENDCHAR
STARTCHAR 002B
ENCODING 43
SWIDTH 566 0
DWIDTH 34 0
BBX 28 29 3 7
BITMAP
000F8000
000F8000
000F8000
000F8000
000F8000
000F8000
000F8000
000F8000
000F8000
000F8000
000F8000
000F8000
000F8000
FFFFFFF0
FFFFFFF0
FFFFFFF0
FFFFFFF0
000F8000
000F8000
000F8000
000F8000
000F8000
000F8000
000F8000
000F8000
000F8000
000F8000
000F8000
000F8000
ENDCHAR
STARTCHAR 002C
ENCODING 44
SWIDTH 266 0
DWIDTH 16 0
BBX 6 14 5 -9
BITMAP
FC
FC
FC
FC
FC
FC
1C
1C
1C
3C
38
78
F0
E0
ENDCHAR
STARTCHAR 002D
ENCODING 45
SWIDTH 333 0
DWIDTH 20 0
BBX 16 5 2 13
BITMAP
FFFF
FFFF
FFFF
FFFF
FFFF
ENDCHAR
STARTCHAR 002E
ENCODING 46
SWIDTH 266 0
DWIDTH 16 0
BBX 5 6 5 0
BITMAP
F8
F8
F8
F8
F8
F8
ENDCHAR
STARTCHAR 002F
ENCODING 47
SWIDTH 283 0
DWIDTH 17 0
BBX 17 45 0 -1
BITMAP
000F80
000F00
000F00
000F00
001F00
001E00
001E00
003E00
003C00
003C00
003C00
007C00
007800
007800
007800
00F800
00F000
00F000
01F000
01E000
01E000
01E000
03E000
03C000
03C000
07C000
078000
078000
078000
0F8000
0F0000
0F0000
1F0000
1E0000
1E0000
1E0000
3E0000
3C0000
3C0000
3C0000
7C0000
780000
780000
F80000
F00000
ENDCHAR
STARTCHAR 0030
ENCODING 48
SWIDTH 550 0
DWIDTH 33 0
BBX 28 43 2 -1
BITMAP
003FC000
00FFF000
03FFFC00
07FFFE00
0FF9FF00
0FC03F00
1F801F80
3F000FC0
3F000FC0
3E0007C0
7E0007E0
7C0003E0
7C0003E0
7C0003E0
FC0003F0
FC0003F0
FC0003F0
FC0003F0
F80003F0
F80001F0
F80001F0
F80001F0
F80001F0
F80001F0
F80003F0
F80003F0
FC0003F0
FC0003F0
FC0003F0
7C0003E0
7C0003E0
7C0003E0
7C0007E0
7E0007E0
3E0007C0
3F000FC0
1F801F80
1F803F80
0FE07F00
07FFFE00
03FFFC00
01FFF800
007FE000
ENDCHAR
STARTCHAR 0031
ENCODING 49
SWIDTH 550 0
DWIDTH 33 0
BBX 16 43 6 0
BITMAP
0007
000F
001F
003F
003F
00FF
01FF
03FF
07FF
1FFF
7FDF
FF9F
FE1F
F81F
F01F
801F
001F
001F
001F
001F
001F
001F
001F
001F
001F
001F
001F
001F
001F
001F
001F
001F
001F
001F
001F
001F
001F
001F
001F
001F
001F
001F
001F
ENDCHAR
STARTCHAR 0032
ENCODING 50
SWIDTH 566 0
DWIDTH 34 0
BBX 28 43 2 0
BITMAP
001FE000
00FFFC00
03FFFF00
07FFFF80
0FF87FC0
1FC01FE0
1F8007E0
3F0003F0
3E0003F0
3E0001F0
7E0001F0
7E0001F0
3C0001F0
000001F0
000003F0
000003F0
000003F0
000007E0
00000FE0
00001FC0
00003F80
00007F00
0000FF00
0001FE00
0003FC00
0007F800
000FE000
001FC000
007F8000
00FF0000
01FE0000
03FC0000
07F80000
0FE00000
1FC00000
1F800000
3F000000
7F000000
7FFFFFF0
7FFFFFF0
FFFFFFF0
FFFFFFF0
FFFFFFF0
ENDCHAR
STARTCHAR 0033
ENCODING 51
SWIDTH 550 0
DWIDTH 33 0
BBX 28 43 2 -1
BITMAP
003FC000
01FFF000
03FFFC00
07FFFE00
0FF9FF00
1FC03F80
3F801F80
3F000FC0
3E0007C0
7E0007C0
7C0007C0
040007C0
000007C0
00000FC0
00000FC0
00001F80
00007F00
0007FF00
001FFC00
001FF800
001FFE00
001FFF80
00003FC0
00000FE0
000007E0
000003F0
000003F0
000001F0
000001F0
000001F0
000001F0
FC0001F0
7C0001F0
7C0003F0
7E0003F0
7E0007E0
3F000FE0
3F801FC0
1FE03F80
0FFFFF00
07FFFE00
03FFFC00
00FFF000
ENDCHAR
STARTCHAR 0034
ENCODING 52
SWIDTH 566 0
DWIDTH 34 0
BBX 30 43 1 0
BITMAP
00001F00
00001F00
00003F00
00007F00
0000FF00
0000FF00
0001FF00
0003FF00
0003FF00
0007DF00
000F9F00
000F9F00
001F1F00
003E1F00
007C1F00
007C1F00
00F81F00
01F01F00
01F01F00
03E01F00
07C01F00
07C01F00
0F801F00
1F001F00
3F001F00
3E001F00
7C001F00
FC001F00
FFFFFFFC
FFFFFFFC
FFFFFFFC
FFFFFFFC
00001F00
00001F00
00001F00
00001F00
00001F00
00001F00
00001F00
00001F00
00001F00
00001F00
00001F00
ENDCHAR
STARTCHAR 0035
ENCODING 53
SWIDTH 550 0
DWIDTH 33 0
BBX 28 43 2 -1
BITMAP
07FFFFC0
07FFFFC0
07FFFFC0
07FFFFC0
0FFFFFC0
0F800000
0F800000
0F800000
0F800000
1F800000
1F000000
1F000000
1F000000
1F000000
3F0FE000
3E7FF800
3FFFFE00
3FFFFF00
3FF9FF80
7F803FC0
7F000FE0
7E0007E0
040003E0
000003F0
000003F0
000001F0
000001F0
000001F0
000001F0
000001F0
000001F0
FC0001F0
FC0003F0
FC0003F0
7E0003E0
7E0007E0
3F000FC0
3F801FC0
1FE07F80
0FFFFF00
07FFFE00
03FFF800
00FFE000
ENDCHAR
STARTCHAR 0036
ENCODING 54
SWIDTH 550 0
DWIDTH 33 0
BBX 28 43 2 -1
BITMAP
001FE000
007FFC00
01FFFE00
03FFFF00
07FC7F80
0FE01FC0
1FC00FC0
1F8007E0
3F0003E0
3F0003E0
3E0003F0
7E000000
7C000000
7C000000
7C000000
FC0FE000
FC3FFC00
FCFFFE00
F9FFFF00
FBF8FF80
FFE01FC0
FF800FE0
FF0007E0
FF0003F0
FE0003F0
FE0001F0
FC0001F0
FC0001F0
FC0001F0
FC0001F0
7C0001F0
7E0001F0
7E0001F0
7E0003F0
3F0003E0
3F0007E0
1F8007E0
1FC00FC0
0FF03F80
07FFFF80
03FFFF00
01FFFC00
007FF000
ENDCHAR
STARTCHAR 0037
ENCODING 55
SWIDTH 566 0
DWIDTH 34 0
BBX 28 43 3 0
BITMAP
FFFFFFF0
FFFFFFF0
FFFFFFF0
FFFFFFF0
FFFFFFF0
000007E0
00000FC0
00001F80
00003F00
00003F00
00007E00
0000FC00
0000FC00
0001F800
0003F000
0003F000
0007E000
0007E000
000FC000
000FC000
001F8000
001F8000
001F0000
003F0000
003E0000
007E0000
007E0000
007C0000
00FC0000
00FC0000
00F80000
00F80000
01F80000
01F00000
01F00000
01F00000
01F00000
03F00000
03F00000
03F00000
03E00000
03E00000
03E00000
ENDCHAR
STARTCHAR 0038
ENCODING 56
SWIDTH 550 0
DWIDTH 33 0
BBX 28 43 2 -1
BITMAP
003FC000
01FFF800
03FFFC00
0FFFFE00
0FF9FF00
1FC03F80
3F801FC0
3F000FC0
3E0007C0
3E0007C0
3E0007C0
3E0007C0
3E0007C0
3F000FC0
3F000FC0
1F801F80
0FE07F00
07FFFE00
01FFF800
01FFF800
07FFFE00
1FF8FF80
3FC01FC0
3F000FC0
7E0007E0
7E0003F0
FC0003F0
FC0001F0
FC0001F0
F80001F0
F80001F0
FC0001F0
FC0001F0
FC0003F0
7C0003F0
7E0007E0
7F0007E0
3F800FC0
1FE03FC0
0FFFFF80
07FFFF00
03FFFC00
00FFF000
ENDCHAR
STARTCHAR 0039
ENCODING 57
SWIDTH 550 0
DWIDTH 33 0
BBX 28 43 2 -1
BITMAP
003F8000
01FFF000
07FFFC00
0FFFFE00
1FF8FF00
1FC03F80
3F801F80
7F000FC0
7E0007E0
7C0003E0
FC0003E0
FC0003F0
FC0003F0
F80003F0
F80003F0
F80003F0
FC0003F0
FC0003F0
7C0003F0
7E0007F0
7E0007F0
3F000FF0
3FC03FF0
1FF0FDF0
0FFFF9F0
07FFF1F0
01FFE1F0
007F01F0
000001F0
000003F0
000003F0
000003E0
1C0007E0
7C0007E0
7C0007C0
7E000FC0
3E001F80
3F003F80
1FC0FF00
1FFFFE00
0FFFFC00
03FFF800
00FFE000
ENDCHAR
STARTCHAR 003A
ENCODING 58
SWIDTH 266 0
DWIDTH 16 0
BBX 5 31 5 0
BITMAP
F8
F8
F8
F8
F8
F8
00
00
00
00
00
00
00
00
00
00
00
00
00
00
00
00
00
00
00
F8
F8
F8
F8
F8
F8
ENDCHAR
STARTCHAR 003B
ENCODING 59
SWIDTH 266 0
DWIDTH 16 0
BBX 6 39 5 -9
BITMAP
FC
FC
FC
FC
FC
FC
00
00
00
00
00
00
00
00
00
00
00
00
00
00
00
00
00
00
00
FC
FC
FC
FC
FC
FC
1C
1C
1C
3C
38
78
F0
E0
ENDCHAR
STARTCHAR 003C
ENCODING 60
SWIDTH 583 0
DWIDTH 35 0
BBX 29 29 3 6
BITMAP
00000010
00000078
000001F8
00000FF8
00003FF8
0000FFF0
0007FFC0
001FFE00
007FF800
03FFC000
0FFF0000
3FFC0000
FFE00000
FF800000
FC000000
FF000000
FFC00000
7FF80000
1FFE0000
03FFC000
00FFF000
003FFC00
0007FF80
0001FFE0
00007FF8
00000FF8
000003F8
000000F8
00000018
ENDCHAR
STARTCHAR 003D
ENCODING 61
SWIDTH 566 0
DWIDTH 34 0
BBX 28 18 3 12
BITMAP
FFFFFFF0
FFFFFFF0
FFFFFFF0
FFFFFFF0
00000000
00000000
00000000
00000000
00000000
00000000
00000000
00000000
00000000
00000000
FFFFFFF0
FFFFFFF0
FFFFFFF0
FFFFFFF0
ENDCHAR
STARTCHAR 003E
ENCODING 62
SWIDTH 583 0
DWIDTH 35 0
BBX 29 29 3 6
BITMAP
80000000
E0000000
FC000000
FF000000
FFC00000
FFF80000
1FFE0000
07FFC000
00FFF000
003FFC00
000FFF80
0001FFE0
00007FF8
00000FF8
000003F8
000007F8
00003FF8
0000FFF0
0007FF80
001FFE00
007FF800
03FFC000
0FFF0000
7FFC0000
FFE00000
FF800000
FE000000
F0000000
C0000000
ENDCHAR
STARTCHAR 003F
ENCODING 63
SWIDTH 550 0
DWIDTH 33 0
BBX 28 43 2 1
BITMAP
00FFF000
03FFFC00
07FFFF00
0FFFFF80
1FE03FC0
3F801FC0
3F000FE0
7E0007E0
7E0003F0
7C0003F0
FC0003F0
FC0001F0
000003F0
000003F0
000003E0
000007E0
00000FE0
00001FC0
00003F80
00007F00
0000FE00
0001FC00
0003F800
0007F000
000FE000
000FC000
000F8000
001F8000
001F8000
001F8000
001F0000
001F0000
00000000
00000000
00000000
00000000
00000000
001F0000
001F0000
001F0000
001F0000
001F0000
001F0000
ENDCHAR
STARTCHAR 0040
ENCODING 64
SWIDTH 1016 0
DWIDTH 61 0
BBX 55 55 3 -12
BITMAP
000007FFF80000
00007FFFFF0000
0001FFFFFFC000
0007FFFFFFF000
000FFE001FF800
001FE00003FC00
007F800000FF00
00FE0000003F00
00FC0000001F80
01F00000000FC0
03E000000007E0
07C000000003E0
07C003FE0FC1F0
0F800FFF0F80F0
0F003FFF8F80F8
1F007FFFCF8078
1E00FF03FF8078
3E01FC01FF0078
3C01F800FF003C
7C03F0007F003C
7803E0007F003C
7807E0007F003C
7807C0003E003C
F80FC0003E003C
F00FC0003E003C
F00F80003E003C
F01F80007E007C
F01F80007C0078
F01F80007C0078
F01F00007C00F8
F01F0000FC00F0
F01F0000F800F0
F01F8001F801E0
F01F8001F803E0
F80F8003F807C0
780FC007F80F80
780FC00FF01F80
7807E01FF83F00
7C07FCFFFDFE00
3C03FFFDFFFC00
3E01FFF9FFF000
1E007FE0FFE000
1F001F807F003E
0F80000000003E
0FC0000000007C
07E000000001F8
03F000000003F0
01FC00000007F0
00FF0000001FC0
007FC00000FF80
003FFC0007FF00
000FFFFFFFFC00
0003FFFFFFF000
00007FFFFFC000
00000FFFFE0000
ENDCHAR
STARTCHAR 0041
ENCODING 65
SWIDTH 666 0
DWIDTH 40 0
BBX 40 43 0 0
BITMAP
0000FE0000
0000FE0000
0001FF0000
0001FF0000
0001FF0000
0003EF8000
0003EF8000
0003EFC000
0007C7C000
0007C7C000
000FC7E000
000F83E000
000F83F000
001F83F000
001F01F000
003F01F800
003F01F800
003E00FC00
007E00FC00
007E007E00
007C007E00
00FC007E00
00F8003F00
01F8003F00
01F8003F80
01F0001F80
03FFFFFF80
03FFFFFFC0
07FFFFFFC0
07FFFFFFE0
07E00007E0
0FC00007E0
0FC00003F0
0F800003F0
1F800003F8
1F800001F8
3F000001F8
3F000000FC
3F000000FC
7E000000FE
7E0000007E
FE0000007E
FC0000007F
ENDCHAR
STARTCHAR 0042
ENCODING 66
SWIDTH 650 0
DWIDTH 39 0
BBX 32 43 4 0
BITMAP
FFFFF800
FFFFFF00
FFFFFFC0
FFFFFFE0
FFFFFFF0
F8000FF8
F80001F8
F80000FC
F80000FC
F800007C
F800007C
F800007C
F800007C
F800007C
F80000FC
F80000F8
F80001F8
F80007F0
FFFFFFE0
FFFFFFC0
FFFFFFC0
FFFFFFF0
FFFFFFF8
F80007FC
F80001FC
F800007E
F800007E
F800003F
F800003F
F800001F
F800001F
F800001F
F800003F
F800003F
F800007E
F800007E
F80000FE
F80007FC
FFFFFFF8
FFFFFFF0
FFFFFFE0
FFFFFF80
FFFFFC00
ENDCHAR
STARTCHAR 0043
ENCODING 67
SWIDTH 716 0
DWIDTH 43 0
BBX 38 43 3 0
BITMAP
0007FFC000
001FFFF800
007FFFFC00
00FFFFFF00
03FE00FF80
07F8003FC0
0FE0001FC0
0FC0000FE0
1F800007F0
1F000003F0
3F000003F0
3E000001F8
7E00000180
7E00000000
7C00000000
7C00000000
FC00000000
FC00000000
FC00000000
F800000000
F800000000
F800000000
F800000000
F800000000
FC00000000
FC00000000
FC00000000
7C00000000
7C000000C0
7E000001FC
7E000001F8
3E000001F8
3F000003F8
1F000003F0
1F800007F0
0FC0000FE0
0FE0001FC0
07F8003FC0
03FE00FF80
01FFFFFF00
00FFFFFC00
003FFFF800
0007FFC000
ENDCHAR
STARTCHAR 0044
ENCODING 68
SWIDTH 733 0
DWIDTH 44 0
BBX 35 43 5 0
BITMAP
FFFFFC0000
FFFFFF8000
FFFFFFE000
FFFFFFF000
FFFFFFFC00
F80007FC00
F80001FE00
F800007F00
F800003F80
F800001F80
F800000F80
F800000FC0
F8000007C0
F8000007C0
F8000007E0
F8000007E0
F8000003E0
F8000003E0
F8000003E0
F8000003E0
F8000003E0
F8000003E0
F8000003E0
F8000003E0
F8000003E0
F8000003E0
F8000003E0
F8000007E0
F8000007E0
F8000007C0
F800000FC0
F800000FC0
F800001F80
F800001F80
F800003F00
F800007F00
F80001FE00
F80007FC00
FFFFFFF800
FFFFFFF000
FFFFFFE000
FFFFFF8000
FFFFF80000
ENDCHAR
STARTCHAR 0045
ENCODING 69
SWIDTH 666 0
DWIDTH 40 0
BBX 32 43 5 0
BITMAP
FFFFFFFE
FFFFFFFE
FFFFFFFE
FFFFFFFE
FFFFFFFE
F8000000
F8000000
F8000000
F8000000
F8000000
F8000000
F8000000
F8000000
F8000000
F8000000
F8000000
F8000000
F8000000
FFFFFFFC
FFFFFFFC
FFFFFFFC
FFFFFFFC
FFFFFFFC
F8000000
F8000000
F8000000
F8000000
F8000000
F8000000
F8000000
F8000000
F8000000
F8000000
F8000000
F8000000
F8000000
F8000000
F8000000
FFFFFFFF
FFFFFFFF
FFFFFFFF
FFFFFFFF
FFFFFFFF
ENDCHAR
STARTCHAR 0046
ENCODING 70
SWIDTH 616 0
DWIDTH 37 0
BBX 29 43 5 0
BITMAP
FFFFFFF8
FFFFFFF8
FFFFFFF8
FFFFFFF8
FFFFFFF8
F8000000
F8000000
F8000000
F8000000
F8000000
F8000000
F8000000
F8000000
F8000000
F8000000
F8000000
F8000000
F8000000
FFFFFFC0
FFFFFFC0
FFFFFFC0
FFFFFFC0
FFFFFFC0
F8000000
F8000000
F8000000
F8000000
F8000000
F8000000
F8000000
F8000000
F8000000
F8000000
F8000000
F8000000
F8000000
F8000000
F8000000
F8000000
F8000000
F8000000
F8000000
F8000000
ENDCHAR
STARTCHAR 0047
ENCODING 71
SWIDTH 766 0
DWIDTH 46 0
BBX 39 43 3 0
BITMAP
0003FFF000
001FFFFE00
007FFFFF80
00FFFFFFC0
01FF003FE0
03FC000FF0
07F00003F8
0FE00001F8
1FC00000FC
1F800000FC
3F0000007C
3F0000007E
3E00000038
7E00000000
7C00000000
7C00000000
FC00000000
FC00000000
FC00000000
F800000000
F800000000
F80007FFFE
F80007FFFE
FC0007FFFE
FC0007FFFE
FC0007FFFE
FC0000003E
7C0000003E
7C0000003E
7E0000003E
7E0000003E
3F0000003E
3F0000003E
1F8000003E
1FC000007E
0FE00000FE
07F80003FE
03FE001FFE
01FFFFFFF8
00FFFFFFF0
003FFFFFC0
000FFFFF00
0003FFF800
ENDCHAR
STARTCHAR 0048
ENCODING 72
SWIDTH 716 0
DWIDTH 43 0
BBX 33 43 5 0
BITMAP
F800000F80
F800000F80
F800000F80
F800000F80
F800000F80
F800000F80
F800000F80
F800000F80
F800000F80
F800000F80
F800000F80
F800000F80
F800000F80
F800000F80
F800000F80
F800000F80
F800000F80
F800000F80
FFFFFFFF80
FFFFFFFF80
FFFFFFFF80
FFFFFFFF80
FFFFFFFF80
F800000F80
F800000F80
F800000F80
F800000F80
F800000F80
F800000F80
F800000F80
F800000F80
F800000F80
F800000F80
F800000F80
F800000F80
F800000F80
F800000F80
F800000F80
F800000F80
F800000F80
F800000F80
F800000F80
F800000F80
ENDCHAR
STARTCHAR 0049
ENCODING 73
SWIDTH 283 0
DWIDTH 17 0
BBX 5 43 6 0
BITMAP
F8
F8
F8
F8
F8
F8
F8
F8
F8
F8
F8
F8
F8
F8
F8
F8
F8
F8
F8
F8
F8
F8
F8
F8
F8
F8
F8
F8
F8
F8
F8
F8
F8
F8
F8
F8
F8
F8
F8
F8
F8
F8
F8
ENDCHAR
STARTCHAR 004A
ENCODING 74
SWIDTH 500 0
DWIDTH 30 0
BBX 23 44 2 -1
BITMAP
00003E
00003E
00003E
00003E
00003E
00003E
00003E
00003E
00003E
00003E
00003E
00003E
00003E
00003E
00003E
00003E
00003E
00003E
00003E
00003E
00003E
00003E
00003E
00003E
00003E
00003E
00003E
00003E
00003E
00003E
78003E
F8003E
FC003E
FC003E
FC007E
7C007E
7E00FC
7F01FC
3FFFFC
3FFFF8
1FFFF0
0FFFE0
03FF80
001000
ENDCHAR
STARTCHAR 004B
ENCODING 75
SWIDTH 650 0
DWIDTH 39 0
BBX 35 43 4 0
BITMAP
F800003FC0
F800007F80
F80000FF00
F80001FE00
F80003FC00
F80007F800
F8000FF000
F8001FE000
F8003FC000
F8007F8000
F800FF0000
F801FE0000
F803FC0000
F807F80000
F80FE00000
F81FC00000
F83F800000
F87F000000
F8FF800000
F9FFC00000
FBFFE00000
FFF7E00000
FFE7F00000
FFC3F80000
FF81FC0000
FF01FC0000
FE00FE0000
FC007F0000
F8003F8000
F8003F8000
F8001FC000
F8000FE000
F8000FF000
F80007F000
F80003F800
F80003FC00
F80001FC00
F80000FE00
F800007F00
F800007F80
F800003F80
F800001FC0
F800001FE0
ENDCHAR
STARTCHAR 004C
ENCODING 76
SWIDTH 550 0
DWIDTH 33 0
BBX 27 43 4 0
BITMAP
F8000000
F8000000
F8000000
F8000000
F8000000
F8000000
F8000000
F8000000
F8000000
F8000000
F8000000
F8000000
F8000000
F8000000
F8000000
F8000000
F8000000
F8000000
F8000000
F8000000
F8000000
F8000000
F8000000
F8000000
F8000000
F8000000
F8000000
F8000000
F8000000
F8000000
F8000000
F8000000
F8000000
F8000000
F8000000
F8000000
F8000000
F8000000
FFFFFFE0
FFFFFFE0
FFFFFFE0
FFFFFFE0
FFFFFFE0
ENDCHAR
STARTCHAR 004D
ENCODING 77
SWIDTH 833 0
DWIDTH 50 0
BBX 41 43 4 0
BITMAP
FF8000007F80
FF8000007F80
FF8000007F80
FFC00000FF80
FFC00000FF80
FFC00001FF80
FFE00001FF80
FBE00001EF80
FBE00003EF80
FBF00003EF80
F9F00003CF80
F9F00007CF80
F8F80007CF80
F8F800078F80
F8F8000F8F80
F87C000F8F80
F87C000F0F80
F87C001F0F80
F83E001F0F80
F83E001E0F80
F83E003E0F80
F81F003E0F80
F81F003C0F80
F81F007C0F80
F80F807C0F80
F80F80780F80
F80F80F80F80
F807C0F00F80
F807C0F00F80
F807C1F00F80
F803E1E00F80
F803E1E00F80
F803E3E00F80
F801F3C00F80
F801F7C00F80
F801F7C00F80
F800FF800F80
F800FF800F80
F800FF800F80
F8007F000F80
F8007F000F80
F8007F000F80
F8003E000F80
ENDCHAR
STARTCHAR 004E
ENCODING 78
SWIDTH 733 0
DWIDTH 44 0
BBX 34 43 5 0
BITMAP
FC000007C0
FE000007C0
FF000007C0
FF000007C0
FF800007C0
FFC00007C0
FFC00007C0
FFE00007C0
FFF00007C0
FBF00007C0
FBF80007C0
F9FC0007C0
F8FC0007C0
F8FE0007C0
F87F0007C0
F83F0007C0
F83F8007C0
F81FC007C0
F80FC007C0
F80FE007C0
F807F007C0
F803F007C0
F803F807C0
F801FC07C0
F800FC07C0
F800FE07C0
F8007F07C0
F8003F07C0
F8003F87C0
F8001FC7C0
F8000FC7C0
F8000FE7C0
F80007F7C0
F80003F7C0
F80003FFC0
F80001FFC0
F80000FFC0
F80000FFC0
F800007FC0
F800003FC0
F800003FC0
F800001FC0
F800000FC0
ENDCHAR
STARTCHAR 004F
ENCODING 79
SWIDTH 783 0
DWIDTH 47 0
BBX 41 44 3 0
BITMAP
0003FFE00000
001FFFFC0000
007FFFFF0000
00FFFFFF8000
01FF007FC000
03FC001FE000
07F00007F000
0FE00003F800
1F800001FC00
1F800000FC00
3F0000007E00
3E0000007E00
7E0000003E00
7E0000003F00
7C0000001F00
7C0000001F00
FC0000001F80
FC0000001F80
FC0000001F80
FC0000001F80
F80000000F80
F80000000F80
F80000000F80
F80000001F80
FC0000001F80
FC0000001F80
FC0000001F80
7C0000001F00
7C0000001F00
7E0000003F00
7E0000003F00
3E0000007E00
3F0000007E00
1F800000FC00
1FC00001FC00
0FE00003F800
07F00007F000
03F8001FE000
01FF007FC000
00FFFFFF8000
003FFFFF0000
001FFFFC0000
0003FFE00000
000008000000
ENDCHAR
STARTCHAR 0050
ENCODING 80
SWIDTH 666 0
DWIDTH 40 0
BBX 32 43 5 0
BITMAP
FFFFFE00
FFFFFFC0
FFFFFFF0
FFFFFFF8
FFFFFFFC
F80003FE
F80000FE
F800007F
F800003F
F800003F
F800001F
F800001F
F800001F
F800001F
F800001F
F800003F
F800003F
F800007E
F80000FE
F80007FC
FFFFFFFC
FFFFFFF8
FFFFFFF0
FFFFFFC0
FFFFFC00
F8000000
F8000000
F8000000
F8000000
F8000000
F8000000
F8000000
F8000000
F8000000
F8000000
F8000000
F8000000
F8000000
F8000000
F8000000
F8000000
F8000000
F8000000
ENDCHAR
STARTCHAR 0051
ENCODING 81
SWIDTH 783 0
DWIDTH 47 0
BBX 42 46 3 -3
BITMAP
0003FFE00000
001FFFFC0000
007FFFFE0000
00FFFFFF8000
01FF007FC000
03F8001FE000
07F00007F000
0FE00003F800
1FC00001FC00
1F800000FC00
3F0000007E00
3E0000007E00
7E0000003E00
7E0000003F00
7C0000001F00
7C0000001F00
FC0000001F80
FC0000001F80
FC0000001F80
F80000001F80
F80000000F80
F80000000F80
F80000000F80
F80000001F80
FC0000001F80
FC0000001F80
FC0000001F80
7C0000001F80
7C0000001F00
7E0000003F00
3E0000003F00
3E0002007E00
3F0003C07E00
1F8007F0FE00
1FC007F9FC00
0FE007FFF800
07F000FFF800
03F8003FF000
01FF007FE000
00FFFFFFF000
003FFFFFFC00
001FFFFCFF00
0003FFF07FC0
000000001F80
000000000F80
000000000180
ENDCHAR
STARTCHAR 0052
ENCODING 82
SWIDTH 716 0
DWIDTH 43 0
BBX 37 43 5 0
BITMAP
FFFFFF8000
FFFFFFF000
FFFFFFFC00
FFFFFFFE00
F80007FF00
F800007F00
F800003F80
F800001F80
F800000FC0
F800000FC0
F800000FC0
F8000007C0
F800000FC0
F800000FC0
F800000FC0
F800001F80
F800001F80
F800007F00
F80001FF00
FFFFFFFE00
FFFFFFF800
FFFFFFF000
FFFFFF8000
F803FE0000
F8007F8000
F8001FC000
F8000FE000
F80007F000
F80007F000
F80003F800
F80001FC00
F80001FE00
F80000FE00
F800007F00
F800007F00
F800003F80
F800001FC0
F800001FC0
F800000FE0
F800000FE0
F8000007F0
F8000003F8
F8000003F8
ENDCHAR
STARTCHAR 0053
ENCODING 83
SWIDTH 666 0
DWIDTH 40 0
BBX 34 43 2 0
BITMAP
003FFF0000
00FFFFC000
03FFFFF000
07FFFFF800
0FFFFFFC00
0FE001FE00
1FC0007F00
1F80003F00
3F00003F00
3F00001F80
3E00001F80
3E00000F80
3F00000C00
3F00000000
1F80000000
1FC0000000
1FF8000000
0FFF800000
07FFF80000
03FFFF8000
00FFFFE000
003FFFF800
0003FFFE00
00003FFF00
000003FF00
0000007F80
0000003FC0
0000000FC0
0000000FC0
FC000007C0
7C000007C0
7C000007C0
7E000007C0
7E000007C0
7F00000FC0
3F80001F80
1FC0003F80
1FF000FF00
0FFFFFFE00
07FFFFFC00
03FFFFF800
00FFFFF000
001FFF8000
ENDCHAR
STARTCHAR 0054
ENCODING 84
SWIDTH 600 0
DWIDTH 36 0
BBX 34 43 1 0
BITMAP
FFFFFFFFC0
FFFFFFFFC0
FFFFFFFFC0
FFFFFFFFC0
FFFFFFFFC0
0003E00000
0003E00000
0003E00000
0003E00000
0003E00000
0003E00000
0003E00000
0003E00000
0003E00000
0003E00000
0003E00000
0003E00000
0003E00000
0003E00000
0003E00000
0003E00000
0003E00000
0003E00000
0003E00000
0003E00000
0003E00000
0003E00000
0003E00000
0003E00000
0003E00000
0003E00000
0003E00000
0003E00000
0003E00000
0003E00000
0003E00000
0003E00000
0003E00000
0003E00000
0003E00000
0003E00000
0003E00000
0003E00000
ENDCHAR
STARTCHAR 0055
ENCODING 85
SWIDTH 716 0
DWIDTH 43 0
BBX 33 43 5 -1
BITMAP
F800000F80
F800000F80
F800000F80
F800000F80
F800000F80
F800000F80
F800000F80
F800000F80
F800000F80
F800000F80
F800000F80
F800000F80
F800000F80
F800000F80
F800000F80
F800000F80
F800000F80
F800000F80
F800000F80
F800000F80
F800000F80
F800000F80
F800000F80
F800000F80
F800000F80
F800000F80
F800000F80
F800000F80
FC00000F80
FC00000F80
FC00000F80
7C00001F80
7C00001F80
7E00001F00
7E00003F00
3F00007F00
3F8000FE00
1FE001FE00
1FFFFFFC00
0FFFFFF800
03FFFFF000
01FFFFC000
003FFF0000
ENDCHAR
STARTCHAR 0056
ENCODING 86
SWIDTH 666 0
DWIDTH 40 0
BBX 39 43 0 0
BITMAP
FE0000003E
7E0000007E
7E0000007E
3F000000FC
3F000000FC
3F000000F8
1F800001F8
1F800001F8
0F800001F0
0FC00003F0
0FC00003E0
07E00007E0
07E00007E0
07E00007C0
03F0000FC0
03F0000F80
01F0000F80
01F8001F80
01F8001F00
00F8003F00
00FC003F00
007C003E00
007C007E00
007E007C00
003E007C00
003F00FC00
001F00F800
001F00F800
001F81F000
000F81F000
000F83F000
000FC3E000
0007C3E000
0007C7C000
0003E7C000
0003E7C000
0003EF8000
0001FF8000
0001FF8000
0000FF0000
0000FF0000
0000FE0000
00007E0000
ENDCHAR
STARTCHAR 0057
ENCODING 87
SWIDTH 950 0
DWIDTH 57 0
BBX 55 43 1 0
BITMAP
FC0000FE00007E
FC0000FE00007E
FC0001FF00007C
7C0001FF0000FC
7E0001FF0000FC
7E0003FF0000F8
7E0003EF8000F8
3E0003EF8001F8
3F0003EF8001F8
3F0007CFC001F0
1F0007C7C001F0
1F0007C7C003F0
1F000F87C003F0
1F800F83E003E0
0F800F83E003E0
0F800F83E007E0
0F801F03F007C0
0FC01F01F007C0
07C01F01F007C0
07C01E01F00FC0
07C03E01F80F80
07E03E00F80F80
03E03E00F80F80
03E07C00F81F80
03E07C007C1F00
03E07C007C1F00
01F07C007C1F00
01F0F8007E1E00
01F0F8003E3E00
00F0F8003E3E00
00F9F0003E3E00
00F9F0001E3C00
00F9F0001F7C00
0079F0001F7C00
007BE0001F7C00
007FE0000F7800
007FE0000FF800
003FC0000FF800
003FC0000FF000
003FC00007F000
003FC00007F000
001F800007F000
001F800003E000
ENDCHAR
STARTCHAR 0058
ENCODING 88
SWIDTH 666 0
DWIDTH 40 0
BBX 38 43 1 0
BITMAP
3F000001F8
3F800003F0
1FC00007F0
0FC00007E0
0FE0000FC0
07F0001F80
03F8003F80
01F8003F00
01FC007E00
00FE00FC00
007E01FC00
007F01F800
003F83F000
001F87E000
000FCFE000
000FEFC000
0007FF8000
0003FF0000
0003FF0000
0001FE0000
0000FE0000
0001FE0000
0003FF0000
0003FF8000
0007FF8000
000FDFC000
001FCFE000
001F87F000
003F87F000
007F03F800
007E01FC00
00FC01FC00
01FC00FE00
03F8007F00
03F0003F80
07E0003F80
0FE0001FC0
1FC0000FE0
1F80000FE0
3F800007F0
7F000003F8
FE000001FC
FC000001FC
ENDCHAR
STARTCHAR 0059
ENCODING 89
SWIDTH 666 0
DWIDTH 40 0
BBX 38 43 1 0
BITMAP
FE000000FC
FE000001FC
7F000003F8
3F800003F0
3F800007E0
1FC0000FE0
0FE0000FC0
0FE0001F80
07F0003F80
03F0003F00
03F8007E00
01FC00FE00
00FC00FC00
00FE01F800
007F03F800
003F03F000
003F87E000
001F87C000
000FCFC000
000FFF8000
0007FF0000
0003FF0000
0003FE0000
0001FC0000
0000FC0000
0000F80000
0000F80000
0000F80000
0000F80000
0000F80000
0000F80000
0000F80000
0000F80000
0000F80000
0000F80000
0000F80000
0000F80000
0000F80000
0000F80000
0000F80000
0000F80000
0000F80000
0000F80000
ENDCHAR
STARTCHAR 005A
ENCODING 90
SWIDTH 616 0
DWIDTH 37 0
BBX 34 43 1 0
BITMAP
3FFFFFFF80
3FFFFFFF80
3FFFFFFF80
3FFFFFFF80
3FFFFFFF80
0000003F80
0000007F00
000000FE00
000001FC00
000003F800
000007F800
000007F000
00000FE000
00001FC000
00003F8000
00003F8000
00007F0000
0000FE0000
0001FC0000
0003F80000
0003F00000
0007F00000
000FE00000
001FC00000
003F800000
003F000000
007F000000
00FE000000
01FC000000
03F8000000
03F0000000
07F0000000
0FE0000000
1FC0000000
1F80000000
3F00000000
7E00000000
FE00000000
FFFFFFFFC0
FFFFFFFFC0
FFFFFFFFC0
FFFFFFFFC0
FFFFFFFFC0
ENDCHAR
STARTCHAR 005B
ENCODING 91
SWIDTH 266 0
DWIDTH 16 0
BBX 12 55 4 -12
BITMAP
FFF0
FFF0
FFF0
FFF0
F800
F800
F800
F800
F800
F800
F800
F800
F800
F800
F800
F800
F800
F800
F800
F800
F800
F800
F800
F800
F800
F800
F800
F800
F800
F800
F800
F800
F800
F800
F800
F800
F800
F800
F800
F800
F800
F800
F800
F800
F800
F800
F800
F800
F800
F800
F800
FFF0
FFF0
FFF0
FFF0
ENDCHAR
STARTCHAR 005C
ENCODING 92
SWIDTH 283 0
DWIDTH 17 0
BBX 17 45 0 -1
BITMAP
F00000
F80000
780000
780000
780000
7C0000
3C0000
3C0000
3C0000
1E0000
1E0000
1E0000
1F0000
0F0000
0F0000
0F0000
0F8000
078000
078000
07C000
03C000
03C000
03C000
03E000
01E000
01E000
01F000
00F000
00F000
00F000
00F800
007800
007800
007800
003C00
003C00
003C00
003E00
001E00
001E00
001E00
001F00
000F00
000F00
000F80
ENDCHAR
STARTCHAR 005D
ENCODING 93
SWIDTH 283 0
DWIDTH 17 0
BBX 12 55 1 -12
BITMAP
FFF0
FFF0
FFF0
FFF0
01F0
01F0
01F0
01F0
01F0
01F0
01F0
01F0
01F0
01F0
01F0
01F0
01F0
01F0
01F0
01F0
01F0
01F0
01F0
01F0
01F0
01F0
01F0
01F0
01F0
01F0
01F0
01F0
01F0
01F0
01F0
01F0
01F0
01F0
01F0
01F0
01F0
01F0
01F0
01F0
01F0
01F0
01F0
01F0
01F0
01F0
01F0
FFF0
FFF0
FFF0
FFF0
ENDCHAR
STARTCHAR 005E
ENCODING 94
SWIDTH 466 0
DWIDTH 28 0
BBX 24 24 2 20
BITMAP
003C00
007E00
007E00
007F00
00FF00
00FF00
01FF80
01FF80
03E7C0
03E7C0
03C3E0
07C3E0
07C1E0
0F81F0
0F81F0
1F00F8
1F00F8
3F007C
3E007C
3E007E
7C003E
7C003E
FC001F
F8001F
ENDCHAR
STARTCHAR 005F
ENCODING 95
SWIDTH 550 0
DWIDTH 33 0
BBX 35 4 -1 -11
BITMAP
FFFFFFFFE0
FFFFFFFFE0
FFFFFFFFE0
FFFFFFFFE0
ENDCHAR
STARTCHAR 0060
ENCODING 96
SWIDTH 333 0
DWIDTH 20 0
BBX 10 8 3 35
BITMAP
FE00
7E00
3F00
1F00
1F80
0F80
07C0
03C0
ENDCHAR
STARTCHAR 0061
ENCODING 97
SWIDTH 550 0
DWIDTH 33 0
BBX 28 31 2 0
BITMAP
00FFFC00
03FFFF00
0FFFFF80
1FFFFFC0
1FC03FC0
3F000FC0
3E0007E0
7E0007E0
7C0007E0
040003E0
000003E0
000007E0
00007FE0
003FFFE0
03FFFFE0
0FFFFBE0
1FFF83E0
3FE003E0
7F0003E0
7E0007E0
FC0007E0
FC0007E0
F80007E0
FC000FE0
FC001FE0
FE003FE0
7F00FFE0
7FFFFBE0
3FFFF3F0
1FFFC1F0
07FF01F0
ENDCHAR
STARTCHAR 0062
ENCODING 98
SWIDTH 550 0
DWIDTH 33 0
BBX 27 43 4 -1
BITMAP
FC000000
FC000000
FC000000
FC000000
FC000000
FC000000
FC000000
FC000000
FC000000
FC000000
FC000000
FC000000
FC3FE000
FCFFF800
FDFFFC00
FFFFFE00
FFE0FF00
FF803F80
FF001F80
FE000FC0
FE000FC0
FC0007C0
FC0007E0
FC0007E0
FC0007E0
F80007E0
F80003E0
F80003E0
F80003E0
F80007E0
FC0007E0
FC0007E0
FC0007C0
FC0007C0
FE000FC0
FE000F80
FF001F80
FF803F00
FFC0FF00
FBFFFE00
F9FFFC00
F8FFF800
F87FE000
ENDCHAR
STARTCHAR 0063
ENCODING 99
SWIDTH 500 0
DWIDTH 30 0
BBX 27 31 2 0
BITMAP
007FF000
03FFFC00
07FFFE00
0FFFFF00
1FE07F80
3F801F80
3F000FC0
7E0007C0
7E0007C0
7C000780
FC000000
FC000000
FC000000
F8000000
F8000000
F8000000
F8000000
F8000000
FC000000
FC000000
FC0003E0
7C0007E0
7E0007E0
7E0007C0
3F000FC0
3F801F80
1FE07F80
0FFFFF00
07FFFE00
03FFF800
00FFF000
ENDCHAR
STARTCHAR 0064
ENCODING 100
SWIDTH 566 0
DWIDTH 34 0
BBX 27 43 2 -1
BITMAP
000003E0
000003E0
000003E0
000003E0
000003E0
000003E0
000003E0
000003E0
000003E0
000003E0
000003E0
000003E0
00FFC3E0
03FFE3E0
07FFFBE0
0FFFFBE0
1FE07FE0
3F803FE0
3F001FE0
7E000FE0
7E0007E0
7C0007E0
7C0007E0
FC0003E0
FC0003E0
F80003E0
F80003E0
F80003E0
F80003E0
F80003E0
FC0003E0
FC0003E0
7C0007E0
7C0007E0
7E0007E0
3E000FE0
3F001FE0
1F803FE0
1FE07FE0
0FFFFFE0
07FFFBE0
01FFF3E0
00FFC3E0
ENDCHAR
STARTCHAR 0065
ENCODING 101
SWIDTH 550 0
DWIDTH 33 0
BBX 29 31 2 0
BITMAP
007FF000
01FFFC00
07FFFE00
0FFFFF00
1FE03F80
1F800FC0
3F0007E0
3E0003E0
7C0003F0
7C0003F0
7C0001F0
FC0001F0
FFFFFFF0
FFFFFFF0
FFFFFFF0
FFFFFFF8
F8000000
F8000000
FC000000
FC000000
FC000000
7C0001F0
7E0003F0
7E0003F0
3F0007E0
3F800FE0
1FE03FC0
0FFFFF80
07FFFF00
01FFFE00
007FF800
ENDCHAR
STARTCHAR 0066
ENCODING 102
SWIDTH 300 0
DWIDTH 18 0
BBX 18 43 1 1
BITMAP
00FFC0
01FFC0
03FFC0
07FFC0
07F000
07E000
07C000
07C000
07C000
07C000
07C000
07C000
FFFF00
FFFF00
FFFF00
FFFF00
07C000
07C000
07C000
07C000
07C000
07C000
07C000
07C000
07C000
07C000
07C000
07C000
07C000
07C000
07C000
07C000
07C000
07C000
07C000
07C000
07C000
07C000
07C000
07C000
07C000
07C000
07C000
ENDCHAR
STARTCHAR 0067
ENCODING 103
SWIDTH 550 0
DWIDTH 33 0
BBX 27 43 2 -12
BITMAP
00FFC3E0
03FFE3E0
07FFFBE0
0FFFFFE0
1FE07FE0
3F803FE0
3F001FE0
7E000FE0
7E0007E0
7C0007E0
7C0007E0
FC0003E0
FC0003E0
F80003E0
F80003E0
F80003E0
F80003E0
FC0003E0
FC0003E0
FC0003E0
7C0007E0
7C0007E0
7E0007E0
3E000FE0
3F001FE0
1FC03FE0
1FF1FFE0
0FFFFFE0
07FFF7E0
01FFE7E0
007F07E0
000007E0
000007E0
000007E0
7C0007C0
7C000FC0
7E000FC0
3E001F80
3F807F80
1FFFFF00
0FFFFE00
07FFF800
01FFE000
ENDCHAR
STARTCHAR 0068
ENCODING 104
SWIDTH 566 0
DWIDTH 34 0
BBX 25 43 4 0
BITMAP
F8000000
F8000000
F8000000
F8000000
F8000000
F8000000
F8000000
F8000000
F8000000
F8000000
F8000000
F8000000
F83FF000
F8FFFC00
F9FFFE00
FBFFFF00
FFC07F00
FF803F80
FE001F80
FE001F80
FC000F80
FC000F80
FC000F80
FC000F80
F8000F80
F8000F80
F8000F80
F8000F80
F8000F80
F8000F80
F8000F80
F8000F80
F8000F80
F8000F80
F8000F80
F8000F80
F8000F80
F8000F80
F8000F80
F8000F80
F8000F80
F8000F80
F8000F80
ENDCHAR
STARTCHAR 0069
ENCODING 105
SWIDTH 216 0
DWIDTH 13 0
BBX 5 43 4 0
BITMAP
F8
F8
F8
F8
F8
F8
00
00
00
00
00
00
F8
F8
F8
F8
F8
F8
F8
F8
F8
F8
F8
F8
F8
F8
F8
F8
F8
F8
F8
F8
F8
F8
F8
F8
F8
F8
F8
F8
F8
F8
F8
ENDCHAR
STARTCHAR 006A
ENCODING 106
SWIDTH 233 0
DWIDTH 14 0
BBX 12 56 -3 -13
BITMAP
01F0
01F0
01F0
01F0
01F0
01F0
0000
0000
0000
0000
0000
0000
01F0
01F0
01F0
01F0
01F0
01F0
01F0
01F0
01F0
01F0
01F0
01F0
01F0
01F0
01F0
01F0
01F0
01F0
01F0
01F0
01F0
01F0
01F0
01F0
01F0
01F0
01F0
01F0
01F0
01F0
01F0
01F0
01F0
01F0
01F0
01F0
01F0
03F0
03F0
7FE0
7FE0
7FC0
FF80
0800
ENDCHAR
STARTCHAR 006B
ENCODING 107
SWIDTH 500 0
DWIDTH 30 0
BBX 26 43 4 0
BITMAP
F8000000
F8000000
F8000000
F8000000
F8000000
F8000000
F8000000
F8000000
F8000000
F8000000
F8000000
F8000000
F8007F00
F800FE00
F801FC00
F803F800
F807F000
F80FE000
F81FC000
F83F8000
F87F0000
F8FE0000
F9FC0000
FBF80000
FBF80000
FFFC0000
FFFE0000
FFFF0000
FF3F0000
FE1F8000
FC1FC000
F80FC000
F807E000
F807F000
F803F000
F801F800
F801FC00
F800FC00
F800FE00
F8007F00
F8003F00
F8003F80
F8001FC0
ENDCHAR
STARTCHAR 006C
ENCODING 108
SWIDTH 233 0
DWIDTH 14 0
BBX 5 43 4 0
BITMAP
F8
F8
F8
F8
F8
F8
F8
F8
F8
F8
F8
F8
F8
F8
F8
F8
F8
F8
F8
F8
F8
F8
F8
F8
F8
F8
F8
F8
F8
F8
F8
F8
F8
F8
F8
F8
F8
F8
F8
F8
F8
F8
F8
ENDCHAR
STARTCHAR 006D
ENCODING 109
SWIDTH 833 0
DWIDTH 50 0
BBX 42 31 4 1
BITMAP
F87FE00FFC00
F8FFF83FFE00
FBFFFC7FFF00
FFFFFEFFFF80
FFC0FFF03FC0
FF007FE00FC0
FE003FC00FC0
FE003F8007C0
FC003F8007C0
FC001F0007C0
FC001F0007C0
FC001F0007C0
F8001F0007C0
F8001F0007C0
F8001F0007C0
F8001F0007C0
F8001F0007C0
F8001F0007C0
F8001F0007C0
F8001F0007C0
F8001F0007C0
F8001F0007C0
F8001F0007C0
F8001F0007C0
F8001F0007C0
F8001F0007C0
F8001F0007C0
F8001F0007C0
F8001F0007C0
F8001F0007C0
F8001F0007C0
ENDCHAR
STARTCHAR 006E
ENCODING 110
SWIDTH 566 0
DWIDTH 34 0
BBX 25 31 4 1
BITMAP
F83FF000
F8FFFC00
F9FFFE00
FBFFFF00
FFC07F00
FF003F80
FE001F80
FE001F80
FC000F80
FC000F80
FC000F80
FC000F80
F8000F80
F8000F80
F8000F80
F8000F80
F8000F80
F8000F80
F8000F80
F8000F80
F8000F80
F8000F80
F8000F80
F8000F80
F8000F80
F8000F80
F8000F80
F8000F80
F8000F80
F8000F80
F8000F80
ENDCHAR
STARTCHAR 006F
ENCODING 111
SWIDTH 550 0
DWIDTH 33 0
BBX 29 33 2 -1
BITMAP
00020000
007FF000
01FFFC00
07FFFF00
0FFFFF80
1FE03FC0
3F800FC0
3F0007E0
7E0003F0
7E0003F0
7C0001F0
FC0001F8
FC0001F8
FC0001F8
FC0001F8
F80000F8
F80000F8
F80000F8
F80001F8
FC0001F8
FC0001F8
FC0001F8
7C0001F0
7E0003F0
7E0003F0
3F0007E0
3F800FE0
1FE03FC0
0FFFFF80
07FFFF00
01FFFC00
007FF000
00020000
ENDCHAR
STARTCHAR 0070
ENCODING 112
SWIDTH 550 0
DWIDTH 33 0
BBX 27 43 4 -11
BITMAP
F83FE000
F8FFF800
F9FFFC00
FBFFFE00
FFE0FF00
FF803F80
FF001F80
FE000FC0
FE000FC0
FC0007C0
FC0007C0
FC0007E0
FC0007E0
FC0007E0
F80003E0
F80003E0
F80003E0
F80007E0
FC0007E0
FC0007E0
FC0007C0
FC0007C0
FE000FC0
FE000F80
FF001F80
FF803F00
FFC0FF00
FFFFFE00
FDFFFC00
FCFFF000
FC7FE000
FC000000
FC000000
FC000000
FC000000
FC000000
FC000000
FC000000
FC000000
FC000000
FC000000
FC000000
FC000000
ENDCHAR
STARTCHAR 0071
ENCODING 113
SWIDTH 550 0
DWIDTH 33 0
BBX 27 43 2 -11
BITMAP
00FFC3E0
03FFE3E0
07FFF3E0
0FFFFBE0
1FE0FFE0
3F803FE0
3F001FE0
7E000FE0
7E0007E0
7C0007E0
FC0007E0
FC0003E0
FC0003E0
F80003E0
F80003E0
F80003E0
F80003E0
F80003E0
FC0003E0
FC0003E0
7C0007E0
7C0007E0
7E0007E0
3E000FE0
3F001FE0
1F803FE0
1FE07FE0
0FFFFFE0
07FFFFE0
01FFE7E0
00FFC7E0
000007E0
000007E0
000007E0
000007E0
000007E0
000007E0
000007E0
000007E0
000007E0
000007E0
000007E0
000007E0
ENDCHAR
STARTCHAR 0072
ENCODING 114
SWIDTH 333 0
DWIDTH 20 0
BBX 17 31 4 1
BITMAP
F8FF00
F9FF80
FBFF00
FFFF00
FFFF00
FF0000
FE0000
FE0000
FC0000
FC0000
FC0000
FC0000
FC0000
F80000
F80000
F80000
F80000
F80000
F80000
F80000
F80000
F80000
F80000
F80000
F80000
F80000
F80000
F80000
F80000
F80000
F80000
ENDCHAR
STARTCHAR 0073
ENCODING 115
SWIDTH 500 0
DWIDTH 30 0
BBX 26 31 2 0
BITMAP
01FFE000
07FFF800
1FFFFC00
1FFFFE00
3F80FF00
7E003F00
7E001F00
7C001F80
7E000C00
7E000000
7F000000
3FE00000
3FFC0000
1FFFC000
0FFFF800
03FFFE00
007FFF00
000FFF80
0000FF80
00001FC0
00000FC0
7C000FC0
FC0007C0
7C000FC0
7E000FC0
7F001F80
3FC07F80
1FFFFF00
0FFFFE00
07FFF800
01FFE000
ENDCHAR
STARTCHAR 0074
ENCODING 116
SWIDTH 266 0
DWIDTH 16 0
BBX 15 42 1 -1
BITMAP
0080
0180
0780
0F80
0F80
0F80
0F80
0F80
0F80
0F80
0F80
FFFC
FFFC
FFFC
FFFC
0F80
0F80
0F80
0F80
0F80
0F80
0F80
0F80
0F80
0F80
0F80
0F80
0F80
0F80
0F80
0F80
0F80
0F80
0F80
0F80
0F80
0F80
0FC0
0FFC
0FFC
07FC
03FE
ENDCHAR
STARTCHAR 0075
ENCODING 117
SWIDTH 566 0
DWIDTH 34 0
BBX 25 31 4 -1
BITMAP
F8000F80
F8000F80
F8000F80
F8000F80
F8000F80
F8000F80
F8000F80
F8000F80
F8000F80
F8000F80
F8000F80
F8000F80
F8000F80
F8000F80
F8000F80
F8000F80
F8000F80
F8000F80
F8000F80
F8000F80
F8000F80
FC001F80
FC001F80
FC001F80
FC003F80
7E007F80
7F81F780
3FFFF780
3FFFE780
0FFF8780
03FF0780
ENDCHAR
STARTCHAR 0076
ENCODING 118
SWIDTH 500 0
DWIDTH 30 0
BBX 28 31 1 0
BITMAP
FC0001F0
FC0003F0
7C0003E0
7E0003E0
7E0007E0
3E0007C0
3F000FC0
1F000F80
1F000F80
1F801F80
0F801F00
0F801F00
07C03F00
07C03E00
07E03E00
03E07C00
03E07C00
03F0FC00
01F0F800
01F0F800
00F9F800
00F9F000
00F9F000
007FE000
007FE000
007FE000
003FC000
003FC000
001F8000
001F8000
001F8000
ENDCHAR
STARTCHAR 0077
ENCODING 119
SWIDTH 716 0
DWIDTH 43 0
BBX 43 31 0 0
BITMAP
FC001F8003E0
7C001F8007C0
7C003F8007C0
7E003F8007C0
3E003FC00F80
3E007FC00F80
3E007FC00F80
3F007BC01F80
1F007BE01F00
1F00FBE01F00
1F80FBE01F00
0F80F3E03E00
0F80F1F03E00
0F81F1F03E00
07C1F1F07C00
07C1E0F07C00
07C3E0F87C00
03C3E0F87800
03E3E0F8F800
03E3C078F800
03E7C07CF000
01F7C07DF000
01F7807DF000
01F7803DF000
00FF803FE000
00FF803FE000
00FF003FE000
007F001FC000
007F001FC000
007F001FC000
003E000F8000
ENDCHAR
STARTCHAR 0078
ENCODING 120
SWIDTH 500 0
DWIDTH 30 0
BBX 28 31 1 0
BITMAP
7E0007E0
7F000FE0
3F800FC0
1F801F80
1FC03F00
0FC07F00
07E07E00
03F0FC00
03F1F800
01F9F800
00FFF000
00FFE000
007FE000
003FC000
001F8000
003FC000
003FC000
007FE000
00FFF000
00FFF000
01F9F800
03F0FC00
07F0FE00
07E07E00
0FC03F00
1FC03F80
1F801F80
3F000FC0
7F000FE0
FE0007E0
FC0003F0
ENDCHAR
STARTCHAR 0079
ENCODING 121
SWIDTH 500 0
DWIDTH 30 0
BBX 28 43 1 -13
BITMAP
FC0001F0
7C0001F0
7E0003F0
7E0003E0
3E0003E0
3F0007C0
3F0007C0
1F000FC0
1F800F80
0F800F80
0F801F80
0FC01F00
07C01F00
07E03E00
07E03E00
03E07E00
03F07C00
01F07C00
01F0FC00
01F8F800
00F8F800
00F9F000
007DF000
007DF000
007DE000
003FE000
003FE000
003FC000
001FC000
001F8000
000F8000
000F8000
001F0000
001F0000
003E0000
003E0000
003E0000
007C0000
3FFC0000
3FF80000
3FF00000
1FE00000
1FC00000
ENDCHAR
STARTCHAR 007A
ENCODING 122
SWIDTH 500 0
DWIDTH 30 0
BBX 28 31 1 0
BITMAP
7FFFFFC0
7FFFFFC0
7FFFFFC0
7FFFFFC0
00001F80
00003F00
00007F00
00007E00
0000FC00
0001F800
0003F000
0007E000
000FE000
001FC000
001F8000
003F0000
007E0000
00FC0000
01F80000
03F80000
07F00000
07E00000
0FC00000
1F800000
3F000000
7E000000
FE000000
FFFFFFF0
FFFFFFF0
FFFFFFF0
FFFFFFF0
ENDCHAR
STARTCHAR 007B
ENCODING 123
SWIDTH 333 0
DWIDTH 20 0
BBX 17 57 2 -13
BITMAP
000180
003F80
007F80
00FF80
01FF80
01F800
03F000
03F000
03F000
03E000
03E000
03E000
03E000
03E000
03E000
03E000
03E000
03E000
03E000
03E000
03E000
03E000
07E000
07C000
0FC000
1F8000
FF0000
FC0000
FC0000
FE0000
7F0000
0F8000
0FC000
07C000
07E000
03E000
03E000
03E000
03E000
03E000
03E000
03E000
03E000
03E000
03E000
03E000
03E000
03E000
03F000
03F000
03F000
01F800
01FF80
00FF80
007F80
003F80
000180
ENDCHAR
STARTCHAR 007C
ENCODING 124
SWIDTH 266 0
DWIDTH 16 0
BBX 5 57 6 -13
BITMAP
F8
F8
F8
F8
F8
F8
F8
F8
F8
F8
F8
F8
F8
F8
F8
F8
F8
F8
F8
F8
F8
F8
F8
F8
F8
F8
F8
F8
F8
F8
F8
F8
F8
F8
F8
F8
F8
F8
F8
F8
F8
F8
F8
F8
F8
F8
F8
F8
F8
F8
F8
F8
F8
F8
F8
F8
F8
ENDCHAR
STARTCHAR 007D
ENCODING 125
SWIDTH 333 0
DWIDTH 20 0
BBX 17 57 1 -13
BITMAP
C00000
FE0000
FF8000
FFC000
FFC000
0FE000
07E000
03E000
03E000
03E000
03E000
03E000
03E000
03E000
03E000
03E000
03E000
03E000
03E000
03F000
03F000
01F000
01F000
01F800
00F800
007E00
003F80
001F80
000F80
003F80
007F00
00FC00
01F800
01F000
01F000
03F000
03F000
03F000
03E000
03E000
03E000
03E000
03E000
03E000
03E000
03E000
03E000
03E000
03E000
03E000
07E000
0FE000
FFC000
FFC000
FF8000
FE0000
C00000
ENDCHAR
STARTCHAR 007E
ENCODING 126
SWIDTH 600 0
DWIDTH 36 0
BBX 30 10 3 16
BITMAP
07F00004
3FFE000C
7FFF801C
FFFFF07C
FFFFFFFC
FFFFFFFC
F81FFFFC
E007FFF8
C000FFF0
80003F80
ENDCHAR
STARTCHAR 00A0
ENCODING 160
SWIDTH 283 0
DWIDTH 17 0
BBX 0 0 0 0
BITMAP
ENDCHAR
STARTCHAR 00A1
ENCODING 161
SWIDTH 333 0
DWIDTH 20 0
BBX 6 43 7 -12
BITMAP
FC
FC
FC
FC
FC
FC
00
00
00
00
00
7C
7C
7C
7C
7C
7C
7C
7C
7C
7C
7C
7C
7C
7C
7C
7C
7C
7C
7C
7C
7C
7C
7C
7C
7C
7C
7C
7C
7C
7C
7C
7C
ENDCHAR
STARTCHAR 00A2
ENCODING 162
SWIDTH 550 0
DWIDTH 33 0
BBX 27 55 3 -12
BITMAP
00000800
00000E00
00001E00
00001E00
00001C00
00001C00
00003C00
00003800
00003800
00007800
00007800
00007000
007FF000
01FFF800
07FFFE00
0FFFFF00
1FE1FF80
3F81FF80
3F01CFC0
7E03CFC0
7E03C7C0
7C038780
FC038000
FC078000
FC078000
FC070000
F80F0000
F80F0000
F80E0000
F81E0000
FC1E0000
FC1C0000
7C1C03E0
7C3C07E0
7E3C07E0
7E3807C0
3F780FC0
1FF81F80
1FF07F00
0FFFFF00
07FFFE00
01FFF800
01FFE000
01E00000
01E00000
01C00000
03C00000
03C00000
03800000
07800000
07800000
07800000
07000000
0F000000
01000000
ENDCHAR
STARTCHAR 00A3
ENCODING 163
SWIDTH 566 0
DWIDTH 34 0
BBX 31 44 1 0
BITMAP
001FFC00
007FFF00
01FFFFC0
03FFFFE0
07F80FE0
0FE007F0
0FC003F8
0F8001F8
1F8000F8
1F8000FC
1F0000F8
1F000000
1F800000
1F800000
1F800000
0F800000
0F800000
0FC00000
0FC00000
FFFFF000
FFFFF000
FFFFF000
FFFFF000
03E00000
03F00000
03F00000
01F00000
01F00000
03F00000
03E00000
03E00000
03E00000
07C00000
07C00000
0F800000
1F000000
3F000000
7FFF8008
FFFFFFFC
FFFFFFFC
FFFFFFFC
7E03FFFE
70003FF8
40000000
ENDCHAR
STARTCHAR 00A4
ENCODING 164
SWIDTH 550 0
DWIDTH 33 0
BBX 29 29 2 7
BITMAP
10000040
380000E0
7C1FC1F0
FEFFF7F8
7FFFFFF0
3FFFFFE0
1FF8FF80
0FE03F80
1F801F80
1F800FC0
1F0007C0
3E0007E0
3E0007E0
3E0003E0
3E0003E0
3E0007E0
3E0007E0
3E0007E0
1F0007C0
1F800FC0
1F801FC0
0FE03F80
1FF8FF80
3FFFFFE0
7FFFFFF0
FEFFF7F8
7C1FC1F0
380000E0
10000040
ENDCHAR
STARTCHAR 00A5
ENCODING 165
SWIDTH 566 0
DWIDTH 34 0
BBX 34 43 0 0
BITMAP
FC00001FC0
7E00001F80
3E00003F00
3F00007F00
1F00007E00
1F8000FE00
0FC000FC00
0FC001F800
07E001F800
03E003F000
03F007F000
01F007E000
01F80FC000
00FC0FC000
00FC1F8000
007E1F8000
003E3F0000
003F3E0000
001F7E0000
001FFC0000
000FFC0000
3FFFFFFF00
3FFFFFFF00
3FFFFFFF00
3FFFFFFF00
0003E00000
0003E00000
0003E00000
0003E00000
3FFFFFFF00
3FFFFFFF00
3FFFFFFF00
3FFFFFFF00
0003E00000
0003E00000
0003E00000
0003E00000
0003E00000
0003E00000
0003E00000
0003E00000
0003E00000
0003E00000
ENDCHAR
STARTCHAR 00A6
ENCODING 166
SWIDTH 266 0
DWIDTH 16 0
BBX 5 57 6 -13
BITMAP
F8
F8
F8
F8
F8
F8
F8
F8
F8
F8
F8
F8
F8
F8
F8
F8
F8
F8
F8
F8
F8
F8
F8
00
00
00
00
00
00
00
00
00
00
00
F8
F8
F8
F8
F8
F8
F8
F8
F8
F8
F8
F8
F8
F8
F8
F8
F8
F8
F8
F8
F8
F8
F8
ENDCHAR
STARTCHAR 00A7
ENCODING 167
SWIDTH 550 0
DWIDTH 33 0
BBX 28 55 2 -12
BITMAP
00FFE000
03FFF800
07FFFE00
0FFFFE00
0FE07F00
1F803F80
1F801F80
1F000F80
1F000FC0
1F000FC0
1F800000
1F800000
0FC00000
0FF00000
07F80000
03FE0000
07FF0000
0FFFC000
3F3FE000
3E1FF800
7C07FC00
F803FF00
F800FF80
F8007FC0
F8001FE0
F8000FE0
FC0007F0
7E0003F0
7F0001F0
3F8001F0
3FE001F0
1FF001F0
0FFC03F0
03FE03E0
01FF87E0
007FCFC0
003FFF00
000FFC00
0003FC00
0001FF00
00007F00
00003F80
00001FC0
00000FC0
020007C0
3E0007C0
3F0007C0
3F0007C0
1F800FC0
1FC01FC0
0FE03F80
0FFFFF00
07FFFE00
01FFFC00
007FF000
ENDCHAR
STARTCHAR 00A8
ENCODING 168
SWIDTH 333 0
DWIDTH 20 0
BBX 16 6 2 37
BITMAP
F81F
F81F
F81F
F81F
F81F
F81F
ENDCHAR
STARTCHAR 00A9
ENCODING 169
SWIDTH 750 0
DWIDTH 45 0
BBX 44 43 1 0
BITMAP
0000FFF00000
0007FFFE0000
001FFFFF8000
007FFFFFE000
00FF000FF000
01FC0003F800
03F00000FC00
07E000007E00
0FC000003F00
0F801FC01F00
1F00FFF00F80
3E01FFFC07C0
3C03F07C03C0
7C07C01E03C0
7807800F01E0
780F000F01E0
780F000001E0
F01F000000F0
F01E000000F0
F01E000000F0
F01E000000F0
F01E000000F0
F01E000000F0
F01E000000F0
F01E000000F0
F01E000400F0
780F000781E0
780F000F01E0
7807801F01E0
7C07C03E03C0
3C03F07C03C0
3E01FFF807C0
1F00FFF00F80
0F001FC01F00
0F8000001F00
07E000007E00
03F00000FC00
01FC0003F800
00FF000FF000
007FFFFFE000
001FFFFF8000
0007FFFE0000
0001FFF80000
ENDCHAR
STARTCHAR 00AA
ENCODING 170
SWIDTH 350 0
DWIDTH 21 0
BBX 19 21 1 23
BITMAP
0FFE00
1FFF00
3FFF80
7C07C0
7803C0
3803C0
0003C0
001FC0
07FFC0
1FFFC0
7FFBC0
7E03C0
F803C0
F003C0
F007C0
F00FC0
F83FC0
7FFFC0
7FF9C0
3FF1E0
0FC000
ENDCHAR
STARTCHAR 00AB
ENCODING 171
SWIDTH 550 0
DWIDTH 33 0
BBX 25 27 4 2
BITMAP
00780F80
00F80F00
00F01F00
01F03E00
03E03C00
07E07C00
07C0F800
0F81F800
1F81F000
1F03F000
3F07E000
7E07C000
7E0FC000
FC1F8000
7E0FC000
7E07C000
3F07E000
1F03F000
1F81F000
0F81F800
07C0F800
07C07C00
03E03C00
01F03E00
00F01F00
00F80F00
00780F80
ENDCHAR
STARTCHAR 00AC
ENCODING 172
SWIDTH 600 0
DWIDTH 36 0
BBX 29 17 3 13
BITMAP
FFFFFFF8
FFFFFFF8
FFFFFFF8
FFFFFFF8
000000F8
000000F8
000000F8
000000F8
000000F8
000000F8
000000F8
000000F8
000000F8
000000F8
000000F8
000000F8
000000F8
ENDCHAR
STARTCHAR 00AD
ENCODING 173
SWIDTH 333 0
DWIDTH 20 0
BBX 16 5 2 13
BITMAP
FFFF
FFFF
FFFF
FFFF
FFFF
ENDCHAR
STARTCHAR 00AE
ENCODING 174
SWIDTH 750 0
DWIDTH 45 0
BBX 44 43 1 0
BITMAP
0000FFF00000
0007FFFE0000
001FFFFF8000
007FFFFFE000
00FF000FF000
01FC0003F800
03F00000FC00
07E000007E00
0FC000003F00
0F8000001F00
1F0FFFC00F80
3E0FFFF807C0
3C0FFFFC03C0
7C0F007C03C0
780F003E01E0
780F001E01E0
780F001E01E0
F00F001E00F0
F00F003E00F0
F00F007C00F0
F00FFFF800F0
F00FFFF000F0
F00FFF0000F0
F00F07C000F0
F00F03E000F0
F00F01F000F0
780F00F001E0
780F007801E0
780F007C01E0
7C0F003C03C0
3C0F003E03C0
3E0F001E07C0
1F0F000F0F80
0F0000001F00
0F8000001F00
07E000007E00
03F00000FC00
01FC0003F800
00FF000FF000
007FFFFFE000
001FFFFF8000
0007FFFE0000
0001FFF80000
ENDCHAR
STARTCHAR 00AF
ENCODING 175
SWIDTH 550 0
DWIDTH 33 0
BBX 35 4 -1 47
BITMAP
FFFFFFFFE0
FFFFFFFFE0
FFFFFFFFE0
FFFFFFFFE0
ENDCHAR
STARTCHAR 00B0
ENCODING 176
SWIDTH 400 0
DWIDTH 24 0
BBX 16 16 4 28
BITMAP
0FF0
1FF8
3FFC
781E
700E
E007
E007
E007
E007
E007
F00F
701E
7C3E
3FFC
1FF8
07E0
ENDCHAR
STARTCHAR 00B1
ENCODING 177
SWIDTH 533 0
DWIDTH 32 0
BBX 28 36 2 0
BITMAP
000F8000
000F8000
000F8000
000F8000
000F8000
000F8000
000F8000
000F8000
000F8000
000F8000
000F8000
000F8000
FFFFFFF0
FFFFFFF0
FFFFFFF0
FFFFFFF0
000F8000
000F8000
000F8000
000F8000
000F8000
000F8000
000F8000
000F8000
000F8000
000F8000
000F8000
000F8000
000F8000
00000000
00000000
00000000
FFFFFFF0
FFFFFFF0
FFFFFFF0
FFFFFFF0
ENDCHAR
STARTCHAR 00B2
ENCODING 178
SWIDTH 333 0
DWIDTH 20 0
BBX 18 21 1 23
BITMAP
0FFE00
3FFF00
7FFF80
7C0FC0
F807C0
3807C0
0007C0
000FC0
000F80
003F00
007E00
00FC00
03F800
07E000
0FC000
1F0000
3E0000
7FFFC0
FFFFC0
FFFFC0
FFFFC0
ENDCHAR
STARTCHAR 00B3
ENCODING 179
SWIDTH 333 0
DWIDTH 20 0
BBX 18 22 1 22
BITMAP
0FFC00
3FFF00
7FFF00
7C1F80
F80F80
000F80
001F80
003F00
01FE00
01F800
01FF00
001F80
000F80
0007C0
0007C0
3007C0
F007C0
F80F80
7C1F80
7FFF00
1FFE00
07F800
ENDCHAR
STARTCHAR 00B4
ENCODING 180
SWIDTH 333 0
DWIDTH 20 0
BBX 10 8 7 35
BITMAP
1FC0
1F80
3F00
3F00
7E00
7C00
F800
F000
ENDCHAR
STARTCHAR 00B5
ENCODING 181
SWIDTH 583 0
DWIDTH 35 0
BBX 25 43 5 -12
BITMAP
F8000F80
F8000F80
F8000F80
F8000F80
F8000F80
F8000F80
F8000F80
F8000F80
F8000F80
F8000F80
F8000F80
F8000F80
F8000F80
F8000F80
F8000F80
F8000F80
F8000F80
F8000F80
FC000F80
FC000F80
FC000F80
FC001F80
FC001F80
FE001F80
FE003F80
FF007F80
FFC0FF80
FFFFFF80
FBFFFF80
F9FFEF80
F8FF8F80
F8000000
F8000000
F8000000
F8000000
F8000000
F8000000
F8000000
F8000000
F8000000
F8000000
F8000000
F8000000
ENDCHAR
STARTCHAR 00B6
ENCODING 182
SWIDTH 550 0
DWIDTH 33 0
BBX 33 55 1 -12
BITMAP
007FFFFF80
03FFFFFF80
07FFFFFF80
1FFFFFFF80
3FFFFFFF80
3FFF81F000
7FFF81F000
7FFF81F000
FFFF81F000
FFFF81F000
FFFF81F000
FFFF81F000
FFFF81F000
FFFF81F000
FFFF81F000
FFFF81F000
7FFF81F000
7FFF81F000
7FFF81F000
3FFF81F000
1FFF81F000
0FFF81F000
07FF81F000
00FF81F000
000F81F000
000F81F000
000F81F000
000F81F000
000F81F000
000F81F000
000F81F000
000F81F000
000F81F000
000F81F000
000F81F000
000F81F000
000F81F000
000F81F000
000F81F000
000F81F000
000F81F000
000F81F000
000F81F000
000F81F000
000F81F000
000F81F000
000F81F000
000F81F000
000F81F000
000F81F000
000F81F000
000F81F000
000F81F000
000F81F000
000F81F000
ENDCHAR
STARTCHAR 00B7
ENCODING 183
SWIDTH 266 0
DWIDTH 16 0
BBX 5 6 5 18
BITMAP
F8
F8
F8
F8
F8
F8
ENDCHAR
STARTCHAR 00B8
ENCODING 184
SWIDTH 350 0
DWIDTH 21 0
BBX 13 12 3 -13
BITMAP
0780
0F00
0F00
0FC0
0FF0
01F8
00F8
01F8
FFF8
FFF8
FFF0
FFC0
ENDCHAR
STARTCHAR 00B9
ENCODING 185
SWIDTH 333 0
DWIDTH 20 0
BBX 11 22 3 22
BITMAP
00E0
01E0
03E0
0FE0
1FE0
FFE0
FDE0
F1E0
C1E0
01E0
01E0
01E0
01E0
01E0
01E0
01E0
01E0
01E0
01E0
01E0
01E0
01E0
ENDCHAR
STARTCHAR 00BA
ENCODING 186
SWIDTH 350 0
DWIDTH 21 0
BBX 19 23 1 20
BITMAP
004000
07FC00
0FFE00
1FFF00
3FFF80
7E0FC0
7C07C0
7803C0
F001E0
F001E0
F001E0
F001E0
F001E0
F001E0
F001E0
F003E0
7803C0
7C07C0
7E0FC0
3FFF80
1FFF00
0FFE00
07FC00
ENDCHAR
STARTCHAR 00BB
ENCODING 187
SWIDTH 550 0
DWIDTH 33 0
BBX 25 27 4 2
BITMAP
F80F0000
7C0F8000
3C07C000
3E03C000
1F03E000
1F01F000
0F81F000
0FC0F800
07C0FC00
03E07C00
03F07E00
01F03F00
01F81F80
00FC1F80
01F81F80
01F03F00
03F07E00
03E07C00
07C0FC00
0FC0F800
0F81F000
1F01F000
1F03E000
3E03C000
3C07C000
7C0F8000
F80F0000
ENDCHAR
STARTCHAR 00BC
ENCODING 188
SWIDTH 833 0
DWIDTH 50 0
BBX 46 46 3 -2
BITMAP
00E000000F80
01E000000F00
03E000001E00
0FE000003E00
1FE000003C00
7FE000007800
FDE00000F800
F9E00000F000
E1E00001E000
01E00003E000
01E00007C000
01E000078000
01E0000F8000
01E0001F0000
01E0001E0000
01E0003C0000
01E0007C0000
01E000780000
01E000F00000
01E001F00000
01E003E00000
01E003C00000
000007C00000
00000F8001E0
00000F0003E0
00001E0007E0
00003E0007E0
00003C000FE0
000078001FE0
0000F8003FE0
0000F0007DE0
0001E000F9E0
0003E001F1E0
0007C001E1E0
00078003E1E0
000F0007C1E0
001F000F81E0
001E000FFFFC
003C000FFFFC
007C000FFFFC
0078000001E0
00F0000001E0
01F0000001E0
03E0000001E0
03C0000001E0
07C000000000
ENDCHAR
STARTCHAR 00BD
ENCODING 189
SWIDTH 833 0
DWIDTH 50 0
BBX 46 46 3 -2
BITMAP
00E000001F00
01E000001E00
03E000003E00
0FE000007C00
1FE000007800
7FE00000F000
FDE00001F000
F9E00001E000
E1E00003C000
01E00007C000
01E0000F8000
01E0000F0000
01E0001F0000
01E0003E0000
01E0003C0000
01E0007C0000
01E000F80000
01E000F00000
01E001F00000
01E003E00000
01E003C00000
01E007800000
00000F800000
00000F007F80
00001E01FFF0
00003E03FFF8
00007C03FFF8
00007807E1FC
0000F807807C
0001F00F807C
0001E000007C
0003E0000078
0007C00000F8
0007800001F0
000F000003E0
001F00000FC0
001E00001F80
003C00007E00
007C0000FC00
00F80001F000
00F00003E000
01F00007FFFC
03E0000FFFFC
03C0000FFFFC
07C0000FFFFC
0F8000000000
ENDCHAR
STARTCHAR 00BE
ENCODING 190
SWIDTH 833 0
DWIDTH 50 0
BBX 48 46 1 -2
BITMAP
0000000001E0
0FFC000003E0
3FFF000007C0
7FFF00000780
7C1F80000F00
F80F80001F00
000F80003E00
001F80003C00
003F00007800
01FE0000F800
01F80000F000
01FF0001E000
001F8003E000
000F8007C000
0007C0078000
0007C00F0000
3007C01F0000
F007C03E0000
F80F803C0000
7C1F807C0000
7FFF00F80000
1FFE00F00000
07F801E00000
000003E00078
000007C000F8
0000078001F8
00000F0001F8
00001F0003F8
00003E0007F8
00003C000FF8
00007C001F78
0000F8003E78
0000F0007C78
0001E0007878
0003E000F878
0007C001F078
00078003E078
000F0003FFFF
001F0003FFFF
003E0003FFFF
003C00000078
007C00000078
00F800000078
00F000000078
01E000000078
03E000000000
ENDCHAR
STARTCHAR 00BF
ENCODING 191
SWIDTH 616 0
DWIDTH 37 0
BBX 27 43 5 -13
BITMAP
001F0000
001F0000
001F0000
001F0000
001F0000
001F0000
00000000
00000000
00000000
00000000
00000000
001F0000
001F0000
001F0000
001F0000
001F0000
003F0000
003F0000
007E0000
00FE0000
01FC0000
03F80000
07F00000
0FE00000
1FC00000
3F800000
7F000000
7E000000
FC000000
FC000000
FC000000
F80003E0
F80007E0
FC0007E0
FC0007E0
7E000FC0
7E001FC0
7F803F80
3FC07F80
1FFFFF00
0FFFFE00
03FFF800
00FFE000
ENDCHAR
STARTCHAR 00C0
ENCODING 192
SWIDTH 666 0
DWIDTH 40 0
BBX 40 54 0 0
BITMAP
0003F00000
0003F80000
0001F80000
0000FC0000
00007C0000
00003E0000
00001E0000
00001F0000
0000000000
0000000000
0000000000
0000FE0000
0000FE0000
0001FF0000
0001FF0000
0001FF0000
0003EF8000
0003EF8000
0003EFC000
0007C7C000
0007C7C000
000FC7E000
000F83E000
000F83F000
001F83F000
001F01F000
003F01F800
003F01F800
003E00FC00
007E00FC00
007E007E00
007C007E00
00FC007E00
00F8003F00
01F8003F00
01F8003F80
01F0001F80
03FFFFFF80
03FFFFFFC0
07FFFFFFC0
07FFFFFFE0
07E00007E0
0FC00007E0
0FC00003F0
0F800003F0
1F800003F8
1F800001F8
3F000001F8
3F000000FC
3F000000FC
7E000000FE
7E0000007E
FE0000007E
FC0000007F
ENDCHAR
STARTCHAR 00C1
ENCODING 193
SWIDTH 666 0
DWIDTH 40 0
BBX 40 54 0 0
BITMAP
00001FC000
00001F8000
00001F8000
00003F0000
00003E0000
00007C0000
0000780000
0000F80000
0000000000
0000000000
0000000000
0000FE0000
0000FE0000
0001FF0000
0001FF0000
0001FF0000
0003EF8000
0003EF8000
0003EFC000
0007C7C000
0007C7C000
000FC7E000
000F83E000
000F83F000
001F83F000
001F01F000
003F01F800
003F01F800
003E00FC00
007E00FC00
007E007E00
007C007E00
00FC007E00
00F8003F00
01F8003F00
01F8003F80
01F0001F80
03FFFFFF80
03FFFFFFC0
07FFFFFFC0
07FFFFFFE0
07E00007E0
0FC00007E0
0FC00003F0
0F800003F0
1F800003F8
1F800001F8
3F000001F8
3F000000FC
3F000000FC
7E000000FE
7E0000007E
FE0000007E
FC0000007F
ENDCHAR
STARTCHAR 00C2
ENCODING 194
SWIDTH 666 0
DWIDTH 40 0
BBX 40 54 0 0
BITMAP
0000FC0000
0001FE0000
0003FF0000
0003EF8000
0007EFC000
000FC7E000
001F83E000
003F83F000
0000000000
0000000000
0000000000
0000FE0000
0000FE0000
0001FF0000
0001FF0000
0001FF0000
0003EF8000
0003EF8000
0003EFC000
0007C7C000
0007C7C000
000FC7E000
000F83E000
000F83F000
001F83F000
001F01F000
003F01F800
003F01F800
003E00FC00
007E00FC00
007E007E00
007C007E00
00FC007E00
00F8003F00
01F8003F00
01F8003F80
01F0001F80
03FFFFFF80
03FFFFFFC0
07FFFFFFC0
07FFFFFFE0
07E00007E0
0FC00007E0
0FC00003F0
0F800003F0
1F800003F8
1F800001F8
3F000001F8
3F000000FC
3F000000FC
7E000000FE
7E0000007E
FE0000007E
FC0000007F
ENDCHAR
STARTCHAR 00C3
ENCODING 195
SWIDTH 666 0
DWIDTH 40 0
BBX 40 53 0 0
BITMAP
0003C03800
000FF87800
001FFEF800
001FFFF800
003F7FF000
003C1FF000
003C07C000
0000000000
0000000000
0000000000
0000FE0000
0000FE0000
0001FE0000
0001FF0000
0001FF0000
0003FF8000
0003EF8000
0007EF8000
0007CFC000
0007C7C000
000FC7E000
000F87E000
001F83E000
001F83F000
001F01F000
003F01F800
003F01F800
003E00F800
007E00FC00
007C00FC00
00FC007E00
00FC007E00
00F8007F00
01F8003F00
01F8003F00
03F0001F80
03FFFFFF80
03FFFFFFC0
07FFFFFFC0
07FFFFFFC0
07C00007E0
0FC00007E0
0FC00007F0
1F800003F0
1F800003F0
1F800003F8
3F000001F8
3F000001FC
7E000000FC
7E000000FC
7E000000FE
FC0000007E
FC0000007F
ENDCHAR
STARTCHAR 00C4
ENCODING 196
SWIDTH 666 0
DWIDTH 40 0
BBX 40 52 0 0
BITMAP
001F03E000
001F03E000
001F03E000
001F03E000
001F03E000
001F03E000
0000000000
0000000000
0000000000
0000FE0000
0000FE0000
0001FF0000
0001FF0000
0003FF0000
0003FF8000
0003EF8000
0007EFC000
0007CFC000
0007C7C000
000FC7E000
000F87E000
001F83F000
001F83F000
001F01F000
003F01F800
003F01F800
003E00FC00
007E00FC00
007C00FC00
00FC007E00
00FC007E00
00F8003F00
01F8003F00
01F8003F00
03F0001F80
03FFFFFF80
03FFFFFFC0
07FFFFFFC0
07FFFFFFC0
07C00007E0
0FC00007E0
0FC00007F0
1F800003F0
1F800003F8
1F800001F8
3F000001F8
3F000001FC
7F000000FC
7E000000FE
7E0000007E
FC0000007E
FC0000007F
ENDCHAR
STARTCHAR 00C5
ENCODING 197
SWIDTH 650 0
DWIDTH 39 0
BBX 39 52 0 1
BITMAP
0000780000
0001FE0000
0001C60000
0003830000
0003030000
0003030000
0003030000
0003870000
0001FE0000
0000FC0000
0000FE0000
0001FE0000
0001FE0000
0003FF0000
0003FF0000
0003FF8000
0007CF8000
0007CF8000
0007CFC000
000FC7C000
000F87E000
001F87E000
001F83F000
001F03F000
003F01F000
003F01F800
003E01F800
007E00FC00
007C00FC00
00FC00FC00
00FC007E00
00F8007E00
01F8003F00
01F8003F00
03F0003F00
03FFFFFF80
03FFFFFF80
07FFFFFFC0
07FFFFFFC0
07C0000FC0
0FC00007E0
0FC00007E0
1F800007F0
1F800003F0
1F800003F8
3F000001F8
3F000001F8
3F000001FC
7E000000FC
7E000000FE
FC0000007E
FC0000007E
ENDCHAR
STARTCHAR 00C6
ENCODING 198
SWIDTH 1000 0
DWIDTH 60 0
BBX 56 43 1 0
BITMAP
00000FFFFFFFFF
00001FFFFFFFFF
00001FFFFFFFFF
00003FFFFFFFFF
00003FFFFFFFFF
00007F0F800000
00007E0F800000
0000FE0F800000
0000FC0F800000
0001FC0F800000
0001F80F800000
0001F80F800000
0003F00F800000
0003F00F800000
0007E00F800000
0007E00F800000
000FC00F800000
000FC00F800000
001F800FFFFFFC
001F800FFFFFFC
003F000FFFFFFC
003F000FFFFFFC
007E000FFFFFFC
007E000F800000
00FC000F800000
00FFFFFF800000
01FFFFFF800000
01FFFFFF800000
03FFFFFF800000
03FFFFFF800000
07E0000F800000
07E0000F800000
0FC0000F800000
0FC0000F800000
1F80000F800000
1F80000F800000
1F80000F800000
3F00000F800000
3F00000FFFFFFF
7E00000FFFFFFF
7E00000FFFFFFF
FC00000FFFFFFF
FC00000FFFFFFF
ENDCHAR
STARTCHAR 00C7
ENCODING 199
SWIDTH 733 0
DWIDTH 44 0
BBX 38 55 3 -12
BITMAP
0003FFE000
001FFFF800
007FFFFE00
00FFFFFF00
03FE00FFC0
07F8001FC0
07E0000FE0
0FC00007F0
1F800003F0
1F000003F8
3F000001F8
3E000001FC
7E00000080
7E00000000
7C00000000
7C00000000
FC00000000
FC00000000
FC00000000
F800000000
F800000000
F800000000
F800000000
FC00000000
FC00000000
FC00000000
FC00000000
7C00000000
7C000000F0
7E000000FC
7E000000FC
3E000001FC
3F000001F8
1F800003F8
1FC00007F0
0FE0000FF0
0FF0001FE0
07FC007FC0
03FFC7FF80
01FFFFFF00
007FFFFE00
003FFFF800
0007FFE000
0000F00000
0000F00000
0001F80000
0001FE0000
00003F0000
00001F8000
00001F8000
00001F8000
000FFF8000
000FFF0000
000FFE0000
000FFC0000
ENDCHAR
STARTCHAR 00C8
ENCODING 200
SWIDTH 666 0
DWIDTH 40 0
BBX 32 54 5 0
BITMAP
007F0000
003F8000
001F8000
000FC000
0007C000
0003E000
0001E000
0001F000
00000000
00000000
00000000
FFFFFFFE
FFFFFFFE
FFFFFFFE
FFFFFFFE
FFFFFFFE
F8000000
F8000000
F8000000
F8000000
F8000000
F8000000
F8000000
F8000000
F8000000
F8000000
F8000000
F8000000
F8000000
FFFFFFFC
FFFFFFFC
FFFFFFFC
FFFFFFFC
FFFFFFFC
F8000000
F8000000
F8000000
F8000000
F8000000
F8000000
F8000000
F8000000
F8000000
F8000000
F8000000
F8000000
F8000000
F8000000
F8000000
FFFFFFFF
FFFFFFFF
FFFFFFFF
FFFFFFFF
FFFFFFFF
ENDCHAR
STARTCHAR 00C9
ENCODING 201
SWIDTH 666 0
DWIDTH 40 0
BBX 32 54 5 0
BITMAP
0001FC00
0001F800
0003F000
0003F000
0007E000
0007C000
000F8000
000F0000
00000000
00000000
00000000
FFFFFFFE
FFFFFFFE
FFFFFFFE
FFFFFFFE
FFFFFFFE
F8000000
F8000000
F8000000
F8000000
F8000000
F8000000
F8000000
F8000000
F8000000
F8000000
F8000000
F8000000
F8000000
FFFFFFFC
FFFFFFFC
FFFFFFFC
FFFFFFFC
FFFFFFFC
F8000000
F8000000
F8000000
F8000000
F8000000
F8000000
F8000000
F8000000
F8000000
F8000000
F8000000
F8000000
F8000000
F8000000
F8000000
FFFFFFFF
FFFFFFFF
FFFFFFFF
FFFFFFFF
FFFFFFFF
ENDCHAR
STARTCHAR 00CA
ENCODING 202
SWIDTH 666 0
DWIDTH 40 0
BBX 32 54 5 0
BITMAP
000FE000
000FF000
001FF800
003FF800
007E7C00
00FC7E00
00FC3F00
01F81F80
00000000
00000000
00000000
FFFFFFFE
FFFFFFFE
FFFFFFFE
FFFFFFFE
FFFFFFFE
F8000000
F8000000
F8000000
F8000000
F8000000
F8000000
F8000000
F8000000
F8000000
F8000000
F8000000
F8000000
F8000000
FFFFFFFC
FFFFFFFC
FFFFFFFC
FFFFFFFC
FFFFFFFC
F8000000
F8000000
F8000000
F8000000
F8000000
F8000000
F8000000
F8000000
F8000000
F8000000
F8000000
F8000000
F8000000
F8000000
F8000000
FFFFFFFF
FFFFFFFF
FFFFFFFF
FFFFFFFF
FFFFFFFF
ENDCHAR
STARTCHAR 00CB
ENCODING 203
SWIDTH 666 0
DWIDTH 40 0
BBX 32 52 5 0
BITMAP
00F81F00
00F81F00
00F81F00
00F81F00
00F81F00
00F81F00
00000000
00000000
00000000
FFFFFFFE
FFFFFFFE
FFFFFFFE
FFFFFFFE
FFFFFFFE
F8000000
F8000000
F8000000
F8000000
F8000000
F8000000
F8000000
F8000000
F8000000
F8000000
F8000000
F8000000
F8000000
FFFFFFFC
FFFFFFFC
FFFFFFFC
FFFFFFFC
FFFFFFFC
F8000000
F8000000
F8000000
F8000000
F8000000
F8000000
F8000000
F8000000
F8000000
F8000000
F8000000
F8000000
F8000000
F8000000
F8000000
FFFFFFFF
FFFFFFFF
FFFFFFFF
FFFFFFFF
FFFFFFFF
ENDCHAR
STARTCHAR 00CC
ENCODING 204
SWIDTH 283 0
DWIDTH 17 0
BBX 11 54 2 0
BITMAP
FE00
7F00
3F00
1F80
0F80
07C0
07C0
03E0
0000
0000
0000
0F80
0F80
0F80
0F80
0F80
0F80
0F80
0F80
0F80
0F80
0F80
0F80
0F80
0F80
0F80
0F80
0F80
0F80
0F80
0F80
0F80
0F80
0F80
0F80
0F80
0F80
0F80
0F80
0F80
0F80
0F80
0F80
0F80
0F80
0F80
0F80
0F80
0F80
0F80
0F80
0F80
0F80
0F80
ENDCHAR
STARTCHAR 00CD
ENCODING 205
SWIDTH 283 0
DWIDTH 17 0
BBX 10 54 5 0
BITMAP
1FC0
1F80
3F00
3E00
7E00
7C00
F800
F000
0000
0000
0000
7C00
7C00
7C00
7C00
7C00
7C00
7C00
7C00
7C00
7C00
7C00
7C00
7C00
7C00
7C00
7C00
7C00
7C00
7C00
7C00
7C00
7C00
7C00
7C00
7C00
7C00
7C00
7C00
7C00
7C00
7C00
7C00
7C00
7C00
7C00
7C00
7C00
7C00
7C00
7C00
7C00
7C00
7C00
ENDCHAR
STARTCHAR 00CE
ENCODING 206
SWIDTH 283 0
DWIDTH 17 0
BBX 17 54 0 0
BITMAP
07F000
07F000
0FF800
1F7C00
3F3E00
7E3F00
7E1F80
FC1F80
000000
000000
000000
03E000
03E000
03E000
03E000
03E000
03E000
03E000
03E000
03E000
03E000
03E000
03E000
03E000
03E000
03E000
03E000
03E000
03E000
03E000
03E000
03E000
03E000
03E000
03E000
03E000
03E000
03E000
03E000
03E000
03E000
03E000
03E000
03E000
03E000
03E000
03E000
03E000
03E000
03E000
03E000
03E000
03E000
03E000
ENDCHAR
STARTCHAR 00CF
ENCODING 207
SWIDTH 300 0
DWIDTH 18 0
BBX 16 52 1 0
BITMAP
FC1F
FC1F
FC1F
FC1F
FC1F
FC1F
0000
0000
0000
03E0
03E0
03E0
03E0
03E0
03E0
03E0
03E0
03E0
03E0
03E0
03E0
03E0
03E0
03E0
03E0
03E0
03E0
03E0
03E0
03E0
03E0
03E0
03E0
03E0
03E0
03E0
03E0
03E0
03E0
03E0
03E0
03E0
03E0
03E0
03E0
03E0
03E0
03E0
03E0
03E0
03E0
03E0
ENDCHAR
STARTCHAR 00D0
ENCODING 208
SWIDTH 716 0
DWIDTH 43 0
BBX 40 43 0 0
BITMAP
07FFFFC000
07FFFFFC00
07FFFFFF00
07FFFFFF80
07FFFFFFC0
07C0007FE0
07C0000FF0
07C00003F8
07C00001F8
07C00001FC
07C00000FC
07C000007C
07C000007E
07C000003E
07C000003E
07C000003F
07C000003F
07C000003F
07C000003F
FFFFFC001F
FFFFFC001F
FFFFFC001F
FFFFFC001F
07C000003F
07C000003F
07C000003F
07C000003F
07C000003E
07C000003E
07C000007E
07C000007E
07C000007C
07C00000FC
07C00001FC
07C00001F8
07C00003F0
07C0000FF0
07C0007FE0
07FFFFFFC0
07FFFFFF80
07FFFFFE00
07FFFFF800
07FFFFC000
ENDCHAR
STARTCHAR 00D1
ENCODING 209
SWIDTH 733 0
DWIDTH 44 0
BBX 34 53 5 0
BITMAP
000F00F000
003FE0F000
007FF9F000
007FFFE000
00FDFFE000
00F07FC000
00F00F0000
0000000000
0000000000
0000000000
FC000007C0
FE000007C0
FE000007C0
FF000007C0
FF800007C0
FFC00007C0
FFC00007C0
FFE00007C0
FFF00007C0
FBF00007C0
FBF80007C0
F9FC0007C0
F8FC0007C0
F8FE0007C0
F87F0007C0
F83F0007C0
F83F8007C0
F81FC007C0
F80FC007C0
F80FE007C0
F807F007C0
F803F007C0
F803F807C0
F801FC07C0
F800FC07C0
F800FE07C0
F8007F07C0
F8003F07C0
F8003F87C0
F8001FC7C0
F8000FC7C0
F8000FE7C0
F80007F7C0
F80003F7C0
F80003FFC0
F80001FFC0
F80000FFC0
F80000FFC0
F800007FC0
F800003FC0
F800001FC0
F800001FC0
F800000FC0
ENDCHAR
STARTCHAR 00D2
ENCODING 210
SWIDTH 783 0
DWIDTH 47 0
BBX 41 56 3 -1
BITMAP
0007F0000000
0007F0000000
0003F8000000
0001F8000000
0000FC000000
00007C000000
00003E000000
00003E000000
00001F000000
000000000000
000000000000
000000000000
0003FFE00000
001FFFFC0000
007FFFFF0000
00FFFFFF8000
01FF007FC000
03FC001FE000
07F00007F000
0FE00003F800
1F800001FC00
1F800000FC00
3F0000007E00
3E0000007E00
7E0000003E00
7E0000003F00
7C0000001F00
7C0000001F00
FC0000001F80
FC0000001F80
FC0000001F80
FC0000001F80
F80000000F80
F80000000F80
F80000000F80
F80000001F80
FC0000001F80
FC0000001F80
FC0000001F80
7C0000001F00
7C0000001F00
7E0000003F00
7E0000003F00
3E0000007E00
3F0000007E00
1F800000FC00
1FC00001FC00
0FE00003F800
07F00007F000
03F8001FE000
01FF007FC000
00FFFFFF8000
003FFFFF0000
001FFFFC0000
0003FFE00000
000008000000
ENDCHAR
STARTCHAR 00D3
ENCODING 211
SWIDTH 783 0
DWIDTH 47 0
BBX 41 56 3 -1
BITMAP
000007F00000
00000FE00000
00000FC00000
00001FC00000
00001F800000
00003F000000
00003E000000
00007C000000
00007C000000
000000000000
000000000000
000000000000
0003FFE00000
001FFFFC0000
007FFFFF0000
00FFFFFF8000
01FF007FC000
03FC001FE000
07F00007F000
0FE00003F800
1F800001FC00
1F800000FC00
3F0000007E00
3E0000007E00
7E0000003E00
7E0000003F00
7C0000001F00
7C0000001F00
FC0000001F80
FC0000001F80
FC0000001F80
FC0000001F80
F80000000F80
F80000000F80
F80000000F80
F80000001F80
FC0000001F80
FC0000001F80
FC0000001F80
7C0000001F00
7C0000001F00
7E0000003F00
7E0000003F00
3E0000007E00
3F0000007E00
1F800000FC00
1FC00001FC00
0FE00003F800
07F00007F000
03F8001FE000
01FF007FC000
00FFFFFF8000
003FFFFF0000
001FFFFC0000
0003FFE00000
000008000000
ENDCHAR
STARTCHAR 00D4
ENCODING 212
SWIDTH 783 0
DWIDTH 47 0
BBX 41 56 3 -1
BITMAP
00007E000000
00007F000000
0000FF800000
0001FFC00000
0003F7C00000
0007E3E00000
0007E3F00000
000FC1F80000
001F81FC0000
000000000000
000000000000
000000000000
0003FFE00000
001FFFFC0000
007FFFFF0000
00FFFFFF8000
01FF007FC000
03FC001FE000
07F00007F000
0FE00003F800
1F800001FC00
1F800000FC00
3F0000007E00
3E0000007E00
7E0000003E00
7E0000003F00
7C0000001F00
7C0000001F00
FC0000001F80
FC0000001F80
FC0000001F80
FC0000001F80
F80000000F80
F80000000F80
F80000000F80
F80000001F80
FC0000001F80
FC0000001F80
FC0000001F80
7C0000001F00
7C0000001F00
7E0000003F00
7E0000003F00
3E0000007E00
3F0000007E00
1F800000FC00
1FC00001FC00
0FE00003F800
07F00007F000
03F8001FE000
01FF007FC000
00FFFFFF8000
003FFFFF0000
001FFFFC0000
0003FFE00000
000008000000
ENDCHAR
STARTCHAR 00D5
ENCODING 213
SWIDTH 783 0
DWIDTH 47 0
BBX 41 54 3 -1
BITMAP
0001E01E0000
0007FC1E0000
000FFF3C0000
000FFFFC0000
001FBFFC0000
001E0FF80000
001E01E00000
000000000000
000000000000
000000000000
0003FFE00000
001FFFFC0000
007FFFFF0000
00FFFFFF8000
01FF007FC000
03FC001FE000
07F00007F000
0FE00003F800
1F800001FC00
1F800000FC00
3F0000007E00
3E0000007E00
7E0000003E00
7E0000003F00
7C0000001F00
7C0000001F00
FC0000001F80
FC0000001F80
FC0000001F80
FC0000001F80
F80000000F80
F80000000F80
F80000000F80
F80000001F80
FC0000001F80
FC0000001F80
FC0000001F80
7C0000001F00
7C0000001F00
7E0000003F00
7E0000003F00
3E0000007E00
3F0000007E00
1F800000FC00
1FC00001FC00
0FE00003F800
07F00007F000
03F8001FE000
01FF007FC000
00FFFFFF8000
003FFFFF0000
001FFFFC0000
0003FFE00000
000008000000
ENDCHAR
STARTCHAR 00D6
ENCODING 214
SWIDTH 783 0
DWIDTH 47 0
BBX 41 53 3 -1
BITMAP
000F81F00000
000F81F00000
000F81F00000
000F81F00000
000F81F00000
000F81F00000
000000000000
000000000000
000000000000
0003FFE00000
001FFFFC0000
007FFFFF0000
00FFFFFF8000
01FF007FC000
03FC001FE000
07F00007F000
0FE00003F800
1F800001FC00
1F800000FC00
3F0000007E00
3E0000007E00
7E0000003E00
7E0000003F00
7C0000001F00
7C0000001F00
FC0000001F80
FC0000001F80
FC0000001F80
FC0000001F80
F80000000F80
F80000000F80
F80000000F80
F80000001F80
FC0000001F80
FC0000001F80
FC0000001F80
7C0000001F00
7C0000001F00
7E0000003F00
7E0000003F00
3E0000007E00
3F0000007E00
1F800000FC00
1FC00001FC00
0FE00003F800
07F00007F000
03F8001FE000
01FF007FC000
00FFFFFF8000
003FFFFF0000
001FFFFC0000
0003FFE00000
000008000000
ENDCHAR
STARTCHAR 00D7
ENCODING 215
SWIDTH 583 0
DWIDTH 35 0
BBX 25 25 5 9
BITMAP
10000400
38000E00
7C001F00
FE003F80
7F007F00
3F80FE00
1FC1FC00
0FE3F800
07F7F000
03FFE000
01FFC000
00FF8000
007F0000
00FF8000
01FFC000
03FFE000
07F7F000
0FE3F800
1FC1FC00
3F80FE00
7F007F00
FE003F80
FC001F80
78000F00
30000600
ENDCHAR
STARTCHAR 00D8
ENCODING 216
SWIDTH 783 0
DWIDTH 47 0
BBX 41 45 3 -1
BITMAP
000000000300
0003FFF00780
001FFFFC0F80
003FFFFF1F00
00FFFFFFFE00
01FF007FFC00
03F8001FFC00
07F00007F800
0FE00003F800
0FC00003FC00
1F800007FC00
3F00000FFE00
3E00001F7E00
3E00003E3F00
7E00007E3F00
7C0000FC1F00
7C0001F81F00
FC0001F01F80
FC0003E01F80
FC0007C01F80
F8000F801F80
F8001F000F80
F8003E000F80
F8007C000F80
F800FC001F80
FC01F8001F80
FC03F0001F80
FC03E0001F80
FC07C0001F00
7C0F80001F00
7E1F00003F00
7E3E00003E00
3F7C00007E00
3FF800007E00
1FF80000FC00
1FF00001FC00
0FE00003F800
0FF00007F000
0FF8001FE000
1FFF007FC000
3FFFFFFF8000
7C7FFFFE0000
F81FFFFC0000
F007FFE00000
600000000000
ENDCHAR
STARTCHAR 00D9
ENCODING 217
SWIDTH 716 0
DWIDTH 43 0
BBX 33 54 5 -1
BITMAP
007F000000
003F800000
001F800000
000FC00000
0007C00000
0003E00000
0001E00000
0001F00000
0000000000
0000000000
0000000000
F800000F80
F800000F80
F800000F80
F800000F80
F800000F80
F800000F80
F800000F80
F800000F80
F800000F80
F800000F80
F800000F80
F800000F80
F800000F80
F800000F80
F800000F80
F800000F80
F800000F80
F800000F80
F800000F80
F800000F80
F800000F80
F800000F80
F800000F80
F800000F80
F800000F80
F800000F80
F800000F80
F800000F80
FC00000F80
FC00000F80
FC00000F80
7C00001F80
7C00001F80
7E00001F00
7E00003F00
3F00007F00
3F8000FE00
1FE001FE00
1FFFFFFC00
0FFFFFF800
03FFFFF000
01FFFFC000
003FFF0000
ENDCHAR
STARTCHAR 00DA
ENCODING 218
SWIDTH 716 0
DWIDTH 43 0
BBX 33 54 5 -1
BITMAP
00007F0000
0000FE0000
0000FC0000
0001F80000
0001F00000
0003F00000
0003E00000
0007C00000
0000000000
0000000000
0000000000
F800000F80
F800000F80
F800000F80
F800000F80
F800000F80
F800000F80
F800000F80
F800000F80
F800000F80
F800000F80
F800000F80
F800000F80
F800000F80
F800000F80
F800000F80
F800000F80
F800000F80
F800000F80
F800000F80
F800000F80
F800000F80
F800000F80
F800000F80
F800000F80
F800000F80
F800000F80
F800000F80
F800000F80
FC00000F80
FC00000F80
FC00000F80
7C00001F80
7C00001F80
7E00001F00
7E00003F00
3F00007F00
3F8000FE00
1FE001FE00
1FFFFFFC00
0FFFFFF800
03FFFFF000
01FFFFC000
003FFF0000
ENDCHAR
STARTCHAR 00DB
ENCODING 219
SWIDTH 716 0
DWIDTH 43 0
BBX 33 55 5 -1
BITMAP
0003E00000
0007F00000
000FF80000
001FFC0000
001F7C0000
003F3E0000
007E3F0000
00FC1F8000
00FC0FC000
0000000000
0000000000
0000000000
F800000F80
F800000F80
F800000F80
F800000F80
F800000F80
F800000F80
F800000F80
F800000F80
F800000F80
F800000F80
F800000F80
F800000F80
F800000F80
F800000F80
F800000F80
F800000F80
F800000F80
F800000F80
F800000F80
F800000F80
F800000F80
F800000F80
F800000F80
F800000F80
F800000F80
F800000F80
F800000F80
F800000F80
FC00000F80
FC00000F80
FC00000F80
7C00001F80
7C00001F80
7E00001F00
7E00003F00
3F00007F00
3F8000FE00
1FE001FE00
1FFFFFFC00
0FFFFFF800
03FFFFF000
01FFFFC000
003FFF0000
ENDCHAR
STARTCHAR 00DC
ENCODING 220
SWIDTH 716 0
DWIDTH 43 0
BBX 33 52 5 -1
BITMAP
007C0F8000
007C0F8000
007C0F8000
007C0F8000
007C0F8000
007C0F8000
0000000000
0000000000
0000000000
F800000F80
F800000F80
F800000F80
F800000F80
F800000F80
F800000F80
F800000F80
F800000F80
F800000F80
F800000F80
F800000F80
F800000F80
F800000F80
F800000F80
F800000F80
F800000F80
F800000F80
F800000F80
F800000F80
F800000F80
F800000F80
F800000F80
F800000F80
F800000F80
F800000F80
F800000F80
F800000F80
F800000F80
FC00000F80
FC00000F80
FC00000F80
7C00001F80
7C00001F80
7E00001F00
7E00003F00
3F00007F00
3F8000FE00
1FE001FE00
1FFFFFFC00
0FFFFFF800
03FFFFF000
01FFFFC000
003FFF0000
ENDCHAR
STARTCHAR 00DD
ENCODING 221
SWIDTH 666 0
DWIDTH 40 0
BBX 38 54 1 0
BITMAP
00001FC000
00001F8000
00003F0000
00003E0000
00007E0000
00007C0000
0000F80000
0000F00000
0000000000
0000000000
0000000000
FE000000FC
FE000001FC
7F000003F8
3F800003F0
3F800007E0
1FC0000FE0
0FE0000FC0
0FE0001F80
07F0003F80
03F0003F00
03F8007E00
01FC00FE00
00FC00FC00
00FE01F800
007F03F800
003F03F000
003F87E000
001F87C000
000FCFC000
000FFF8000
0007FF0000
0003FF0000
0003FE0000
0001FC0000
0000FC0000
0000F80000
0000F80000
0000F80000
0000F80000
0000F80000
0000F80000
0000F80000
0000F80000
0000F80000
0000F80000
0000F80000
0000F80000
0000F80000
0000F80000
0000F80000
0000F80000
0000F80000
0000F80000
ENDCHAR
STARTCHAR 00DE
ENCODING 222
SWIDTH 666 0
DWIDTH 40 0
BBX 32 43 5 0
BITMAP
F8000000
F8000000
F8000000
F8000000
F8000000
F8000000
F8000000
F8000000
F8000000
FFFFFE00
FFFFFFC0
FFFFFFF0
FFFFFFF8
FFFFFFFC
F80003FE
F80000FE
F800007F
F800003F
F800003F
F800001F
F800001F
F800001F
F800001F
F800001F
F800003F
F800003F
F800007E
F80000FE
F80007FC
FFFFFFFC
FFFFFFF8
FFFFFFF0
FFFFFFC0
FFFFFC00
F8000000
F8000000
F8000000
F8000000
F8000000
F8000000
F8000000
F8000000
F8000000
ENDCHAR
STARTCHAR 00DF
ENCODING 223
SWIDTH 600 0
DWIDTH 36 0
BBX 30 43 4 0
BITMAP
01FFC000
07FFF000
0FFFF800
1FFFFC00
3F81FE00
7F007E00
7E007E00
7C003E00
FC003E00
FC003E00
FC003E00
FC007E00
F8007C00
F800FC00
F800F800
F801F800
F801F000
F803F000
F803E000
F803E000
F803E000
F803F000
F803F800
F803FC00
F801FF00
F800FF80
F8003FC0
F8001FF0
F8000FF8
F80003F8
F80001FC
F80000FC
F800007C
F800007C
F804007C
F81C007C
F87E00FC
F83F00FC
F83F83F8
F81FFFF0
F80FFFF0
F807FFC0
F801FF80
ENDCHAR
STARTCHAR 00E0
ENCODING 224
SWIDTH 550 0
DWIDTH 33 0
BBX 28 43 2 -1
BITMAP
00FE0000
007E0000
003F0000
003F0000
001F8000
000F8000
0007C000
0003C000
00000000
00000000
00000000
00000000
00FFFC00
03FFFF00
0FFFFF80
1FFFFFC0
1FC03FC0
3F000FC0
3E0007E0
7E0007E0
7C0007E0
040003E0
000003E0
000007E0
00007FE0
003FFFE0
03FFFFE0
0FFFFBE0
1FFF83E0
3FE003E0
7F0003E0
7E0007E0
FC0007E0
FC0007E0
F80007E0
FC000FE0
FC001FE0
FE003FE0
7F00FFE0
7FFFFBE0
3FFFF3F0
1FFFC1F0
07FF01F0
ENDCHAR
STARTCHAR 00E1
ENCODING 225
SWIDTH 550 0
DWIDTH 33 0
BBX 28 43 2 -1
BITMAP
0001FC00
0003F800
0003F000
0007E000
0007E000
0007C000
000F8000
000F0000
00000000
00000000
00000000
00000000
00FFFC00
03FFFF00
0FFFFF80
1FFFFFC0
1FC03FC0
3F000FC0
3E0007E0
7E0007E0
7C0007E0
040003E0
000003E0
000007E0
00007FE0
003FFFE0
03FFFFE0
0FFFFBE0
1FFF83E0
3FE003E0
7F0003E0
7E0007E0
FC0007E0
FC0007E0
F80007E0
FC000FE0
FC001FE0
FE003FE0
7F00FFE0
7FFFFBE0
3FFFF3F0
1FFFC1F0
07FF01F0
ENDCHAR
STARTCHAR 00E2
ENCODING 226
SWIDTH 550 0
DWIDTH 33 0
BBX 28 43 2 -1
BITMAP
001F8000
003FC000
007FE000
007FF000
00F9F800
01F8F800
03F0FC00
07E07E00
00000000
00000000
00000000
00000000
00FFFC00
03FFFF00
0FFFFF80
1FFFFFC0
1FC03FC0
3F000FC0
3E0007E0
7E0007E0
7C0007E0
040003E0
000003E0
000007E0
00007FE0
003FFFE0
03FFFFE0
0FFFFBE0
1FFF83E0
3FE003E0
7F0003E0
7E0007E0
FC0007E0
FC0007E0
F80007E0
FC000FE0
FC001FE0
FE003FE0
7F00FFE0
7FFFFBE0
3FFFF3F0
1FFFC1F0
07FF01F0
ENDCHAR
STARTCHAR 00E3
ENCODING 227
SWIDTH 550 0
DWIDTH 33 0
BBX 28 43 2 -1
BITMAP
00F00F00
03FE0F00
07FF9F00
07FFFE00
0FDFFE00
0F07FC00
0F00F800
00000000
00000000
00000000
00000000
00000000
00FFFC00
03FFFF00
0FFFFF80
1FFFFFC0
3FC03FC0
3F000FC0
7E0007E0
7E0007E0
7C0007E0
040003E0
000003E0
000007E0
00007FE0
003FFFE0
03FFFFE0
0FFFFBE0
1FFF83E0
3FE003E0
7F0003E0
7E0007E0
FC0007E0
FC0007E0
F80007E0
FC000FE0
FC001FE0
FE003FE0
7F00FFE0
7FFFFBE0
3FFFF3F0
1FFFC1F0
07FF01F0
ENDCHAR
STARTCHAR 00E4
ENCODING 228
SWIDTH 550 0
DWIDTH 33 0
BBX 28 43 2 -1
BITMAP
03E07C00
03E07C00
03E07C00
03E07C00
03E07C00
03E07C00
00000000
00000000
00000000
00000000
00000000
00000000
00FFFC00
03FFFF00
0FFFFF80
1FFFFFC0
1FC03FC0
3F000FC0
3E0007E0
7E0007E0
7C0007E0
040003E0
000003E0
000007E0
00007FE0
003FFFE0
03FFFFE0
0FFFFBE0
1FFF83E0
3FE003E0
7F0003E0
7E0007E0
FC0007E0
FC0007E0
F80007E0
FC000FE0
FC001FE0
FE003FE0
7F00FFE0
7FFFFBE0
3FFFF3F0
1FFFC3F0
07FF01F0
ENDCHAR
STARTCHAR 00E5
ENCODING 229
SWIDTH 550 0
DWIDTH 33 0
BBX 28 45 2 -1
BITMAP
000F8000
001FC000
0038E000
00707000
00603000
00603000
00603000
00707000
0038E000
001FC000
000F8000
00000000
00000000
00000000
00FFFC00
03FFFF00
0FFFFF80
1FFFFFC0
1FC03FC0
3F000FC0
3E0007E0
7E0007E0
7C0007E0
040003E0
000003E0
000007E0
00007FE0
003FFFE0
03FFFFE0
0FFFFBE0
1FFF83E0
3FE003E0
7F0003E0
7E0007E0
FC0007E0
FC0007E0
F80007E0
FC000FE0
FC001FE0
FE003FE0
7F00FFE0
7FFFFBE0
3FFFF3F0
1FFFC1F0
07FF01F0
ENDCHAR
STARTCHAR 00E6
ENCODING 230
SWIDTH 883 0
DWIDTH 53 0
BBX 49 31 2 0
BITMAP
00FFF807FF8000
03FFFE0FFFE000
0FFFFF3FFFF000
1FFFFFFFFFF800
1FC03FFE01FC00
3F000FF800FE00
3E000FF0003E00
7C0007F0003F00
7C0007E0001F00
000007E0001F00
000007E0001F00
00001FC0001F80
0003FFFFFFFF80
00FFFFFFFFFF80
07FFFFFFFFFF80
0FFFE7FFFFFF80
3FFE07C0000000
3FC007C0000000
7E0007C0000000
7C0007E0000000
FC0007E0001000
F8000FE0001F80
F8000FE0001F00
FC001FF0003F00
FC001FF8007F00
FE007FFC00FE00
7F01FEFF01FC00
3FFFF87FFFF800
3FFFF03FFFF000
1FFFC01FFFE000
07FF0007FF8000
ENDCHAR
STARTCHAR 00E7
ENCODING 231
SWIDTH 500 0
DWIDTH 30 0
BBX 27 43 2 -11
BITMAP
007FF000
01FFFC00
07FFFE00
0FFFFF00
1FE03F80
3F801FC0
3F000FC0
7E0007C0
7E0007E0
7C000380
FC000000
FC000000
FC000000
FC000000
F8000000
F8000000
F8000000
F8000000
FC000000
FC000000
FC0003E0
7C0003E0
7E0007E0
7E0007C0
3F000FC0
3F801FC0
1FE03F80
0FFFFF00
07FFFE00
03FFFC00
00FFF000
003C0000
003C0000
003F8000
003FC000
0007E000
0003E000
0003E000
0007E000
01FFE000
01FFC000
01FF8000
03FE0000
ENDCHAR
STARTCHAR 00E8
ENCODING 232
SWIDTH 550 0
DWIDTH 33 0
BBX 29 43 2 -1
BITMAP
01FC0000
00FC0000
007E0000
003E0000
003F0000
001F0000
000F8000
00078000
00000000
00000000
00000000
00000000
007FF000
01FFFC00
07FFFE00
0FFFFF00
1FE03F80
1F800FC0
3F0007E0
3E0003E0
7C0003F0
7C0003F0
7C0001F0
FC0001F0
FFFFFFF0
FFFFFFF0
FFFFFFF0
FFFFFFF8
F8000000
F8000000
FC000000
FC000000
FC000000
7C0001F0
7E0003F0
7E0003F0
3F0007E0
3F800FE0
1FE03FC0
0FFFFF80
07FFFF00
01FFFE00
007FF800
ENDCHAR
STARTCHAR 00E9
ENCODING 233
SWIDTH 550 0
DWIDTH 33 0
BBX 29 43 2 -1
BITMAP
0001FC00
0003F800
0003F000
0007E000
0007E000
0007C000
000F8000
000F0000
00000000
00000000
00000000
00000000
007FF000
01FFFC00
07FFFE00
0FFFFF00
1FE03F80
1F800FC0
3F0007E0
3E0003E0
7C0003F0
7C0003F0
7C0001F0
FC0001F0
FFFFFFF0
FFFFFFF0
FFFFFFF0
FFFFFFF8
F8000000
F8000000
FC000000
FC000000
FC000000
7C0001F0
7E0003F0
7E0003F0
3F0007E0
3F800FE0
1FE03FC0
0FFFFF80
07FFFF00
01FFFE00
007FF800
ENDCHAR
STARTCHAR 00EA
ENCODING 234
SWIDTH 550 0
DWIDTH 33 0
BBX 29 43 2 -1
BITMAP
001F8000
003FC000
007FE000
007FF000
00F9F000
01F8F800
03F0FC00
07E07E00
00000000
00000000
00000000
00000000
007FF000
01FFFC00
07FFFE00
0FFFFF00
1FE03F80
1F800FC0
3F0007E0
3E0003E0
7C0003F0
7C0003F0
7C0001F0
FC0001F0
FFFFFFF0
FFFFFFF0
FFFFFFF0
FFFFFFF8
F8000000
F8000000
FC000000
FC000000
FC000000
7C0001F0
7E0003F0
7E0003F0
3F0007E0
3F800FE0
1FE03FC0
0FFFFF80
07FFFF00
01FFFE00
007FF800
ENDCHAR
STARTCHAR 00EB
ENCODING 235
SWIDTH 550 0
DWIDTH 33 0
BBX 29 43 2 -1
BITMAP
03E07C00
03E07C00
03E07C00
03E07C00
03E07C00
03E07C00
00000000
00000000
00000000
00000000
00000000
00000000
007FF000
01FFFC00
07FFFE00
0FFFFF00
1FE03F80
1F800FC0
3F0007E0
3E0003E0
7C0003F0
7C0001F0
7C0001F0
FC0001F0
FFFFFFF0
FFFFFFF0
FFFFFFF0
FFFFFFF8
F8000000
F8000000
FC000000
FC000000
FC000000
7C0001F0
7E0003F0
7E0003F0
3F0007E0
3F800FE0
1FE03FC0
0FFFFF80
07FFFF00
01FFFE00
007FF800
ENDCHAR
STARTCHAR 00EC
ENCODING 236
SWIDTH 283 0
DWIDTH 17 0
BBX 10 43 2 0
BITMAP
FE00
7E00
7F00
3F00
1F80
0F80
07C0
03C0
0000
0000
0000
0000
0F80
0F80
0F80
0F80
0F80
0F80
0F80
0F80
0F80
0F80
0F80
0F80
0F80
0F80
0F80
0F80
0F80
0F80
0F80
0F80
0F80
0F80
0F80
0F80
0F80
0F80
0F80
0F80
0F80
0F80
0F80
ENDCHAR
STARTCHAR 00ED
ENCODING 237
SWIDTH 283 0
DWIDTH 17 0
BBX 10 43 6 0
BITMAP
1FC0
1F80
3F80
3F00
7E00
7C00
F800
F800
0000
0000
0000
0000
F800
F800
F800
F800
F800
F800
F800
F800
F800
F800
F800
F800
F800
F800
F800
F800
F800
F800
F800
F800
F800
F800
F800
F800
F800
F800
F800
F800
F800
F800
F800
ENDCHAR
STARTCHAR 00EE
ENCODING 238
SWIDTH 283 0
DWIDTH 17 0
BBX 18 43 0 0
BITMAP
03F000
07F800
0FFC00
1FFE00
1F3E00
3F1F00
7E1F80
FC0FC0
000000
000000
000000
000000
03E000
03E000
03E000
03E000
03E000
03E000
03E000
03E000
03E000
03E000
03E000
03E000
03E000
03E000
03E000
03E000
03E000
03E000
03E000
03E000
03E000
03E000
03E000
03E000
03E000
03E000
03E000
03E000
03E000
03E000
03E000
ENDCHAR
STARTCHAR 00EF
ENCODING 239
SWIDTH 300 0
DWIDTH 18 0
BBX 16 43 1 0
BITMAP
F81F
F81F
F81F
F81F
F81F
F81F
0000
0000
0000
0000
0000
0000
03E0
03E0
03E0
03E0
03E0
03E0
03E0
03E0
03E0
03E0
03E0
03E0
03E0
03E0
03E0
03E0
03E0
03E0
03E0
03E0
03E0
03E0
03E0
03E0
03E0
03E0
03E0
03E0
03E0
03E0
03E0
ENDCHAR
STARTCHAR 00F0
ENCODING 240
SWIDTH 550 0
DWIDTH 33 0
BBX 29 43 2 -1
BITMAP
00FC0300
007E0F00
003F3F00
001FFF00
0007FC00
000FF000
003FF000
01FFF800
03F8FC00
01E07E00
01803E00
00003F00
003F9F80
01FFFF80
03FFFFC0
0FFFFFC0
1FF8FFE0
1FC01FE0
3F800FE0
3F0007F0
7E0003F0
7E0003F0
7C0001F0
FC0001F8
FC0001F8
FC0001F8
F80000F8
F80000F8
F80000F8
F80001F8
FC0001F8
FC0001F8
FC0001F0
7C0001F0
7E0003F0
7E0007E0
3F0007E0
3F800FC0
1FE03FC0
0FFFFF80
07FFFF00
01FFFC00
007FF000
ENDCHAR
STARTCHAR 00F1
ENCODING 241
SWIDTH 566 0
DWIDTH 34 0
BBX 25 43 4 0
BITMAP
01F01E00
03FC1E00
07FFBE00
07FFFE00
0F9FFC00
0F07FC00
0F01F000
00000000
00000000
00000000
00000000
00000000
F83FF000
F8FFFC00
F9FFFE00
FBFFFF00
FFC07F00
FF003F80
FE001F80
FE001F80
FC000F80
FC000F80
FC000F80
FC000F80
F8000F80
F8000F80
F8000F80
F8000F80
F8000F80
F8000F80
F8000F80
F8000F80
F8000F80
F8000F80
F8000F80
F8000F80
F8000F80
F8000F80
F8000F80
F8000F80
F8000F80
F8000F80
F8000F80
ENDCHAR
STARTCHAR 00F2
ENCODING 242
SWIDTH 550 0
DWIDTH 33 0
BBX 29 44 2 -1
BITMAP
01FC0000
00FE0000
007E0000
003F0000
001F0000
000F8000
000F8000
0007C000
00000000
00000000
00000000
00020000
007FF000
01FFFC00
07FFFF00
0FFFFF80
1FE03FC0
3F800FC0
3F0007E0
7E0003F0
7E0003F0
7C0001F0
FC0001F8
FC0001F8
FC0001F8
FC0001F8
F80000F8
F80000F8
F80000F8
F80001F8
FC0001F8
FC0001F8
FC0001F8
7C0001F0
7E0003F0
7E0003F0
3F0007E0
3F800FE0
1FE03FC0
0FFFFF80
07FFFF00
01FFFC00
007FF000
00020000
ENDCHAR
STARTCHAR 00F3
ENCODING 243
SWIDTH 550 0
DWIDTH 33 0
BBX 29 44 2 -1
BITMAP
0001FC00
0001F800
0003F000
0003F000
0007E000
0007C000
000F8000
000F8000
00000000
00000000
00000000
00020000
007FF000
01FFFC00
07FFFF00
0FFFFF80
1FE03FC0
3F800FC0
3F0007E0
7E0003F0
7E0003F0
7C0001F0
FC0001F8
FC0001F8
FC0001F8
FC0001F8
F80000F8
F80000F8
F80000F8
F80001F8
FC0001F8
FC0001F8
FC0001F8
7C0001F0
7E0003F0
7E0003F0
3F0007E0
3F800FE0
1FE03FC0
0FFFFF80
07FFFF00
01FFFC00
007FF000
00020000
ENDCHAR
STARTCHAR 00F4
ENCODING 244
SWIDTH 550 0
DWIDTH 33 0
BBX 29 44 2 -1
BITMAP
001FC000
003FC000
003FE000
007DF000
00FDF800
01F8F800
01F07C00
03F07E00
00000000
00000000
00000000
00020000
007FF000
01FFFC00
07FFFF00
0FFFFF80
1FE03FC0
3F800FC0
3F0007E0
7E0003F0
7E0003F0
7C0001F0
FC0001F8
FC0001F8
FC0001F8
FC0001F8
F80000F8
F80000F8
F80000F8
F80001F8
FC0001F8
FC0001F8
FC0001F8
7C0001F0
7E0003F0
7E0003F0
3F0007E0
3F800FE0
1FE03FC0
0FFFFF80
07FFFF00
01FFFC00
007FF000
00020000
ENDCHAR
STARTCHAR 00F5
ENCODING 245
SWIDTH 550 0
DWIDTH 33 0
BBX 29 44 2 -1
BITMAP
00F80F00
01FE0F00
03FFDF00
03FFFF00
07CFFE00
0783FC00
0780F800
00000000
00000000
00000000
00000000
00020000
007FF000
01FFFC00
07FFFF00
0FFFFF80
1FE03FC0
3F800FC0
3F0007E0
7E0003F0
7E0003F0
7C0001F0
FC0001F8
FC0001F8
FC0001F8
FC0001F8
F80000F8
F80000F8
F80000F8
F80001F8
FC0001F8
FC0001F8
FC0001F8
7C0001F0
7E0003F0
7E0003F0
3F0007E0
3F800FE0
1FE03FC0
0FFFFF80
07FFFF00
01FFFC00
007FF000
00020000
ENDCHAR
STARTCHAR 00F6
ENCODING 246
SWIDTH 550 0
DWIDTH 33 0
BBX 29 44 2 -1
BITMAP
01F03E00
01F03E00
01F03E00
01F03E00
01F03E00
01F03E00
00000000
00000000
00000000
00000000
00000000
00020000
007FF000
01FFFC00
07FFFF00
0FFFFF80
1FE03FC0
3F800FC0
3F0007E0
7E0003F0
7E0003F0
7C0001F0
FC0001F8
FC0001F8
FC0001F8
FC0001F8
F80000F8
F80000F8
F80000F8
F80001F8
FC0001F8
FC0001F8
FC0001F8
7C0001F0
7E0003F0
7E0003F0
3F0007E0
3F800FE0
1FE03FC0
0FFFFF80
07FFFF00
01FFFC00
007FF000
00020000
ENDCHAR
STARTCHAR 00F7
ENCODING 247
SWIDTH 533 0
DWIDTH 32 0
BBX 28 24 2 9
BITMAP
000F8000
000F8000
000F8000
000F8000
000F8000
000F8000
00000000
00000000
00000000
00000000
FFFFFFF0
FFFFFFF0
FFFFFFF0
FFFFFFF0
00000000
00000000
00000000
00000000
000F8000
000F8000
000F8000
000F8000
000F8000
000F8000
ENDCHAR
STARTCHAR 00F8
ENCODING 248
SWIDTH 616 0
DWIDTH 37 0
BBX 29 34 4 -2
BITMAP
00000070
007FF0F8
01FFFDF0
07FFFFE0
0FFFFFC0
1FE03FC0
3F800FC0
3F000FE0
7E001FE0
7E003FF0
7C007DF0
FC00F9F0
FC00F1F8
FC01E1F8
FC03C1F8
F807C0F8
F80780F8
F80F00F8
FC1E01F8
FC3E01F8
FC7C01F8
FC7801F8
7CF001F0
7FE003F0
7FE007F0
3FC007E0
1F800FE0
1FE03FC0
1FFFFF80
3FFFFF00
3DFFFC00
787FF000
78000000
30000000
ENDCHAR
STARTCHAR 00F9
ENCODING 249
SWIDTH 566 0
DWIDTH 34 0
BBX 25 43 4 -1
BITMAP
01FC0000
00FC0000
007E0000
003E0000
003F0000
001F0000
000F8000
00078000
00000000
00000000
00000000
00000000
F8000F80
F8000F80
F8000F80
F8000F80
F8000F80
F8000F80
F8000F80
F8000F80
F8000F80
F8000F80
F8000F80
F8000F80
F8000F80
F8000F80
F8000F80
F8000F80
F8000F80
F8000F80
F8000F80
F8000F80
F8000F80
FC001F80
FC001F80
FC001F80
FC003F80
7E007F80
7F81F780
3FFFF780
3FFFE780
0FFF8780
03FF0780
ENDCHAR
STARTCHAR 00FA
ENCODING 250
SWIDTH 566 0
DWIDTH 34 0
BBX 25 43 4 -1
BITMAP
0007F000
0007E000
000FC000
000F8000
001F8000
001F0000
003E0000
003C0000
00000000
00000000
00000000
00000000
F8000F80
F8000F80
F8000F80
F8000F80
F8000F80
F8000F80
F8000F80
F8000F80
F8000F80
F8000F80
F8000F80
F8000F80
F8000F80
F8000F80
F8000F80
F8000F80
F8000F80
F8000F80
F8000F80
F8000F80
F8000F80
FC001F80
FC001F80
FC001F80
FC003F80
7E007F80
7F81F780
3FFFF780
3FFFE780
0FFF8780
03FF0780
ENDCHAR
STARTCHAR 00FB
ENCODING 251
SWIDTH 566 0
DWIDTH 34 0
BBX 25 43 4 -1
BITMAP
007F0000
007F8000
00FF8000
01FFC000
03F3E000
07E3F000
07E1F800
0FC0F800
00000000
00000000
00000000
00000000
F8000F80
F8000F80
F8000F80
F8000F80
F8000F80
F8000F80
F8000F80
F8000F80
F8000F80
F8000F80
F8000F80
F8000F80
F8000F80
F8000F80
F8000F80
F8000F80
F8000F80
F8000F80
F8000F80
F8000F80
F8000F80
FC001F80
FC001F80
FC001F80
FC003F80
7E007F80
7F81F780
3FFFF780
3FFFE780
0FFF8780
03FF0780
ENDCHAR
STARTCHAR 00FC
ENCODING 252
SWIDTH 566 0
DWIDTH 34 0
BBX 25 43 4 -1
BITMAP
07C0F800
07C0F800
07C0F800
07C0F800
07C0F800
07C0F800
00000000
00000000
00000000
00000000
00000000
00000000
F8000F80
F8000F80
F8000F80
F8000F80
F8000F80
F8000F80
F8000F80
F8000F80
F8000F80
F8000F80
F8000F80
F8000F80
F8000F80
F8000F80
F8000F80
F8000F80
F8000F80
F8000F80
F8000F80
F8000F80
F8000F80
FC001F80
FC001F80
FC001F80
FC003F80
7E007F80
7F81F780
3FFFF780
3FFFE780
0FFF8780
03FF0780
ENDCHAR
STARTCHAR 00FD
ENCODING 253
SWIDTH 500 0
DWIDTH 30 0
BBX 28 55 1 -13
BITMAP
0001FC00
0003F800
0003F000
0007E000
0007C000
0007C000
000F8000
000F0000
00000000
00000000
00000000
00000000
FC0001F0
7C0001F0
7E0003F0
7E0003E0
3E0003E0
3F0007C0
3F0007C0
1F000FC0
1F800F80
0F800F80
0F801F80
0FC01F00
07C01F00
07E03E00
07E03E00
03E07E00
03F07C00
01F07C00
01F0FC00
01F8F800
00F8F800
00F9F000
007DF000
007DF000
007DE000
003FE000
003FE000
003FC000
001FC000
001F8000
000F8000
000F8000
001F0000
001F0000
003E0000
003E0000
003E0000
007C0000
3FFC0000
3FF80000
3FF00000
1FE00000
1FC00000
ENDCHAR
STARTCHAR 00FE
ENCODING 254
SWIDTH 550 0
DWIDTH 33 0
BBX 27 55 4 -12
BITMAP
FC000000
FC000000
FC000000
FC000000
FC000000
FC000000
FC000000
FC000000
FC000000
FC000000
FC000000
FC000000
FC7FE000
FCFFF800
FDFFFC00
FFFFFE00
FFE0FF00
FF803F80
FF001F80
FE000FC0
FC000FC0
FC0007C0
FC0007C0
F80007E0
F80007E0
F80007E0
F80003E0
F80003E0
F80003E0
F80007E0
F80007E0
F80007E0
F80007C0
FC0007C0
FC000FC0
FE000F80
FF001F80
FF803F00
FFC0FF00
FFFFFE00
FFFFFC00
FCFFF000
FC7FC000
FC000000
FC000000
FC000000
FC000000
FC000000
FC000000
FC000000
FC000000
FC000000
FC000000
FC000000
FC000000
ENDCHAR
STARTCHAR 00FF
ENCODING 255
SWIDTH 500 0
DWIDTH 30 0
BBX 28 55 1 -13
BITMAP
03E07C00
03E07C00
03E07C00
03E07C00
03E07C00
03E07C00
00000000
00000000
00000000
00000000
00000000
00000000
FC0001F0
FC0003F0
7C0003E0
7E0003E0
3E0007E0
3F0007C0
3F0007C0
1F000FC0
1F800F80
1F800F80
0F801F00
0FC01F00
07C03F00
07C03E00
07E03E00
03E07E00
03E07C00
03F07C00
01F0F800
01F8F800
00F8F800
00F9F000
00F9F000
007DF000
007FE000
003FE000
003FC000
003FC000
001FC000
001F8000
001F8000
001F8000
001F0000
001F0000
003E0000
003E0000
007E0000
00FC0000
3FFC0000
3FF80000
3FF00000
3FE00000
1FC00000
ENDCHAR
STARTCHAR 0100
ENCODING 256
SWIDTH 666 0
DWIDTH 40 0
BBX 39 51 1 0
BITMAP
003FFFF000
003FFFF000
003FFFF000
003FFFF000
0000000000
0000000000
0000000000
0000000000
0000FC0000
0001FC0000
0001FE0000
0003FE0000
0003FF0000
0003DF0000
0007DF0000
0007CF8000
0007CF8000
000F8FC000
000F87C000
001F87E000
001F87E000
001F03E000
003F03F000
003E03F000
007E01F800
007E01F800
007C01F800
00FC00FC00
00FC00FC00
00F8007E00
01F8007E00
01F8007E00
03F0003F00
03F0003F00
03FFFFFF80
07FFFFFF80
07FFFFFF80
07FFFFFFC0
0FC0000FC0
0FC0000FE0
1F800007E0
1F800007E0
1F800003F0
3F000003F0
3F000003F8
7E000001F8
7E000001F8
7E000001FC
FC000000FC
FC000000FE
FC0000007E
ENDCHAR
STARTCHAR 0101
ENCODING 257
SWIDTH 550 0
DWIDTH 33 0
BBX 28 41 2 -1
BITMAP
03FFFF00
03FFFF00
03FFFF00
03FFFF00
00000000
00000000
00000000
00000000
00000000
00000000
00FFFC00
03FFFF00
0FFFFF80
1FFFFFC0
1FC03FC0
3F000FC0
3F0007E0
7E0007E0
7E0007E0
040003E0
000003E0
000007E0
00007FE0
003FFFE0
03FFFFE0
0FFFFBE0
1FFF83E0
3FE003E0
7F0003E0
7E0007E0
FC0007E0
FC0007E0
F80007E0
FC000FE0
FC001FE0
FE003FE0
7F00FFE0
7FFFFBE0
3FFFF3F0
1FFFC3F0
07FF01F0
ENDCHAR
STARTCHAR 0102
ENCODING 258
SWIDTH 666 0
DWIDTH 40 0
BBX 40 54 0 0
BITMAP
001E007800
001E007000
000F00F000
000F81F000
0007FFE000
0007FFC000
0003FF8000
0000FE0000
0000000000
0000000000
0000000000
0000FE0000
0000FE0000
0001FF0000
0001FF0000
0001FF0000
0003EF8000
0003EF8000
0003EFC000
0007C7C000
0007C7C000
000FC7E000
000F83E000
000F83F000
001F83F000
001F01F000
003F01F800
003F01F800
003E00FC00
007E00FC00
007E007E00
007C007E00
00FC007E00
00F8003F00
01F8003F00
01F8003F80
01F0001F80
03FFFFFF80
03FFFFFFC0
07FFFFFFC0
07FFFFFFE0
07E00007E0
0FC00007E0
0FC00003F0
0F800003F0
1F800003F8
1F800001F8
3F000001F8
3F000000FC
3F000000FC
7E000000FE
7E0000007E
FE0000007E
FC0000007F
ENDCHAR
STARTCHAR 0103
ENCODING 259
SWIDTH 550 0
DWIDTH 33 0
BBX 28 43 2 -1
BITMAP
03C00F00
03E01E00
01F03E00
01FFFC00
00FFFC00
007FF800
001FC000
00000000
00000000
00000000
00000000
00000000
00FFFC00
03FFFF00
0FFFFF80
1FFFFFC0
1FC03FC0
3F000FC0
3E0007E0
7E0007E0
7C0007E0
040003E0
000003E0
000007E0
00007FE0
003FFFE0
03FFFFE0
0FFFFBE0
1FFF83E0
3FE003E0
7F0003E0
7E0007E0
FC0007E0
FC0007E0
F80007E0
FC000FE0
FC001FE0
FE003FE0
7F00FFE0
7FFFFBE0
3FFFF3F0
1FFFC1F0
07FF01F0
ENDCHAR
STARTCHAR 0104
ENCODING 260
SWIDTH 683 0
DWIDTH 41 0
BBX 45 55 1 -12
BITMAP
0000FC000000
0001FE000000
0001FE000000
0001FE000000
0003FF000000
0003FF000000
0007DF800000
0007CF800000
0007CFC00000
000FCFC00000
000F87C00000
001F87E00000
001F83E00000
001F03F00000
003F03F00000
003E01F00000
003E01F80000
007E01F80000
007C00FC0000
00FC00FC0000
00FC007E0000
00F8007E0000
01F8007E0000
01F0003F0000
03F0003F0000
03FFFFFF8000
03FFFFFF8000
07FFFFFF8000
07FFFFFFC000
07C0000FC000
0FC00007E000
0F800007E000
1F800007E000
1F800003F000
1F000003F000
3F000003F800
3F000001F800
7E000001FC00
7E000000FC00
7E000000FC00
FC000000FE00
FC0000007E00
FC0000007F00
000000007800
000000007000
00000000F000
00000000F000
00000000F000
00000000F000
00000000F800
00000000FE78
000000007FF8
000000007FF8
000000003FF0
000000000F80
ENDCHAR
STARTCHAR 0105
ENCODING 261
SWIDTH 550 0
DWIDTH 33 0
BBX 35 43 2 -11
BITMAP
00FFFC0000
03FFFF0000
0FFFFF8000
1FFFFFC000
1FC03FC000
3F000FC000
3E0007E000
7E0007E000
7C0007E000
040003E000
000003E000
000007E000
00007FE000
003FFFE000
03FFFFE000
0FFFFBE000
1FFF83E000
3FE003E000
7F0003E000
7E0007E000
FC0007E000
FC0007E000
F80007E000
FC000FE000
FC001FE000
FE003FE000
7F00FFE000
7FFFFBE000
3FFFF3F000
1FFFC3F000
07FF01F000
000001C000
000001C000
000003C000
000003C000
000003C000
000003C000
000003E000
000003F9E0
000001FFE0
000001FFE0
000000FFC0
0000003E00
ENDCHAR
STARTCHAR 0106
ENCODING 262
SWIDTH 716 0
DWIDTH 43 0
BBX 38 55 3 -1
BITMAP
00000FE000
00001FC000
00001F8000
00001F8000
00003F0000
00003E0000
00007C0000
00007C0000
0000F80000
0000000000
0000000000
0000000000
0007FFC000
001FFFF800
007FFFFC00
00FFFFFF00
03FE00FF80
07F8003FC0
0FE0001FC0
0FC0000FE0
1F800007F0
1F000003F0
3F000003F0
3E000001F8
7E00000180
7E00000000
7C00000000
7C00000000
FC00000000
FC00000000
FC00000000
F800000000
F800000000
F800000000
F800000000
F800000000
FC00000000
FC00000000
FC00000000
7C00000000
7C000000C0
7E000001FC
7E000001F8
3E000001F8
3F000003F8
1F000003F0
1F800007F0
0FC0000FE0
0FE0001FC0
07F8003FC0
03FE00FF80
01FFFFFF00
00FFFFFC00
003FFFF800
0007FFC000
ENDCHAR
STARTCHAR 0107
ENCODING 263
SWIDTH 500 0
DWIDTH 30 0
BBX 27 43 2 -1
BITMAP
0003F800
0007F000
0007E000
000FC000
000F8000
001F8000
001F0000
003E0000
00000000
00000000
00000000
00000000
007FF000
03FFFC00
07FFFE00
0FFFFF00
1FE07F80
3F801F80
3F000FC0
7E0007C0
7E0007C0
7C000780
FC000000
FC000000
FC000000
F8000000
F8000000
F8000000
F8000000
F8000000
FC000000
FC000000
FC0003E0
7C0007E0
7E0007E0
7E0007C0
3F000FC0
3F801F80
1FE07F80
0FFFFF00
07FFFE00
03FFF800
00FFF000
ENDCHAR
STARTCHAR 0108
ENCODING 264
SWIDTH 716 0
DWIDTH 43 0
BBX 38 54 3 -1
BITMAP
0000FC0000
0001FE0000
0003FF0000
0003EF8000
0007CFC000
000FC7C000
001F83E000
003F03F000
0000000000
0000000000
0000000000
0007FFC000
001FFFF800
007FFFFC00
00FFFFFF00
03FE00FF80
07F8003FC0
0FE0001FC0
0FC0000FE0
1F800007F0
1F000003F0
3F000003F0
3E000001F8
7E00000180
7E00000000
7C00000000
7C00000000
FC00000000
FC00000000
FC00000000
F800000000
F800000000
F800000000
F800000000
F800000000
FC00000000
FC00000000
FC00000000
7C00000000
7C000000C0
7E000001FC
7E000001F8
3E000001F8
3F000003F8
1F000003F0
1F800007F0
0FC0000FE0
0FE0001FC0
07F8003FC0
03FE00FF80
01FFFFFF00
00FFFFFC00
003FFFF800
0007FFC000
ENDCHAR
STARTCHAR 0109
ENCODING 265
SWIDTH 500 0
DWIDTH 30 0
BBX 27 43 2 -1
BITMAP
000FC000
001FE000
003FF000
007FF000
007CF800
00FC7C00
01F87E00
03F03F00
00000000
00000000
00000000
00000000
007FF000
03FFFC00
07FFFE00
0FFFFF00
1FE07F80
3F801F80
3F000FC0
7E0007C0
7E0007C0
7C000780
FC000000
FC000000
FC000000
F8000000
F8000000
F8000000
F8000000
F8000000
FC000000
FC000000
FC0003E0
7C0007E0
7E0007E0
7E0007C0
3F000FC0
3F801F80
1FE07F80
0FFFFF00
07FFFE00
03FFF800
00FFF000
ENDCHAR
STARTCHAR 010A
ENCODING 266
SWIDTH 716 0
DWIDTH 43 0
BBX 38 54 3 -1
BITMAP
0000FE0000
0000FE0000
0000FE0000
0000FE0000
0000FE0000
0000FE0000
0000FE0000
0000000000
0000000000
0000000000
0000000000
0003FFE000
001FFFF800
007FFFFE00
00FFFFFF00
03FE00FF80
07F8003FC0
07E0000FE0
0FC00007F0
1F800003F0
1F000003F8
3F000001F8
3E000001F8
7E000000C0
7E00000000
7C00000000
7C00000000
FC00000000
FC00000000
FC00000000
F800000000
F800000000
F800000000
F800000000
F800000000
FC00000000
FC00000000
FC00000000
7C00000000
7C000000C0
7E000000FC
7E000000FC
3E000001F8
3F000001F8
1F000003F8
1F800003F0
0FC00007F0
0FE0000FE0
07F8003FC0
03FE00FF80
01FFFFFF00
007FFFFE00
003FFFF800
0007FFE000
ENDCHAR
STARTCHAR 010B
ENCODING 267
SWIDTH 500 0
DWIDTH 30 0
BBX 27 42 2 -1
BITMAP
001FC000
001FC000
001FC000
001FC000
001FC000
001FC000
001FC000
00000000
00000000
00000000
00000000
007FF000
01FFFC00
07FFFE00
0FFFFF00
1FE07F80
3F801F80
3F000FC0
7E0007C0
7E0007C0
7C000780
FC000000
FC000000
FC000000
FC000000
F8000000
F8000000
F8000000
F8000000
FC000000
FC000000
FC0003E0
7C0003E0
7E0007E0
7E0007C0
3F000FC0
3F801F80
1FE07F80
0FFFFF00
07FFFE00
03FFF800
00FFF000
ENDCHAR
STARTCHAR 010C
ENCODING 268
SWIDTH 716 0
DWIDTH 43 0
BBX 38 54 3 -1
BITMAP
001F81F800
000F83F000
000FC7E000
0007E7C000
0003FF8000
0001FF0000
0000FF0000
0000FE0000
0000000000
0000000000
0000000000
0007FFC000
001FFFF800
007FFFFC00
00FFFFFF00
03FE00FF80
07F8003FC0
0FE0001FC0
0FC0000FE0
1F800007F0
1F000003F0
3F000003F0
3E000001F8
7E00000180
7E00000000
7C00000000
7C00000000
FC00000000
FC00000000
FC00000000
F800000000
F800000000
F800000000
F800000000
F800000000
FC00000000
FC00000000
FC00000000
7C00000000
7C000000C0
7E000001FC
7E000001F8
3E000001F8
3F000003F8
1F000003F0
1F800007F0
0FC0000FE0
0FE0001FC0
07F8003FC0
03FE00FF80
01FFFFFF00
00FFFFFC00
003FFFF800
0007FFC000
ENDCHAR
STARTCHAR 010D
ENCODING 269
SWIDTH 500 0
DWIDTH 30 0
BBX 27 43 2 -1
BITMAP
07E07E00
03F0FC00
01F0F800
01F9F800
00FFF000
007FE000
003FC000
003F8000
00000000
00000000
00000000
00000000
007FF000
03FFFC00
07FFFE00
0FFFFF00
1FE07F80
3F801F80
3F000FC0
7E0007C0
7E0007C0
7C000780
FC000000
FC000000
FC000000
F8000000
F8000000
F8000000
F8000000
F8000000
FC000000
FC000000
FC0003E0
7C0007E0
7E0007E0
7E0007C0
3F000FC0
3F801F80
1FE07F80
0FFFFF00
07FFFE00
03FFF800
00FFF000
ENDCHAR
STARTCHAR 010E
ENCODING 270
SWIDTH 733 0
DWIDTH 44 0
BBX 35 54 5 0
BITMAP
0FC0FC0000
07C1F80000
07E1F00000
03F3F00000
01F7E00000
00FFC00000
00FF800000
007F000000
003F000000
0000000000
0000000000
FFFFFC0000
FFFFFF8000
FFFFFFE000
FFFFFFF000
FFFFFFFC00
F80007FC00
F80001FE00
F800007F00
F800003F80
F800001F80
F800000F80
F800000FC0
F8000007C0
F8000007C0
F8000007E0
F8000007E0
F8000003E0
F8000003E0
F8000003E0
F8000003E0
F8000003E0
F8000003E0
F8000003E0
F8000003E0
F8000003E0
F8000003E0
F8000003E0
F8000007E0
F8000007E0
F8000007C0
F800000FC0
F800000FC0
F800001F80
F800001F80
F800003F00
F800007F00
F80001FE00
F80007FC00
FFFFFFF800
FFFFFFF000
FFFFFFE000
FFFFFF8000
FFFFF80000
ENDCHAR
STARTCHAR 010F
ENCODING 271
SWIDTH 616 0
DWIDTH 37 0
BBX 35 43 2 -1
BITMAP
000003E3E0
000003E3E0
000003E3E0
000003E3E0
000003E3E0
000003E0E0
000003E0E0
000003E0E0
000003E0E0
000003E1C0
000003E1C0
000003E780
00FFC3E300
03FFE3E000
07FFFBE000
0FFFFBE000
1FE07FE000
3F803FE000
3F001FE000
7E000FE000
7E0007E000
7C0007E000
7C0007E000
FC0003E000
FC0003E000
F80003E000
F80003E000
F80003E000
F80003E000
F80003E000
FC0003E000
FC0003E000
7C0007E000
7C0007E000
7E0007E000
3E000FE000
3F001FE000
1F803FE000
1FE07FE000
0FFFFFE000
07FFFBE000
01FFF3E000
00FFC3E000
ENDCHAR
STARTCHAR 0110
ENCODING 272
SWIDTH 716 0
DWIDTH 43 0
BBX 40 43 0 0
BITMAP
07FFFFC000
07FFFFFC00
07FFFFFF00
07FFFFFF80
07FFFFFFC0
07C0007FE0
07C0000FF0
07C00003F8
07C00001F8
07C00001FC
07C00000FC
07C000007C
07C000007E
07C000003E
07C000003E
07C000003F
07C000003F
07C000003F
07C000003F
FFFFFC001F
FFFFFC001F
FFFFFC001F
FFFFFC001F
07C000003F
07C000003F
07C000003F
07C000003F
07C000003E
07C000003E
07C000007E
07C000007E
07C000007C
07C00000FC
07C00001FC
07C00001F8
07C00003F0
07C0000FF0
07C0007FE0
07FFFFFFC0
07FFFFFF80
07FFFFFE00
07FFFFF800
07FFFFC000
ENDCHAR
STARTCHAR 0111
ENCODING 273
SWIDTH 566 0
DWIDTH 34 0
BBX 31 43 2 -1
BITMAP
000003E0
000003E0
000003E0
001FFFFE
001FFFFE
001FFFFE
001FFFFE
000003E0
000003E0
000003E0
000003E0
000003E0
00FFC3E0
03FFE3E0
07FFF3E0
0FFFFBE0
1FC0FFE0
3F803FE0
3F001FE0
7E000FE0
7E000FE0
7C0007E0
7C0007E0
FC0007E0
FC0007E0
F80007E0
F80003E0
F80003E0
F80003E0
F80003E0
FC0007E0
FC0007E0
7C0007E0
7C0007E0
7E000FE0
7E000FE0
3F001FE0
1F803FE0
1FE07FE0
0FFFFBE0
07FFF3E0
03FFE3E0
00FFC3E0
ENDCHAR
STARTCHAR 0112
ENCODING 274
SWIDTH 666 0
DWIDTH 40 0
BBX 32 51 5 1
BITMAP
00FFFFC0
00FFFFC0
00FFFFC0
00FFFFC0
00000000
00000000
00000000
00000000
FFFFFFFE
FFFFFFFE
FFFFFFFE
FFFFFFFE
FFFFFFFE
F8000000
F8000000
F8000000
F8000000
F8000000
F8000000
F8000000
F8000000
F8000000
F8000000
F8000000
F8000000
F8000000
FFFFFFFC
FFFFFFFC
FFFFFFFC
FFFFFFFC
FFFFFFFC
F8000000
F8000000
F8000000
F8000000
F8000000
F8000000
F8000000
F8000000
F8000000
F8000000
F8000000
F8000000
F8000000
F8000000
F8000000
FFFFFFFF
FFFFFFFF
FFFFFFFF
FFFFFFFF
FFFFFFFF
ENDCHAR
STARTCHAR 0113
ENCODING 275
SWIDTH 550 0
DWIDTH 33 0
BBX 29 41 2 -1
BITMAP
07FFFE00
07FFFE00
07FFFE00
07FFFE00
00000000
00000000
00000000
00000000
00000000
00000000
007FF000
01FFFC00
07FFFE00
0FFFFF00
1FE03F80
1F801FC0
3F0007E0
3E0007E0
7C0003F0
7C0003F0
7C0003F0
FC0001F0
FFFFFFF0
FFFFFFF0
FFFFFFF0
FFFFFFF8
F8000000
F8000000
FC000000
FC000000
FC000000
7C0003F0
7E0003F0
7E0007F0
3F000FE0
3F801FE0
1FE03FC0
0FFFFF80
07FFFF00
01FFFE00
007FF800
ENDCHAR
STARTCHAR 0114
ENCODING 276
SWIDTH 666 0
DWIDTH 40 0
BBX 32 54 5 0
BITMAP
01E00700
01E00F00
00F00F00
00F83F00
00FFFE00
007FFC00
003FF800
000FE000
00000000
00000000
00000000
FFFFFFFE
FFFFFFFE
FFFFFFFE
FFFFFFFE
FFFFFFFE
F8000000
F8000000
F8000000
F8000000
F8000000
F8000000
F8000000
F8000000
F8000000
F8000000
F8000000
F8000000
F8000000
FFFFFFFC
FFFFFFFC
FFFFFFFC
FFFFFFFC
FFFFFFFC
F8000000
F8000000
F8000000
F8000000
F8000000
F8000000
F8000000
F8000000
F8000000
F8000000
F8000000
F8000000
F8000000
F8000000
F8000000
FFFFFFFF
FFFFFFFF
FFFFFFFF
FFFFFFFF
FFFFFFFF
ENDCHAR
STARTCHAR 0115
ENCODING 277
SWIDTH 550 0
DWIDTH 33 0
BBX 29 43 2 -1
BITMAP
03C00E00
03C01E00
01F03E00
01FFFC00
00FFFC00
007FF000
001FC000
00000000
00000000
00000000
00000000
00000000
007FF000
01FFFC00
07FFFE00
0FFFFF00
1FE03F80
1F800FC0
3F0007E0
3E0003E0
7C0003F0
7C0003F0
7C0001F0
FC0001F0
FFFFFFF0
FFFFFFF0
FFFFFFF0
FFFFFFF8
F8000000
F8000000
FC000000
FC000000
FC000000
7C0001F0
7E0003F0
7E0003F0
3F0007E0
3F800FE0
1FE03FC0
0FFFFF80
07FFFF00
01FFFE00
007FF800
ENDCHAR
STARTCHAR 0116
ENCODING 278
SWIDTH 666 0
DWIDTH 40 0
BBX 32 53 5 0
BITMAP
0007F000
0007F000
0007F000
0007F000
0007F000
0007F000
0007F000
00000000
00000000
00000000
FFFFFFFE
FFFFFFFE
FFFFFFFE
FFFFFFFE
FFFFFFFE
F8000000
F8000000
F8000000
F8000000
F8000000
F8000000
F8000000
F8000000
F8000000
F8000000
F8000000
F8000000
F8000000
FFFFFFFC
FFFFFFFC
FFFFFFFC
FFFFFFFC
FFFFFFFC
F8000000
F8000000
F8000000
F8000000
F8000000
F8000000
F8000000
F8000000
F8000000
F8000000
F8000000
F8000000
F8000000
F8000000
F8000000
FFFFFFFF
FFFFFFFF
FFFFFFFF
FFFFFFFF
FFFFFFFF
ENDCHAR
STARTCHAR 0117
ENCODING 279
SWIDTH 550 0
DWIDTH 33 0
BBX 29 42 2 -1
BITMAP
000FE000
000FE000
000FE000
000FE000
000FE000
000FE000
000FE000
00000000
00000000
00000000
00000000
007FF000
01FFFC00
07FFFE00
0FFFFF00
1FE03F80
1F800FC0
3F0007E0
3E0003E0
7C0001F0
7C0001F0
7C0001F0
FC0001F0
FFFFFFF0
FFFFFFF0
FFFFFFF0
FFFFFFF8
F8000000
F8000000
FC000000
FC000000
FC000000
7C0001F0
7E0003F0
7E0003F0
3F0007E0
3F800FE0
1FE03FC0
0FFFFF80
07FFFF00
01FFFE00
007FF800
ENDCHAR
STARTCHAR 0118
ENCODING 280
SWIDTH 666 0
DWIDTH 40 0
BBX 32 55 5 -13
BITMAP
FFFFFFFE
FFFFFFFE
FFFFFFFE
FFFFFFFE
FFFFFFFE
F8000000
F8000000
F8000000
F8000000
F8000000
F8000000
F8000000
F8000000
F8000000
F8000000
F8000000
F8000000
F8000000
FFFFFFFC
FFFFFFFC
FFFFFFFC
FFFFFFFC
FFFFFFFC
F8000000
F8000000
F8000000
F8000000
F8000000
F8000000
F8000000
F8000000
F8000000
F8000000
F8000000
F8000000
F8000000
F8000000
F8000000
FFFFFFFF
FFFFFFFF
FFFFFFFF
FFFFFFFF
FFFFFFFF
00000F00
00000E00
00001E00
00001E00
00001E00
00001E00
00001F00
00001F83
00001FFF
00000FFF
000007FF
000003FC
ENDCHAR
STARTCHAR 0119
ENCODING 281
SWIDTH 550 0
DWIDTH 33 0
BBX 29 43 2 -12
BITMAP
007FF000
01FFFC00
07FFFE00
0FFFFF00
1FE03F80
1F800FC0
3F0007E0
3E0003E0
7C0003F0
7C0001F0
7C0001F0
FC0001F0
FFFFFFF0
FFFFFFF0
FFFFFFF0
FFFFFFF8
F8000000
F8000000
FC000000
FC000000
FC000000
7C0001F0
7E0003F0
7E0003F0
3F0007E0
3F800FE0
1FE03FC0
0FFFFF80
07FFFF00
01FFFE00
007FF800
00078000
00070000
000F0000
000F0000
000F0000
000F0000
000F8000
000FC0C0
000FFFC0
0007FFC0
0003FFC0
0001FE00
ENDCHAR
STARTCHAR 011A
ENCODING 282
SWIDTH 666 0
DWIDTH 40 0
BBX 32 54 5 0
BITMAP
03F03F00
03F07E00
01F8FC00
00FCF800
007DF000
007FF000
003FE000
001FC000
000F8000
00000000
00000000
FFFFFFFE
FFFFFFFE
FFFFFFFE
FFFFFFFE
FFFFFFFE
F8000000
F8000000
F8000000
F8000000
F8000000
F8000000
F8000000
F8000000
F8000000
F8000000
F8000000
F8000000
F8000000
FFFFFFFC
FFFFFFFC
FFFFFFFC
FFFFFFFC
FFFFFFFC
F8000000
F8000000
F8000000
F8000000
F8000000
F8000000
F8000000
F8000000
F8000000
F8000000
F8000000
F8000000
F8000000
F8000000
F8000000
FFFFFFFF
FFFFFFFF
FFFFFFFF
FFFFFFFF
FFFFFFFF
ENDCHAR
STARTCHAR 011B
ENCODING 283
SWIDTH 550 0
DWIDTH 33 0
BBX 29 43 2 -1
BITMAP
03F03F00
01F07E00
01F8FC00
00FCF800
007DF000
003FF000
003FE000
001FC000
00000000
00000000
00000000
00000000
007FF000
01FFFC00
07FFFE00
0FFFFF00
1FE03F80
1F800FC0
3F0007E0
3E0003E0
7C0003F0
7C0003F0
7C0001F0
FC0001F0
FFFFFFF0
FFFFFFF0
FFFFFFF0
FFFFFFF8
F8000000
F8000000
FC000000
FC000000
FC000000
7C0001F0
7E0003F0
7E0003F0
3F0007E0
3F800FE0
1FE03FC0
0FFFFF80
07FFFF00
01FFFE00
007FF800
ENDCHAR
STARTCHAR 011C
ENCODING 284
SWIDTH 766 0
DWIDTH 46 0
BBX 39 54 3 -1
BITMAP
00001F8000
00003FC000
00007FE000
0000FFF000
0001F9F000
0001F0F800
0003F0FC00
0007E07E00
0000000000
0000000000
0000000000
0003FFF000
001FFFFE00
007FFFFF80
00FFFFFFC0
01FF003FE0
03FC000FF0
07F00003F8
0FE00001F8
1FC00000FC
1F800000FC
3F0000007C
3F0000007E
3E00000038
7E00000000
7C00000000
7C00000000
FC00000000
FC00000000
FC00000000
F800000000
F800000000
F80007FFFE
F80007FFFE
FC0007FFFE
FC0007FFFE
FC0007FFFE
FC0000003E
7C0000003E
7C0000003E
7E0000003E
7E0000003E
3F0000003E
3F0000003E
1F8000003E
1FC000007E
0FE00000FE
07F80003FE
03FE001FFE
01FFFFFFF8
00FFFFFFF0
003FFFFFC0
000FFFFF00
0003FFF800
ENDCHAR
STARTCHAR 011D
ENCODING 285
SWIDTH 550 0
DWIDTH 33 0
BBX 27 55 2 -13
BITMAP
003F8000
003F8000
007FC000
00FFE000
01FBF000
01F1F000
03F0F800
07E0FC00
00000000
00000000
00000000
00000000
00FFC3E0
03FFE3E0
07FFFBE0
0FFFFFE0
1FE07FE0
3F803FE0
3F001FE0
7E000FE0
7E0007E0
7C0007E0
7C0007E0
FC0003E0
FC0003E0
F80003E0
F80003E0
F80003E0
F80003E0
FC0003E0
FC0003E0
FC0003E0
7C0007E0
7C0007E0
7E0007E0
3E000FE0
3F001FE0
1FC03FE0
1FF1FFE0
0FFFFFE0
07FFF7E0
01FFE7E0
007F07E0
000007E0
000007E0
000007E0
7C0007C0
7C000FC0
7E000FC0
3E001F80
3F807F80
1FFFFF00
0FFFFE00
07FFF800
01FFE000
ENDCHAR
STARTCHAR 011E
ENCODING 286
SWIDTH 766 0
DWIDTH 46 0
BBX 39 54 3 -1
BITMAP
0007801E00
0007801E00
0003C03C00
0003E07C00
0003FFF800
0001FFF800
0000FFE000
00003F8000
0000000000
0000000000
0000000000
0003FFF000
001FFFFE00
007FFFFF80
00FFFFFFC0
01FF003FE0
03FC000FF0
07F00003F8
0FE00001F8
1FC00000FC
1F800000FC
3F0000007C
3F0000007E
3E00000038
7E00000000
7C00000000
7C00000000
FC00000000
FC00000000
FC00000000
F800000000
F800000000
F80007FFFE
F80007FFFE
FC0007FFFE
FC0007FFFE
FC0007FFFE
FC0000003E
7C0000003E
7C0000003E
7E0000003E
7E0000003E
3F0000003E
3F0000003E
1F8000003E
1FC000007E
0FE00000FE
07F80003FE
03FE001FFE
01FFFFFFF8
00FFFFFFF0
003FFFFFC0
000FFFFF00
0003FFF800
ENDCHAR
STARTCHAR 011F
ENCODING 287
SWIDTH 550 0
DWIDTH 33 0
BBX 27 55 2 -13
BITMAP
03C01E00
03C01E00
01F07C00
01FFFC00
00FFF800
007FF000
001FC000
00000000
00000000
00000000
00000000
00000000
00FFC3E0
03FFE3E0
07FFFBE0
0FFFFFE0
1FE07FE0
3F803FE0
3F001FE0
7E000FE0
7E0007E0
7C0007E0
7C0007E0
FC0003E0
FC0003E0
F80003E0
F80003E0
F80003E0
F80003E0
FC0003E0
FC0003E0
FC0003E0
7C0007E0
7C0007E0
7E0007E0
3E000FE0
3F001FE0
1FC03FE0
1FF1FFE0
0FFFFFE0
07FFF7E0
01FFE7E0
007F07E0
000007E0
000007E0
000007E0
7C0007C0
7C000FC0
7E000FC0
3E001F80
3F807F80
1FFFFF00
0FFFFE00
07FFF800
01FFE000
ENDCHAR
STARTCHAR 0120
ENCODING 288
SWIDTH 766 0
DWIDTH 46 0
BBX 39 53 3 -1
BITMAP
00001FC000
00001FC000
00001FC000
00001FC000
00001FC000
00001FC000
00001FC000
0000000000
0000000000
0000000000
0003FFF000
001FFFFE00
007FFFFF80
00FFFFFFC0
01FF003FE0
03FC000FF0
07F00003F8
0FE00001F8
1FC00000FC
1F800000FC
3F0000007C
3F0000007E
3E00000038
7E00000000
7C00000000
7C00000000
FC00000000
FC00000000
FC00000000
F800000000
F800000000
F80003FFFE
F80003FFFE
FC0003FFFE
FC0003FFFE
FC0003FFFE
FC0000003E
7C0000003E
7C0000003E
7E0000003E
7E0000003E
3F0000003E
3F0000003E
1F8000003E
1FC000007E
0FE00000FE
07F80003FE
03FE001FFE
01FFFFFFF8
00FFFFFFF0
003FFFFFC0
000FFFFF00
0003FFF800
ENDCHAR
STARTCHAR 0121
ENCODING 289
SWIDTH 550 0
DWIDTH 33 0
BBX 27 54 2 -13
BITMAP
001FC000
001FC000
001FC000
001FC000
001FC000
001FC000
001FC000
00000000
00000000
00000000
00000000
00FFC3E0
03FFE3E0
07FFFBE0
0FFFFFE0
1FE07FE0
3F803FE0
3F001FE0
7E000FE0
7E0007E0
7C0007E0
7C0007E0
FC0003E0
FC0003E0
F80003E0
F80003E0
F80003E0
F80003E0
FC0003E0
FC0003E0
FC0003E0
7C0007E0
7C0007E0
7E0007E0
3E000FE0
3F001FE0
1FC03FE0
1FF1FFE0
0FFFFFE0
07FFF7E0
01FFE7E0
007F07E0
000007E0
000007E0
000007E0
7C0007C0
7C000FC0
7E000FC0
3E001F80
3F807F80
1FFFFF00
0FFFFE00
07FFF800
01FFE000
ENDCHAR
STARTCHAR 0122
ENCODING 290
SWIDTH 766 0
DWIDTH 46 0
BBX 39 55 3 -12
BITMAP
0003FFF000
001FFFFE00
007FFFFF80
00FFFFFFC0
01FF003FE0
03FC000FF0
07F00003F8
0FE00001F8
1FC00000FC
1F800000FC
3F0000007C
3F0000007E
3E00000038
7E00000000
7C00000000
7C00000000
FC00000000
FC00000000
FC00000000
F800000000
F800000000
F80007FFFE
F80007FFFE
FC0007FFFE
FC0007FFFE
FC0007FFFE
FC0000003E
7C0000003E
7C0000003E
7E0000003E
7E0000003E
3F0000003E
3F0000003E
1F8000003E
1FC000007E
0FF00000FE
07F80003FE
03FF001FFE
01FFFFFFF8
00FFFFFFF0
003FFFFFC0
000FFFFF00
0003FFF800
00001E0000
00001E0000
00001F8000
00001FE000
000007F000
000001F000
000001F000
000003F000
0001FFF000
0001FFE000
0001FFE000
0001FF8000
ENDCHAR
STARTCHAR 0123
ENCODING 291
SWIDTH 550 0
DWIDTH 33 0
BBX 27 59 2 -13
BITMAP
00010000
00038000
00078000
000F0000
000E0000
001E0000
001C0000
001F8000
001F8000
001F8000
001F8000
001F8000
00000000
00000000
00000000
00000000
00FFC3E0
03FFE3E0
07FFFBE0
0FFFFFE0
1FE07FE0
3F803FE0
3F001FE0
7E000FE0
7E0007E0
7C0007E0
FC0007E0
FC0003E0
FC0003E0
F80003E0
F80003E0
F80003E0
F80003E0
FC0003E0
FC0003E0
FC0003E0
7C0007E0
7C0007E0
7E0007E0
3E000FE0
3F001FE0
1FC03FE0
1FF1FFE0
0FFFFFE0
07FFF7E0
01FFE7E0
007F07E0
000007E0
000007E0
000007C0
7C0007C0
7C000FC0
7E000FC0
3E001F80
3F807F80
1FFFFF00
0FFFFE00
07FFF800
01FFE000
ENDCHAR
STARTCHAR 0124
ENCODING 292
SWIDTH 716 0
DWIDTH 43 0
BBX 33 54 5 0
BITMAP
0003F80000
0007FC0000
0007FC0000
000FFE0000
001F9F0000
003F1F8000
007E0FC000
007E07E000
0000000000
0000000000
0000000000
F800000F80
F800000F80
F800000F80
F800000F80
F800000F80
F800000F80
F800000F80
F800000F80
F800000F80
F800000F80
F800000F80
F800000F80
F800000F80
F800000F80
F800000F80
F800000F80
F800000F80
F800000F80
FFFFFFFF80
FFFFFFFF80
FFFFFFFF80
FFFFFFFF80
FFFFFFFF80
F800000F80
F800000F80
F800000F80
F800000F80
F800000F80
F800000F80
F800000F80
F800000F80
F800000F80
F800000F80
F800000F80
F800000F80
F800000F80
F800000F80
F800000F80
F800000F80
F800000F80
F800000F80
F800000F80
F800000F80
ENDCHAR
STARTCHAR 0125
ENCODING 293
SWIDTH 566 0
DWIDTH 34 0
BBX 25 54 4 0
BITMAP
000FC000
001FE000
003FF000
007FF000
00FCF800
00F8FC00
01F87E00
03F03F00
00000000
00000000
00000000
F8000000
F8000000
F8000000
F8000000
F8000000
F8000000
F8000000
F8000000
F8000000
F8000000
F8000000
F8000000
F83FF000
F8FFFC00
F9FFFE00
FBFFFF00
FFC07F00
FF803F80
FE001F80
FE001F80
FC000F80
FC000F80
FC000F80
FC000F80
F8000F80
F8000F80
F8000F80
F8000F80
F8000F80
F8000F80
F8000F80
F8000F80
F8000F80
F8000F80
F8000F80
F8000F80
F8000F80
F8000F80
F8000F80
F8000F80
F8000F80
F8000F80
F8000F80
ENDCHAR
STARTCHAR 0126
ENCODING 294
SWIDTH 716 0
DWIDTH 43 0
BBX 41 43 1 0
BITMAP
0F800000F800
0F800000F800
0F800000F800
0F800000F800
0F800000F800
0F800000F800
FFFFFFFFFF80
FFFFFFFFFF80
FFFFFFFFFF80
FFFFFFFFFF80
0F800000F800
0F800000F800
0F800000F800
0F800000F800
0F800000F800
0F800000F800
0F800000F800
0F800000F800
0FFFFFFFF800
0FFFFFFFF800
0FFFFFFFF800
0FFFFFFFF800
0FFFFFFFF800
0F800000F800
0F800000F800
0F800000F800
0F800000F800
0F800000F800
0F800000F800
0F800000F800
0F800000F800
0F800000F800
0F800000F800
0F800000F800
0F800000F800
0F800000F800
0F800000F800
0F800000F800
0F800000F800
0F800000F800
0F800000F800
0F800000F800
0F800000F800
ENDCHAR
STARTCHAR 0127
ENCODING 295
SWIDTH 566 0
DWIDTH 34 0
BBX 29 43 1 0
BITMAP
0F800000
0F800000
0F800000
0F800000
FFFFF000
FFFFF000
FFFFF000
FFFFF000
0F800000
0F800000
0F800000
0F800000
0F87FE00
0F9FFF80
0FBFFFE0
0FFFFFE0
0FFC0FF0
0FF003F0
0FE003F0
0FC001F8
0FC001F8
0FC001F8
0F8000F8
0F8000F8
0F8000F8
0F8000F8
0F8000F8
0F8000F8
0F8000F8
0F8000F8
0F8000F8
0F8000F8
0F8000F8
0F8000F8
0F8000F8
0F8000F8
0F8000F8
0F8000F8
0F8000F8
0F8000F8
0F8000F8
0F8000F8
0F8000F8
ENDCHAR
STARTCHAR 0128
ENCODING 296
SWIDTH 283 0
DWIDTH 17 0
BBX 19 53 -2 1
BITMAP
1F81E0
3FF1E0
7FFFE0
FFFFE0
F8FFC0
F03F80
000000
000000
000000
000000
00F800
00F800
00F800
00F800
00F800
00F800
00F800
00F800
00F800
00F800
00F800
00F800
00F800
00F800
00F800
00F800
00F800
00F800
00F800
00F800
00F800
00F800
00F800
00F800
00F800
00F800
00F800
00F800
00F800
00F800
00F800
00F800
00F800
00F800
00F800
00F800
00F800
00F800
00F800
00F800
00F800
00F800
00F800
ENDCHAR
STARTCHAR 0129
ENCODING 297
SWIDTH 283 0
DWIDTH 17 0
BBX 19 43 -1 0
BITMAP
0F00E0
3FE1E0
7FFBE0
7FFFE0
FDFFC0
F07FC0
F01F00
000000
000000
000000
000000
000000
01F000
01F000
01F000
01F000
01F000
01F000
01F000
01F000
01F000
01F000
01F000
01F000
01F000
01F000
01F000
01F000
01F000
01F000
01F000
01F000
01F000
01F000
01F000
01F000
01F000
01F000
01F000
01F000
01F000
01F000
01F000
ENDCHAR
STARTCHAR 012A
ENCODING 298
SWIDTH 266 0
DWIDTH 16 0
BBX 18 50 -1 1
BITMAP
FFFFC0
FFFFC0
FFFFC0
FFFFC0
000000
000000
000000
01F000
01F000
01F000
01F000
01F000
01F000
01F000
01F000
01F000
01F000
01F000
01F000
01F000
01F000
01F000
01F000
01F000
01F000
01F000
01F000
01F000
01F000
01F000
01F000
01F000
01F000
01F000
01F000
01F000
01F000
01F000
01F000
01F000
01F000
01F000
01F000
01F000
01F000
01F000
01F000
01F000
01F000
01F000
ENDCHAR
STARTCHAR 012B
ENCODING 299
SWIDTH 266 0
DWIDTH 16 0
BBX 18 40 -1 1
BITMAP
FFFFC0
FFFFC0
FFFFC0
FFFFC0
000000
000000
000000
000000
000000
01F000
01F000
01F000
01F000
01F000
01F000
01F000
01F000
01F000
01F000
01F000
01F000
01F000
01F000
01F000
01F000
01F000
01F000
01F000
01F000
01F000
01F000
01F000
01F000
01F000
01F000
01F000
01F000
01F000
01F000
01F000
ENDCHAR
STARTCHAR 012C
ENCODING 300
SWIDTH 283 0
DWIDTH 17 0
BBX 17 53 0 0
BITMAP
F00380
700780
780780
7C0F80
3FFF00
1FFE00
0FFC00
03F000
000000
000000
03E000
03E000
03E000
03E000
03E000
03E000
03E000
03E000
03E000
03E000
03E000
03E000
03E000
03E000
03E000
03E000
03E000
03E000
03E000
03E000
03E000
03E000
03E000
03E000
03E000
03E000
03E000
03E000
03E000
03E000
03E000
03E000
03E000
03E000
03E000
03E000
03E000
03E000
03E000
03E000
03E000
03E000
03E000
ENDCHAR
STARTCHAR 012D
ENCODING 301
SWIDTH 283 0
DWIDTH 17 0
BBX 17 43 0 0
BITMAP
F00380
F00780
780780
7C1F80
7FFF00
3FFE00
1FFC00
07F000
000000
000000
000000
000000
03E000
03E000
03E000
03E000
03E000
03E000
03E000
03E000
03E000
03E000
03E000
03E000
03E000
03E000
03E000
03E000
03E000
03E000
03E000
03E000
03E000
03E000
03E000
03E000
03E000
03E000
03E000
03E000
03E000
03E000
03E000
ENDCHAR
STARTCHAR 012E
ENCODING 302
SWIDTH 283 0
DWIDTH 17 0
BBX 13 55 5 -13
BITMAP
7C00
7C00
7C00
7C00
7C00
7C00
7C00
7C00
7C00
7C00
7C00
7C00
7C00
7C00
7C00
7C00
7C00
7C00
7C00
7C00
7C00
7C00
7C00
7C00
7C00
7C00
7C00
7C00
7C00
7C00
7C00
7C00
7C00
7C00
7C00
7C00
7C00
7C00
7C00
7C00
7C00
7C00
7C00
7800
7000
F000
F000
F000
F000
F800
FC18
FFF8
7FF8
3FF8
1FE0
ENDCHAR
STARTCHAR 012F
ENCODING 303
SWIDTH 233 0
DWIDTH 14 0
BBX 13 55 3 -13
BITMAP
7C00
7C00
7C00
7C00
7C00
7C00
0000
0000
0000
0000
0000
0000
7C00
7C00
7C00
7C00
7C00
7C00
7C00
7C00
7C00
7C00
7C00
7C00
7C00
7C00
7C00
7C00
7C00
7C00
7C00
7C00
7C00
7C00
7C00
7C00
7C00
7C00
7C00
7C00
7C00
7C00
7C00
7800
7000
F000
F000
F000
F000
F800
FC18
FFF8
7FF8
3FF8
1FE0
ENDCHAR
STARTCHAR 0130
ENCODING 304
SWIDTH 283 0
DWIDTH 17 0
BBX 7 53 5 0
BITMAP
FE
FE
FE
FE
FE
FE
FE
00
00
00
7C
7C
7C
7C
7C
7C
7C
7C
7C
7C
7C
7C
7C
7C
7C
7C
7C
7C
7C
7C
7C
7C
7C
7C
7C
7C
7C
7C
7C
7C
7C
7C
7C
7C
7C
7C
7C
7C
7C
7C
7C
7C
7C
ENDCHAR
STARTCHAR 0131
ENCODING 305
SWIDTH 283 0
DWIDTH 17 0
BBX 5 31 6 0
BITMAP
F8
F8
F8
F8
F8
F8
F8
F8
F8
F8
F8
F8
F8
F8
F8
F8
F8
F8
F8
F8
F8
F8
F8
F8
F8
F8
F8
F8
F8
F8
F8
ENDCHAR
STARTCHAR 0132
ENCODING 306
SWIDTH 750 0
DWIDTH 45 0
BBX 35 43 6 -1
BITMAP
F8000003E0
F8000003E0
F8000003E0
F8000003E0
F8000003E0
F8000003E0
F8000003E0
F8000003E0
F8000003E0
F8000003E0
F8000003E0
F8000003E0
F8000003E0
F8000003E0
F8000003E0
F8000003E0
F8000003E0
F8000003E0
F8000003E0
F8000003E0
F8000003E0
F8000003E0
F8000003E0
F8000003E0
F8000003E0
F8000003E0
F8000003E0
F8000003E0
F8000003E0
F8000003E0
F8078003E0
F80F8003E0
F80F8003E0
F80F8003E0
F80FC007E0
F80FC007E0
F80FE00FC0
F807F01FC0
F807FFFFC0
F803FFFF80
F801FFFF00
F800FFFE00
F8003FF800
ENDCHAR
STARTCHAR 0133
ENCODING 307
SWIDTH 450 0
DWIDTH 27 0
BBX 19 55 4 -13
BITMAP
F803E0
F803E0
F803E0
F803E0
F803E0
F803E0
000000
000000
000000
000000
000000
000000
F803E0
F803E0
F803E0
F803E0
F803E0
F803E0
F803E0
F803E0
F803E0
F803E0
F803E0
F803E0
F803E0
F803E0
F803E0
F803E0
F803E0
F803E0
F803E0
F803E0
F803E0
F803E0
F803E0
F803E0
F803E0
F803E0
F803E0
F803E0
F803E0
F803E0
F803E0
0003E0
0003E0
0003E0
0003E0
0003E0
0003E0
0007E0
0007E0
00FFC0
00FFC0
00FF80
01FF00
ENDCHAR
STARTCHAR 0134
ENCODING 308
SWIDTH 500 0
DWIDTH 30 0
BBX 30 56 2 -1
BITMAP
00001F00
00003F80
00007FC0
0000FFC0
0000FBE0
0001F3F0
0003F1F8
0007E0F8
0007E0FC
00000000
00000000
00000000
00003E00
00003E00
00003E00
00003E00
00003E00
00003E00
00003E00
00003E00
00003E00
00003E00
00003E00
00003E00
00003E00
00003E00
00003E00
00003E00
00003E00
00003E00
00003E00
00003E00
00003E00
00003E00
00003E00
00003E00
00003E00
00003E00
00003E00
00003E00
00003E00
00003E00
78003E00
F8003E00
FC003E00
FC003E00
FC007E00
7C007E00
7E00FC00
7F01FC00
3FFFFC00
3FFFF800
1FFFF000
0FFFE000
03FF8000
00100000
ENDCHAR
STARTCHAR 0135
ENCODING 309
SWIDTH 233 0
DWIDTH 14 0
BBX 19 56 -3 -13
BITMAP
03F800
03FC00
07FE00
0FFE00
1F9F00
1F1F80
3F0FC0
7E07E0
000000
000000
000000
000000
01F000
01F000
01F000
01F000
01F000
01F000
01F000
01F000
01F000
01F000
01F000
01F000
01F000
01F000
01F000
01F000
01F000
01F000
01F000
01F000
01F000
01F000
01F000
01F000
01F000
01F000
01F000
01F000
01F000
01F000
01F000
01F000
01F000
01F000
01F000
01F000
01F000
03F000
03F000
7FE000
7FE000
7FC000
FF8000
080000
ENDCHAR
STARTCHAR 0136
ENCODING 310
SWIDTH 666 0
DWIDTH 40 0
BBX 35 55 4 -13
BITMAP
F800001FC0
F800003F80
F800007F00
F80000FE00
F80001FC00
F80007F800
F8000FF000
F8001FE000
F8003FC000
F8007F8000
F800FF0000
F801FE0000
F803FC0000
F807F80000
F80FE00000
F81FC00000
F83F800000
F87F000000
F8FF800000
F9FFC00000
FBFFE00000
FFF7E00000
FFE7F00000
FFC3F80000
FF81FC0000
FF01FC0000
FE00FE0000
FC007F0000
F8003F8000
F8003F8000
F8001FC000
F8000FE000
F80007F000
F80007F000
F80003F800
F80001FC00
F80001FE00
F80000FE00
F800007F00
F800003F80
F800003FC0
F800001FC0
F800000FE0
0000000000
0000000000
0001F80000
0001FE0000
0001FF0000
00001F8000
00000F8000
00001F8000
000FFF8000
000FFF0000
000FFE0000
000FFC0000
ENDCHAR
STARTCHAR 0137
ENCODING 311
SWIDTH 500 0
DWIDTH 30 0
BBX 26 55 4 -13
BITMAP
F8000000
F8000000
F8000000
F8000000
F8000000
F8000000
F8000000
F8000000
F8000000
F8000000
F8000000
F8000000
F8007F00
F800FE00
F801FC00
F803F800
F807F000
F80FE000
F81FC000
F83F8000
F87F0000
F8FE0000
F9FC0000
FBF00000
FBF80000
FFFC0000
FFFE0000
FFFE0000
FF3F0000
FE3F8000
FC1F8000
F80FC000
F80FE000
F807E000
F803F000
F803F800
F801F800
F800FC00
F800FE00
F8007E00
F8003F00
F8003F80
F8001FC0
00000000
00000000
001F0000
001FC000
001FE000
0003F000
0001F000
0001F000
00FFF000
00FFF000
00FFE000
00FF8000
ENDCHAR
STARTCHAR 0138
ENCODING 312
SWIDTH 500 0
DWIDTH 30 0
BBX 26 31 4 0
BITMAP
F8007F00
F800FE00
F801FC00
F803F800
F807F000
F80FE000
F81FC000
F83F8000
F87F0000
F8FE0000
F9FC0000
FBF80000
FBF80000
FFFC0000
FFFE0000
FFFF0000
FF3F0000
FE1F8000
FC1FC000
F80FC000
F807E000
F807F000
F803F000
F801F800
F801FC00
F800FC00
F800FE00
F8007F00
F8003F00
F8003F80
F8001FC0
ENDCHAR
STARTCHAR 0139
ENCODING 313
SWIDTH 550 0
DWIDTH 33 0
BBX 27 54 4 0
BITMAP
00FE0000
01FC0000
01F80000
03F00000
03F00000
07E00000
07C00000
07800000
00000000
00000000
00000000
F8000000
F8000000
F8000000
F8000000
F8000000
F8000000
F8000000
F8000000
F8000000
F8000000
F8000000
F8000000
F8000000
F8000000
F8000000
F8000000
F8000000
F8000000
F8000000
F8000000
F8000000
F8000000
F8000000
F8000000
F8000000
F8000000
F8000000
F8000000
F8000000
F8000000
F8000000
F8000000
F8000000
F8000000
F8000000
F8000000
F8000000
F8000000
FFFFFFE0
FFFFFFE0
FFFFFFE0
FFFFFFE0
FFFFFFE0
ENDCHAR
STARTCHAR 013A
ENCODING 314
SWIDTH 233 0
DWIDTH 14 0
BBX 11 54 2 0
BITMAP
0FE0
1FC0
1F80
3F00
3E00
7E00
7C00
F800
0000
0000
0000
3E00
3E00
3E00
3E00
3E00
3E00
3E00
3E00
3E00
3E00
3E00
3E00
3E00
3E00
3E00
3E00
3E00
3E00
3E00
3E00
3E00
3E00
3E00
3E00
3E00
3E00
3E00
3E00
3E00
3E00
3E00
3E00
3E00
3E00
3E00
3E00
3E00
3E00
3E00
3E00
3E00
3E00
3E00
ENDCHAR
STARTCHAR 013B
ENCODING 315
SWIDTH 550 0
DWIDTH 33 0
BBX 27 55 4 -13
BITMAP
F8000000
F8000000
F8000000
F8000000
F8000000
F8000000
F8000000
F8000000
F8000000
F8000000
F8000000
F8000000
F8000000
F8000000
F8000000
F8000000
F8000000
F8000000
F8000000
F8000000
F8000000
F8000000
F8000000
F8000000
F8000000
F8000000
F8000000
F8000000
F8000000
F8000000
F8000000
F8000000
F8000000
F8000000
F8000000
F8000000
F8000000
F8000000
FFFFFFE0
FFFFFFE0
FFFFFFE0
FFFFFFE0
FFFFFFE0
00000000
00000000
001F8000
001FE000
001FF000
0001F800
0000F800
0000F800
007FF800
007FF800
007FF000
00FFC000
ENDCHAR
STARTCHAR 013C
ENCODING 316
SWIDTH 233 0
DWIDTH 14 0
BBX 13 55 0 -13
BITMAP
0F80
0F80
0F80
0F80
0F80
0F80
0F80
0F80
0F80
0F80
0F80
0F80
0F80
0F80
0F80
0F80
0F80
0F80
0F80
0F80
0F80
0F80
0F80
0F80
0F80
0F80
0F80
0F80
0F80
0F80
0F80
0F80
0F80
0F80
0F80
0F80
0F80
0F80
0F80
0F80
0F80
0F80
0F80
0000
0000
1F80
1FE0
1FF0
01F8
00F8
01F8
FFF8
FFF0
FFE0
FFC0
ENDCHAR
STARTCHAR 013D
ENCODING 317
SWIDTH 550 0
DWIDTH 33 0
BBX 27 43 4 0
BITMAP
F800FC00
F800FC00
F800FC00
F800FC00
F800FC00
F800FC00
F8001C00
F8001C00
F8001C00
F8003C00
F8003800
F8007800
F800F000
F8006000
F8000000
F8000000
F8000000
F8000000
F8000000
F8000000
F8000000
F8000000
F8000000
F8000000
F8000000
F8000000
F8000000
F8000000
F8000000
F8000000
F8000000
F8000000
F8000000
F8000000
F8000000
F8000000
F8000000
F8000000
FFFFFFE0
FFFFFFE0
FFFFFFE0
FFFFFFE0
FFFFFFE0
ENDCHAR
STARTCHAR 013E
ENCODING 318
SWIDTH 300 0
DWIDTH 18 0
BBX 14 43 4 0
BITMAP
F8FC
F8FC
F8FC
F8FC
F8FC
F81C
F81C
F81C
F838
F838
F8F0
F860
F840
F800
F800
F800
F800
F800
F800
F800
F800
F800
F800
F800
F800
F800
F800
F800
F800
F800
F800
F800
F800
F800
F800
F800
F800
F800
F800
F800
F800
F800
F800
ENDCHAR
STARTCHAR 013F
ENCODING 319
SWIDTH 550 0
DWIDTH 33 0
BBX 27 43 4 0
BITMAP
F8000000
F8000000
F8000000
F8000000
F8000000
F8000000
F8000000
F8000000
F8000000
F8000000
F8000000
F8000000
F8000000
F8000000
F8000000
F8000000
F8000000
F8000000
F8007C00
F8007C00
F8007C00
F8007C00
F8007C00
F8007C00
F8000000
F8000000
F8000000
F8000000
F8000000
F8000000
F8000000
F8000000
F8000000
F8000000
F8000000
F8000000
F8000000
F8000000
FFFFFFE0
FFFFFFE0
FFFFFFE0
FFFFFFE0
FFFFFFE0
ENDCHAR
STARTCHAR 0140
ENCODING 320
SWIDTH 333 0
DWIDTH 20 0
BBX 15 43 4 0
BITMAP
F800
F800
F800
F800
F800
F800
F800
F800
F800
F800
F800
F800
F800
F800
F800
F800
F800
F800
F83E
F83E
F83E
F83E
F83E
F83E
F800
F800
F800
F800
F800
F800
F800
F800
F800
F800
F800
F800
F800
F800
F800
F800
F800
F800
F800
ENDCHAR
STARTCHAR 0141
ENCODING 321
SWIDTH 550 0
DWIDTH 33 0
BBX 31 43 0 0
BITMAP
0F800000
0F800000
0F800000
0F800000
0F800000
0F800000
0F800000
0F800000
0F801000
0F803000
0F807000
0F80F000
0F81F000
0F87E000
0F8FC000
0F9F8000
0FBF0000
0FFC0000
0FF80000
0FF00000
0FE00000
0FC00000
1F800000
3F800000
7F800000
FF800000
FF800000
EF800000
CF800000
8F800000
0F800000
0F800000
0F800000
0F800000
0F800000
0F800000
0F800000
0F800000
0FFFFFFE
0FFFFFFE
0FFFFFFE
0FFFFFFE
0FFFFFFE
ENDCHAR
STARTCHAR 0142
ENCODING 322
SWIDTH 250 0
DWIDTH 15 0
BBX 13 43 1 0
BITMAP
0F80
0F80
0F80
0F80
0F80
0F80
0F80
0F80
0F80
0F80
0F80
0F80
0F80
0F80
0F88
0F98
0FB8
0FF8
0FF8
0FF0
0FE0
0FC0
1F80
3F80
FF80
FF80
FF80
CF80
8F80
0F80
0F80
0F80
0F80
0F80
0F80
0F80
0F80
0F80
0F80
0F80
0F80
0F80
0F80
ENDCHAR
STARTCHAR 0143
ENCODING 323
SWIDTH 733 0
DWIDTH 44 0
BBX 34 54 5 0
BITMAP
0000FE0000
0001FC0000
0001F80000
0003F00000
0003E00000
0007E00000
0007C00000
000F800000
0000000000
0000000000
0000000000
FC000007C0
FE000007C0
FE000007C0
FF000007C0
FF800007C0
FFC00007C0
FFC00007C0
FFE00007C0
FFF00007C0
FBF00007C0
FBF80007C0
F9FC0007C0
F8FC0007C0
F8FE0007C0
F87F0007C0
F83F0007C0
F83F8007C0
F81FC007C0
F80FC007C0
F80FE007C0
F807F007C0
F803F007C0
F803F807C0
F801FC07C0
F800FC07C0
F800FE07C0
F8007F07C0
F8003F07C0
F8003F87C0
F8001FC7C0
F8000FC7C0
F8000FE7C0
F80007F7C0
F80003F7C0
F80003FFC0
F80001FFC0
F80000FFC0
F80000FFC0
F800007FC0
F800003FC0
F800003FC0
F800001FC0
F800000FC0
ENDCHAR
STARTCHAR 0144
ENCODING 324
SWIDTH 566 0
DWIDTH 34 0
BBX 25 43 4 0
BITMAP
0007F000
000FE000
000FC000
001F8000
001F8000
001F0000
003E0000
003C0000
00000000
00000000
00000000
00000000
F83FF000
F8FFFC00
F9FFFE00
FBFFFF00
FFC07F00
FF003F80
FE001F80
FE001F80
FC000F80
FC000F80
FC000F80
FC000F80
F8000F80
F8000F80
F8000F80
F8000F80
F8000F80
F8000F80
F8000F80
F8000F80
F8000F80
F8000F80
F8000F80
F8000F80
F8000F80
F8000F80
F8000F80
F8000F80
F8000F80
F8000F80
F8000F80
ENDCHAR
STARTCHAR 0145
ENCODING 325
SWIDTH 733 0
DWIDTH 44 0
BBX 34 55 5 -13
BITMAP
FC000007C0
FE000007C0
FF000007C0
FF000007C0
FF800007C0
FFC00007C0
FFC00007C0
FFE00007C0
FFF00007C0
FBF00007C0
FBF80007C0
F9FC0007C0
F8FC0007C0
F8FE0007C0
F87F0007C0
F83F0007C0
F83F8007C0
F81FC007C0
F80FC007C0
F80FE007C0
F807F007C0
F803F007C0
F803F807C0
F801FC07C0
F800FC07C0
F800FE07C0
F8007F07C0
F8003F07C0
F8003F87C0
F8001FC7C0
F8000FC7C0
F80007E7C0
F80007F7C0
F80003F7C0
F80001FFC0
F80001FFC0
F80000FFC0
F800007FC0
F800007FC0
F800003FC0
F800001FC0
F800001FC0
F800000FC0
0000000000
0000000000
0000FC0000
0000FF0000
0000FF8000
00000FC000
000007C000
000007C000
0007FFC000
0007FFC000
0007FF8000
0007FE0000
ENDCHAR
STARTCHAR 0146
ENCODING 326
SWIDTH 566 0
DWIDTH 34 0
BBX 25 43 4 -12
BITMAP
F83FF000
F8FFFC00
F9FFFE00
FBFFFF00
FFC07F00
FF003F80
FE001F80
FE001F80
FC000F80
FC000F80
FC000F80
FC000F80
F8000F80
F8000F80
F8000F80
F8000F80
F8000F80
F8000F80
F8000F80
F8000F80
F8000F80
F8000F80
F8000F80
F8000F80
F8000F80
F8000F80
F8000F80
F8000F80
F8000F80
F8000F80
F8000F80
00000000
00000000
003E0000
003F8000
003FC000
0007E000
0003E000
0003E000
01FFE000
01FFE000
01FFC000
01FF0000
ENDCHAR
STARTCHAR 0147
ENCODING 327
SWIDTH 733 0
DWIDTH 44 0
BBX 34 54 5 0
BITMAP
00FC0FC000
007E1F8000
003E1F0000
003F3E0000
001FFE0000
000FFC0000
0007F80000
0003F00000
0000000000
0000000000
0000000000
FC000007C0
FE000007C0
FE000007C0
FF000007C0
FF800007C0
FFC00007C0
FFC00007C0
FFE00007C0
FFF00007C0
FBF00007C0
FBF80007C0
F9FC0007C0
F8FC0007C0
F8FE0007C0
F87F0007C0
F83F0007C0
F83F8007C0
F81FC007C0
F80FC007C0
F80FE007C0
F807F007C0
F803F007C0
F803F807C0
F801FC07C0
F800FC07C0
F800FE07C0
F8007F07C0
F8003F07C0
F8003F87C0
F8001FC7C0
F8000FC7C0
F8000FE7C0
F80007F7C0
F80003F7C0
F80003FFC0
F80001FFC0
F80000FFC0
F80000FFC0
F800007FC0
F800003FC0
F800003FC0
F800001FC0
F800000FC0
ENDCHAR
STARTCHAR 0148
ENCODING 328
SWIDTH 566 0
DWIDTH 34 0
BBX 25 43 4 0
BITMAP
0FC0FC00
07E1F800
03F1F000
01F3F000
01FBE000
00FFC000
007F8000
003F0000
00000000
00000000
00000000
00000000
F83FF000
F8FFFC00
F9FFFE00
FBFFFF00
FFC07F00
FF003F80
FE001F80
FE001F80
FC000F80
FC000F80
FC000F80
FC000F80
F8000F80
F8000F80
F8000F80
F8000F80
F8000F80
F8000F80
F8000F80
F8000F80
F8000F80
F8000F80
F8000F80
F8000F80
F8000F80
F8000F80
F8000F80
F8000F80
F8000F80
F8000F80
F8000F80
ENDCHAR
STARTCHAR 0149
ENCODING 329
SWIDTH 600 0
DWIDTH 36 0
BBX 33 43 3 0
BITMAP
FC00000000
FC00000000
FC00000000
FC00000000
FC00000000
FC00000000
1C00000000
1C00000000
1C00000000
3800000000
3800000000
7000000000
E0F07FF000
40F1FFF800
00F3FFFE00
00F7FFFE00
00FFC0FF00
00FF003F00
00FE001F80
00FC001F80
00FC001F80
00F8001F80
00F8000F80
00F8000F80
00F8000F80
00F8000F80
00F8000F80
00F8000F80
00F8000F80
00F8000F80
00F8000F80
00F8000F80
00F8000F80
00F8000F80
00F8000F80
00F8000F80
00F8000F80
00F8000F80
00F8000F80
00F8000F80
00F8000F80
00F8000F80
00F8000F80
ENDCHAR
STARTCHAR 014A
ENCODING 330
SWIDTH 733 0
DWIDTH 44 0
BBX 35 43 5 0
BITMAP
F80FFF8000
F83FFFE000
F8FFFFF800
F9FFFFFC00
FBF803FE00
FFE000FF00
FFC0007F00
FF00003F80
FF00001F80
FE00000FC0
FE00000FC0
FC000007C0
FC000007E0
FC000007E0
FC000007E0
FC000003E0
F8000003E0
F8000003E0
F8000003E0
F8000003E0
F8000003E0
F8000003E0
F8000003E0
F8000003E0
F8000003E0
F8000003E0
F8000003E0
F8000003E0
F8000007E0
F8000007E0
F8000007E0
F8000007C0
F800000FC0
F800000FC0
F800001F80
F800001F80
F800003F00
F800C07F00
F800FFFE00
F801FFFC00
F801FFF800
F803FFF000
F800FFC000
ENDCHAR
STARTCHAR 014B
ENCODING 331
SWIDTH 550 0
DWIDTH 33 0
BBX 25 43 4 -12
BITMAP
F83FF000
F8FFFC00
F9FFFE00
FBFFFF00
FFC07F00
FF003F80
FE001F80
FE001F80
FC000F80
FC000F80
FC000F80
FC000F80
F8000F80
F8000F80
F8000F80
F8000F80
F8000F80
F8000F80
F8000F80
F8000F80
F8000F80
F8000F80
F8000F80
F8000F80
F8000F80
F8000F80
F8000F80
F8000F80
F8000F80
F8000F80
F8000F80
00000F80
00000F80
00000F80
00000F80
00000F80
00000F80
00001F80
00001F80
0003FF00
0003FF00
0003FE00
0007FC00
ENDCHAR
STARTCHAR 014C
ENCODING 332
SWIDTH 783 0
DWIDTH 47 0
BBX 41 53 3 -1
BITMAP
000FFFFC0000
000FFFFC0000
000FFFFC0000
000FFFFC0000
000000000000
000000000000
000000000000
000000000000
000000000000
0003FFE00000
001FFFFC0000
007FFFFF0000
00FFFFFF8000
01FF007FC000
03FC001FE000
07F00007F000
0FE00003F800
1F800001FC00
1F800000FC00
3F0000007E00
3E0000007E00
7E0000003E00
7E0000003F00
7C0000001F00
7C0000001F00
FC0000001F80
FC0000001F80
FC0000001F80
FC0000001F80
F80000000F80
F80000000F80
F80000000F80
F80000001F80
FC0000001F80
FC0000001F80
FC0000001F80
7C0000001F00
7C0000001F00
7E0000003F00
7E0000003F00
3E0000007E00
3F0000007E00
1F800000FC00
1FC00001FC00
0FE00003F800
07F00007F000
03F8001FE000
01FF007FC000
00FFFFFF8000
003FFFFF0000
001FFFFC0000
0003FFE00000
000008000000
ENDCHAR
STARTCHAR 014D
ENCODING 333
SWIDTH 550 0
DWIDTH 33 0
BBX 29 42 2 -1
BITMAP
03FFFF00
03FFFF00
03FFFF00
03FFFF00
00000000
00000000
00000000
00000000
00000000
00020000
007FF000
01FFFC00
07FFFF00
0FFFFF80
1FE03FC0
3F800FC0
3F0007E0
7E0003F0
7E0003F0
7C0001F0
FC0001F8
FC0001F8
FC0001F8
FC0001F8
F80000F8
F80000F8
F80000F8
F80001F8
FC0001F8
FC0001F8
FC0001F8
7C0001F0
7E0003F0
7E0003F0
3F0007E0
3F800FE0
1FE03FC0
0FFFFF80
07FFFF00
01FFFC00
007FF000
00020000
ENDCHAR
STARTCHAR 014E
ENCODING 334
SWIDTH 783 0
DWIDTH 47 0
BBX 41 55 3 -1
BITMAP
000F003C0000
000F003C0000
000780780000
0007C0F80000
0003FFF00000
0003FFF00000
0000FFC00000
00003F000000
000000000000
000000000000
000000000000
0003FFE00000
001FFFFC0000
007FFFFF0000
00FFFFFF8000
01FF007FC000
03FC001FE000
07F00007F000
0FE00003F800
1F800001FC00
1F800000FC00
3F0000007E00
3E0000007E00
7E0000003E00
7E0000003F00
7C0000001F00
7C0000001F00
FC0000001F80
FC0000001F80
FC0000001F80
FC0000001F80
F80000000F80
F80000000F80
F80000000F80
F80000001F80
FC0000001F80
FC0000001F80
FC0000001F80
7C0000001F00
7C0000001F00
7E0000003F00
7E0000003F00
3E0000007E00
3F0000007E00
1F800000FC00
1FC00001FC00
0FE00003F800
07F00007F000
03F8001FE000
01FF007FC000
00FFFFFF8000
003FFFFF0000
001FFFFC0000
0003FFE00000
000008000000
ENDCHAR
STARTCHAR 014F
ENCODING 335
SWIDTH 550 0
DWIDTH 33 0
BBX 29 44 2 -1
BITMAP
03C00E00
01E01E00
01F03E00
01FFFC00
00FFFC00
007FF000
001FC000
00000000
00000000
00000000
00000000
00020000
007FF000
01FFFC00
07FFFF00
0FFFFF80
1FE03FC0
3F800FC0
3F0007E0
7E0003F0
7E0003F0
7C0001F0
FC0001F8
FC0001F8
FC0001F8
FC0001F8
F80000F8
F80000F8
F80000F8
F80001F8
FC0001F8
FC0001F8
FC0001F8
7C0001F0
7E0003F0
7E0003F0
3F0007E0
3F800FE0
1FE03FC0
0FFFFF80
07FFFF00
01FFFC00
007FF000
00020000
ENDCHAR
STARTCHAR 0150
ENCODING 336
SWIDTH 783 0
DWIDTH 47 0
BBX 41 55 3 -1
BITMAP
0003F87E0000
0003F0FE0000
0007E0FC0000
0007E1F80000
000FC1F00000
000F83F00000
001F03E00000
001E07C00000
000000000000
000000000000
000000000000
0003FFE00000
001FFFFC0000
007FFFFF0000
00FFFFFF8000
01FF007FC000
03FC001FE000
07F00007F000
0FE00003F800
1F800001FC00
1F800000FC00
3F0000007E00
3E0000007E00
7E0000003E00
7E0000003F00
7C0000001F00
7C0000001F00
FC0000001F80
FC0000001F80
FC0000001F80
FC0000001F80
F80000000F80
F80000000F80
F80000000F80
F80000001F80
FC0000001F80
FC0000001F80
FC0000001F80
7C0000001F00
7C0000001F00
7E0000003F00
7E0000003F00
3E0000007E00
3F0000007E00
1F800000FC00
1FC00001FC00
0FE00003F800
07F00007F000
03F8001FE000
01FF007FC000
00FFFFFF8000
003FFFFF0000
001FFFFC0000
0003FFE00000
000008000000
ENDCHAR
STARTCHAR 0151
ENCODING 337
SWIDTH 550 0
DWIDTH 33 0
BBX 29 44 2 -1
BITMAP
003F0FC0
007E1FC0
007E1F80
00FC3F00
00F83E00
01F03E00
01F07C00
01E07800
00000000
00000000
00000000
00020000
007FF000
01FFFC00
07FFFF00
0FFFFF80
1FE03FC0
3F800FC0
3F0007E0
7E0003F0
7E0003F0
7C0001F0
FC0001F8
FC0001F8
FC0001F8
FC0001F8
F80000F8
F80000F8
F80000F8
F80001F8
FC0001F8
FC0001F8
FC0001F8
7C0001F0
7E0003F0
7E0003F0
3F0007E0
3F800FE0
1FE03FC0
0FFFFF80
07FFFF00
01FFFC00
007FF000
00020000
ENDCHAR
STARTCHAR 0152
ENCODING 338
SWIDTH 1000 0
DWIDTH 60 0
BBX 55 45 4 -1
BITMAP
00004000000000
001FFE07FFFFFC
007FFF87FFFFFC
01FFFFC7FFFFFC
03FFFFF7FFFFFC
07FC07F7FFFFFC
0FF001FFC00000
0FC000FFC00000
1F80007FC00000
1F80003FC00000
3F00001FC00000
3E00001FC00000
7E00001FC00000
7E00000FC00000
7C00000FC00000
7C00000FC00000
FC000007C00000
FC000007C00000
FC000007C00000
FC000007FFFFF0
F8000007FFFFF0
F8000007FFFFF0
F8000007FFFFF0
F8000007FFFFF0
F8000007C00000
F8000007C00000
FC000007C00000
FC000007C00000
FC000007C00000
7C00000FC00000
7C00000FC00000
7E00000FC00000
7E00001FC00000
3E00001FC00000
3F00001FC00000
1F80003FC00000
1F80007FC00000
0FC000FFC00000
07F001FFC00000
07FC07F7FFFFFE
03FFFFE7FFFFFE
01FFFFC7FFFFFE
007FFF87FFFFFE
001FFE07FFFFFE
00004000000000
ENDCHAR
STARTCHAR 0153
ENCODING 339
SWIDTH 933 0
DWIDTH 56 0
BBX 52 31 2 0
BITMAP
007FF000FFE000
01FFFC03FFF800
07FFFF07FFFE00
0FFFFF8FFFFF00
1FE03FDFC07F80
1F800FFF801F80
3F0007FE000FC0
3F0007FE0007C0
7E0003FC0003E0
7E0001FC0003E0
7C0001F80003E0
FC0001F80003F0
FC0001FFFFFFF0
FC0001FFFFFFF0
F80000FFFFFFF0
F80000FFFFFFF0
F80000F8000000
F80001F8000000
FC0001F8000000
FC0001F8000000
FC0001FC000000
7C0003FC0003F0
7E0003FC0003E0
7E0007FE0007E0
3F0007FF000FC0
3F801FFF801FC0
1FE03F9FE03F80
0FFFFF8FFFFF00
07FFFE07FFFE00
01FFFC03FFFC00
007FF000FFF000
ENDCHAR
STARTCHAR 0154
ENCODING 340
SWIDTH 716 0
DWIDTH 43 0
BBX 37 54 5 0
BITMAP
0003F00000
0007F00000
0007E00000
000FC00000
000F800000
001F000000
001F000000
003E000000
0000000000
0000000000
0000000000
FFFFFF8000
FFFFFFF000
FFFFFFFC00
FFFFFFFE00
F80007FF00
F800007F00
F800003F80
F800001F80
F800000FC0
F800000FC0
F800000FC0
F8000007C0
F800000FC0
F800000FC0
F800000FC0
F800001F80
F800001F80
F800007F00
F80001FF00
FFFFFFFE00
FFFFFFF800
FFFFFFF000
FFFFFF8000
F803FE0000
F8007F8000
F8001FC000
F8000FE000
F80007F000
F80007F000
F80003F800
F80001FC00
F80001FE00
F80000FE00
F800007F00
F800007F00
F800003F80
F800001FC0
F800001FC0
F800000FE0
F800000FE0
F8000007F0
F8000003F8
F8000003F8
ENDCHAR
STARTCHAR 0155
ENCODING 341
SWIDTH 333 0
DWIDTH 20 0
BBX 17 43 4 0
BITMAP
01FC00
01F800
03F000
03E000
07E000
07C000
0F8000
0F0000
000000
000000
000000
000000
F8FF00
F9FF80
FBFF00
FFFF00
FFFF00
FF0000
FE0000
FE0000
FC0000
FC0000
FC0000
FC0000
FC0000
F80000
F80000
F80000
F80000
F80000
F80000
F80000
F80000
F80000
F80000
F80000
F80000
F80000
F80000
F80000
F80000
F80000
F80000
ENDCHAR
STARTCHAR 0156
ENCODING 342
SWIDTH 716 0
DWIDTH 43 0
BBX 37 55 5 -13
BITMAP
FFFFFF8000
FFFFFFF000
FFFFFFFC00
FFFFFFFE00
F80007FF00
F800007F00
F800003F80
F800001F80
F800000FC0
F800000FC0
F800000FC0
F8000007C0
F800000FC0
F800000FC0
F800000FC0
F800001F80
F800001F80
F800007F00
F80001FF00
FFFFFFFE00
FFFFFFF800
FFFFFFE000
FFFFFF0000
F803FE0000
F8007F8000
F8001FC000
F8000FE000
F80007F000
F80007F000
F80003F800
F80001FC00
F80001FC00
F80000FE00
F800007F00
F800007F00
F800003F80
F800001F80
F800001FC0
F800000FE0
F800000FE0
F8000007F0
F8000003F8
F8000003F8
0000000000
0000000000
0001F80000
0001FE0000
0001FF0000
00001F8000
00000F8000
00000F8000
0007FF8000
0007FF8000
000FFF0000
000FFC0000
ENDCHAR
STARTCHAR 0157
ENCODING 343
SWIDTH 350 0
DWIDTH 21 0
BBX 17 43 4 -12
BITMAP
F8FF00
F9FF80
FBFF80
FFFF00
FFFF00
FF0100
FE0000
FE0000
FC0000
FC0000
FC0000
FC0000
FC0000
F80000
F80000
F80000
F80000
F80000
F80000
F80000
F80000
F80000
F80000
F80000
F80000
F80000
F80000
F80000
F80000
F80000
F80000
000000
000000
0F8000
0FE000
0FF000
01F800
00F800
00F800
7FF800
7FF800
FFF000
FFC000
ENDCHAR
STARTCHAR 0158
ENCODING 344
SWIDTH 716 0
DWIDTH 43 0
BBX 37 54 5 0
BITMAP
07E07E0000
03F0FC0000
01F0FC0000
01F9F80000
00FDF00000
007FE00000
003FC00000
003FC00000
001F800000
0000000000
0000000000
FFFFFF8000
FFFFFFF000
FFFFFFFC00
FFFFFFFE00
F80007FF00
F800007F00
F800003F80
F800001F80
F800000FC0
F800000FC0
F800000FC0
F8000007C0
F800000FC0
F800000FC0
F800000FC0
F800001F80
F800001F80
F800007F00
F80001FF00
FFFFFFFE00
FFFFFFF800
FFFFFFF000
FFFFFF8000
F803FE0000
F8007F8000
F8001FC000
F8000FE000
F80007F000
F80007F000
F80003F800
F80001FC00
F80001FE00
F80000FE00
F800007F00
F800007F00
F800003F80
F800001FC0
F800001FC0
F800000FE0
F800000FE0
F8000007F0
F8000003F8
F8000003F8
ENDCHAR
STARTCHAR 0159
ENCODING 345
SWIDTH 333 0
DWIDTH 20 0
BBX 19 43 2 0
BITMAP
FC0FC0
7E0F80
3F1F80
1F3F00
1FBE00
0FFC00
07F800
03F800
000000
000000
000000
000000
3E3FC0
3E7FE0
3EFFC0
3FFFC0
3FFFC0
3FC000
3F8000
3F8000
3F0000
3F0000
3F0000
3F0000
3F0000
3E0000
3E0000
3E0000
3E0000
3E0000
3E0000
3E0000
3E0000
3E0000
3E0000
3E0000
3E0000
3E0000
3E0000
3E0000
3E0000
3E0000
3E0000
ENDCHAR
STARTCHAR 015A
ENCODING 346
SWIDTH 666 0
DWIDTH 40 0
BBX 34 55 2 -1
BITMAP
0000FE0000
0001FC0000
0001F80000
0001F80000
0003F00000
0003E00000
0007C00000
0007C00000
000F800000
0000000000
0000000000
0000000000
003FFF0000
00FFFFC000
03FFFFF000
07FFFFF800
0FFFFFFC00
0FE001FE00
1FC0007F00
1F80003F00
3F00003F00
3F00001F80
3E00001F80
3E00000F80
3F00000C00
3F00000000
1F80000000
1FC0000000
1FF8000000
0FFF800000
07FFF80000
03FFFF8000
00FFFFE000
003FFFF800
0003FFFE00
00003FFF00
000003FF00
0000007F80
0000003FC0
0000000FC0
0000000FC0
FC000007C0
7C000007C0
7C000007C0
7E000007C0
7E000007C0
7F00000FC0
3F80001F80
1FC0003F80
1FF000FF00
0FFFFFFE00
07FFFFFC00
03FFFFF800
00FFFFF000
001FFF8000
ENDCHAR
STARTCHAR 015B
ENCODING 347
SWIDTH 500 0
DWIDTH 30 0
BBX 26 43 2 -1
BITMAP
0003F000
0007F000
0007E000
000FC000
000F8000
001F0000
001F0000
003E0000
00000000
00000000
00000000
00000000
01FFE000
07FFF800
1FFFFC00
1FFFFE00
3F80FF00
7E003F00
7E001F00
7C001F80
7E000C00
7E000000
7F000000
3FE00000
3FFC0000
1FFFC000
0FFFF800
03FFFE00
007FFF00
000FFF80
0000FF80
00001FC0
00000FC0
7C000FC0
FC0007C0
7C000FC0
7E000FC0
7F001F80
3FC07F80
1FFFFF00
0FFFFE00
07FFF800
01FFE000
ENDCHAR
STARTCHAR 015C
ENCODING 348
SWIDTH 666 0
DWIDTH 40 0
BBX 34 54 2 -1
BITMAP
0003F00000
0007F80000
000FFC0000
000FBE0000
001FBF0000
003F1F8000
007E0F8000
00FC0FC000
0000000000
0000000000
0000000000
003FFF0000
00FFFFC000
03FFFFF000
07FFFFF800
0FFFFFFC00
0FE001FE00
1FC0007F00
1F80003F00
3F00003F00
3F00001F80
3E00001F80
3E00000F80
3F00000C00
3F00000000
1F80000000
1FC0000000
1FF8000000
0FFF800000
07FFF80000
03FFFF8000
00FFFFE000
003FFFF800
0003FFFE00
00003FFF00
000003FF00
0000007F80
0000003FC0
0000000FC0
0000000FC0
FC000007C0
7C000007C0
7C000007C0
7E000007C0
7E000007C0
7F00000FC0
3F80001F80
1FC0003F80
1FF000FF00
0FFFFFFE00
07FFFFFC00
03FFFFF800
00FFFFF000
001FFF8000
ENDCHAR
STARTCHAR 015D
ENCODING 349
SWIDTH 500 0
DWIDTH 30 0
BBX 26 43 2 -1
BITMAP
001F8000
003FC000
007FE000
00FFE000
00F9F000
01F8F800
03F0FC00
07E07E00
00000000
00000000
00000000
00000000
01FFE000
07FFF800
1FFFFC00
1FFFFE00
3F80FF00
7E003F00
7E001F00
7C001F80
7E000C00
7E000000
7F000000
3FE00000
3FFC0000
1FFFC000
0FFFF800
03FFFE00
007FFF00
000FFF80
0000FF80
00001FC0
00000FC0
7C000FC0
FC0007C0
7C000FC0
7E000FC0
7F001F80
3FC07F80
1FFFFF00
0FFFFE00
07FFF800
01FFE000
ENDCHAR
STARTCHAR 015E
ENCODING 350
SWIDTH 666 0
DWIDTH 40 0
BBX 34 55 2 -11
BITMAP
003FFF0000
00FFFFC000
03FFFFF000
07FFFFF800
0FFFFFFC00
0FE001FE00
1FC0007F00
1F80003F00
3F00003F00
3F00001F80
3E00001F80
3E00001F80
3F00000C00
3F00000000
1F80000000
1FC0000000
1FF8000000
0FFF800000
07FFF80000
03FFFF8000
00FFFFE000
003FFFF800
0003FFFE00
00003FFF00
000003FF00
0000007F80
0000003FC0
0000000FC0
0000000FC0
FC000007C0
7C000007C0
7C000007C0
7E000007C0
7E000007C0
3F00000FC0
3F80001F80
1FC0003F80
1FF800FF00
0FFFFFFE00
07FFFFFC00
03FFFFF800
00FFFFF000
001FFF8000
0003C00000
0003C00000
0003F00000
0007FC0000
00007C0000
00003E0000
00007E0000
0000FE0000
001FFC0000
001FFC0000
003FF80000
003FE00000
ENDCHAR
STARTCHAR 015F
ENCODING 351
SWIDTH 500 0
DWIDTH 30 0
BBX 26 43 2 -11
BITMAP
01FFE000
07FFF800
1FFFFC00
1FFFFE00
3F807F00
7E003F00
7E001F00
7C001F80
7E000C00
7E000000
7F000000
3FE00000
3FFC0000
1FFFC000
0FFFF800
03FFFE00
007FFF00
000FFF80
0000FF80
00001FC0
00000FC0
7C000FC0
FC0007C0
7C000FC0
7E000FC0
7F001F80
3FC03F80
1FFFFF00
0FFFFE00
07FFF800
01FFE000
003C0000
003C0000
003F0000
007FC000
0007E000
0003E000
0007E000
000FE000
01FFC000
01FFC000
03FF8000
03FC0000
ENDCHAR
STARTCHAR 0160
ENCODING 352
SWIDTH 666 0
DWIDTH 40 0
BBX 34 54 2 -1
BITMAP
00FC0FC000
007E1F8000
007E3F0000
003F3E0000
001FFC0000
000FF80000
0007F80000
0007F00000
0000000000
0000000000
0000000000
003FFF0000
00FFFFC000
03FFFFF000
07FFFFF800
0FFFFFFC00
0FE001FE00
1FC0007F00
1F80003F00
3F00003F00
3F00001F80
3E00001F80
3E00000F80
3F00000C00
3F00000000
1F80000000
1FC0000000
1FF8000000
0FFF800000
07FFF80000
03FFFF8000
00FFFFE000
003FFFF800
0003FFFE00
00003FFF00
000003FF00
0000007F80
0000003FC0
0000000FC0
0000000FC0
FC000007C0
7C000007C0
7C000007C0
7E000007C0
7E000007C0
7F00000FC0
3F80001F80
1FC0003F80
1FF000FF00
0FFFFFFE00
07FFFFFC00
03FFFFF800
00FFFFF000
001FFF8000
ENDCHAR
STARTCHAR 0161
ENCODING 353
SWIDTH 500 0
DWIDTH 30 0
BBX 26 43 2 -1
BITMAP
0FC0FC00
07E0F800
03F1F000
01F3F000
01FBE000
00FFC000
007F8000
003F8000
00000000
00000000
00000000
00000000
01FFE000
07FFF800
1FFFFC00
1FFFFE00
3F80FF00
7E003F00
7E001F00
7C001F80
7E000C00
7E000000
7F000000
3FE00000
3FFC0000
1FFFC000
0FFFF800
03FFFE00
007FFF00
000FFF80
0000FF80
00001FC0
00000FC0
7C000FC0
FC0007C0
7C000FC0
7E000FC0
7F001F80
3FC07F80
1FFFFF00
0FFFFE00
07FFF800
01FFE000
ENDCHAR
STARTCHAR 0162
ENCODING 354
SWIDTH 600 0
DWIDTH 36 0
BBX 34 60 1 -18
BITMAP
FFFFFFFFC0
FFFFFFFFC0
FFFFFFFFC0
FFFFFFFFC0
FFFFFFFFC0
0003E00000
0003E00000
0003E00000
0003E00000
0003E00000
0003E00000
0003E00000
0003E00000
0003E00000
0003E00000
0003E00000
0003E00000
0003E00000
0003E00000
0003E00000
0003E00000
0003E00000
0003E00000
0003E00000
0003E00000
0003E00000
0003E00000
0003E00000
0003E00000
0003E00000
0003E00000
0003E00000
0003E00000
0003E00000
0003E00000
0003E00000
0003E00000
0003E00000
0003E00000
0003E00000
0003E00000
0003E00000
0003E00000
0000000000
0000000000
0000000000
0000000000
0003E00000
0003E00000
0003E00000
0003E00000
0003E00000
0003E00000
0000E00000
0000E00000
0000E00000
0000E00000
0001C00000
0003C00000
0003000000
ENDCHAR
STARTCHAR 0163
ENCODING 355
SWIDTH 266 0
DWIDTH 16 0
BBX 15 57 1 -16
BITMAP
0080
0180
0780
0F80
0F80
0F80
0F80
0F80
0F80
0F80
0F80
FFFC
FFFC
FFFC
FFFC
0F80
0F80
0F80
0F80
0F80
0F80
0F80
0F80
0F80
0F80
0F80
0F80
0F80
0F80
0F80
0F80
0F80
0F80
0F80
0F80
0F80
0F80
0FC0
0FFC
0FFC
07FC
03FE
0000
0000
0000
0000
01F0
01F0
01F0
01F0
01F0
0070
0070
0070
00E0
01E0
01C0
ENDCHAR
STARTCHAR 0164
ENCODING 356
SWIDTH 600 0
DWIDTH 36 0
BBX 34 54 1 0
BITMAP
00FC0FC000
007E1F8000
007E3F0000
003F3E0000
001F7C0000
000FFC0000
000FF80000
0007F00000
0003E00000
0000000000
0000000000
FFFFFFFFC0
FFFFFFFFC0
FFFFFFFFC0
FFFFFFFFC0
FFFFFFFFC0
0003E00000
0003E00000
0003E00000
0003E00000
0003E00000
0003E00000
0003E00000
0003E00000
0003E00000
0003E00000
0003E00000
0003E00000
0003E00000
0003E00000
0003E00000
0003E00000
0003E00000
0003E00000
0003E00000
0003E00000
0003E00000
0003E00000
0003E00000
0003E00000
0003E00000
0003E00000
0003E00000
0003E00000
0003E00000
0003E00000
0003E00000
0003E00000
0003E00000
0003E00000
0003E00000
0003E00000
0003E00000
0003E00000
ENDCHAR
STARTCHAR 0165
ENCODING 357
SWIDTH 383 0
DWIDTH 23 0
BBX 21 43 1 -1
BITMAP
0000F8
0080F8
0380F8
0F80F8
0F80F8
0F8038
0F8038
0F8038
0F8038
0F8070
0F80F0
0F81E0
FFFCC0
FFFC00
FFFC00
FFFC00
0F8000
0F8000
0F8000
0F8000
0F8000
0F8000
0F8000
0F8000
0F8000
0F8000
0F8000
0F8000
0F8000
0F8000
0F8000
0F8000
0F8000
0F8000
0F8000
0F8000
0F8000
0F8000
0FC000
0FFC00
0FFC00
07FC00
03FE00
ENDCHAR
STARTCHAR 0166
ENCODING 358
SWIDTH 600 0
DWIDTH 36 0
BBX 34 43 1 0
BITMAP
FFFFFFFFC0
FFFFFFFFC0
FFFFFFFFC0
FFFFFFFFC0
FFFFFFFFC0
0003E00000
0003E00000
0003E00000
0003E00000
0003E00000
0003E00000
0003E00000
0003E00000
0003E00000
0003E00000
0003E00000
0003E00000
0003E00000
0003E00000
0003E00000
0003E00000
0FFFFFF800
0FFFFFF800
0FFFFFF800
0FFFFFF800
0003E00000
0003E00000
0003E00000
0003E00000
0003E00000
0003E00000
0003E00000
0003E00000
0003E00000
0003E00000
0003E00000
0003E00000
0003E00000
0003E00000
0003E00000
0003E00000
0003E00000
0003E00000
ENDCHAR
STARTCHAR 0167
ENCODING 359
SWIDTH 283 0
DWIDTH 17 0
BBX 15 41 1 0
BITMAP
0180
0780
0F80
0F80
0F80
0F80
0F80
0F80
0F80
0F80
FFFC
FFFC
FFFC
FFFC
0F80
0F80
0F80
0F80
0F80
0F80
0F80
0F80
FFFC
FFFC
FFFC
FFFC
0F80
0F80
0F80
0F80
0F80
0F80
0F80
0F80
0F80
0FC0
0FC0
0FFC
07FC
07FC
03FE
ENDCHAR
STARTCHAR 0168
ENCODING 360
SWIDTH 716 0
DWIDTH 43 0
BBX 33 53 5 0
BITMAP
001F81E000
003FE1E000
007FFFE000
00FFFFC000
00F8FFC000
00F03F8000
0000000000
0000000000
0000000000
0000000000
F800000F80
F800000F80
F800000F80
F800000F80
F800000F80
F800000F80
F800000F80
F800000F80
F800000F80
F800000F80
F800000F80
F800000F80
F800000F80
F800000F80
F800000F80
F800000F80
F800000F80
F800000F80
F800000F80
F800000F80
F800000F80
F800000F80
F800000F80
F800000F80
F800000F80
F800000F80
F800000F80
F800000F80
FC00000F80
FC00000F80
FC00000F80
7C00001F80
7C00001F80
7E00001F00
7E00003F00
3F00007F00
3F8000FE00
1FE001FE00
1FFFFFFC00
0FFFFFF800
03FFFFF000
01FFFFC000
003FFF0000
ENDCHAR
STARTCHAR 0169
ENCODING 361
SWIDTH 566 0
DWIDTH 34 0
BBX 25 43 4 -1
BITMAP
01E01E00
07FC1E00
0FFF3E00
0FFFFC00
1FBFFC00
1E0FF800
1E01F000
00000000
00000000
00000000
00000000
00000000
F8000F80
F8000F80
F8000F80
F8000F80
F8000F80
F8000F80
F8000F80
F8000F80
F8000F80
F8000F80
F8000F80
F8000F80
F8000F80
F8000F80
F8000F80
F8000F80
F8000F80
F8000F80
F8000F80
F8000F80
F8000F80
FC001F80
FC001F80
FC001F80
FC003F80
7E007F80
7F81F780
3FFFF780
3FFFE780
0FFF8780
03FF0780
ENDCHAR
STARTCHAR 016A
ENCODING 362
SWIDTH 716 0
DWIDTH 43 0
BBX 33 51 5 0
BITMAP
007FFFE000
007FFFE000
007FFFE000
007FFFE000
0000000000
0000000000
0000000000
0000000000
F800000F80
F800000F80
F800000F80
F800000F80
F800000F80
F800000F80
F800000F80
F800000F80
F800000F80
F800000F80
F800000F80
F800000F80
F800000F80
F800000F80
F800000F80
F800000F80
F800000F80
F800000F80
F800000F80
F800000F80
F800000F80
F800000F80
F800000F80
F800000F80
F800000F80
F800000F80
F800000F80
F800000F80
FC00000F80
FC00000F80
FC00000F80
7C00001F80
7C00001F80
7E00001F00
7E00003F00
3F00007F00
3F8000FE00
1FE001FE00
1FFFFFFC00
0FFFFFF800
03FFFFF000
01FFFFC000
003FFF0000
ENDCHAR
STARTCHAR 016B
ENCODING 363
SWIDTH 566 0
DWIDTH 34 0
BBX 25 41 4 -1
BITMAP
0FFFFC00
0FFFFC00
0FFFFC00
0FFFFC00
00000000
00000000
00000000
00000000
00000000
00000000
F8000F80
F8000F80
F8000F80
F8000F80
F8000F80
F8000F80
F8000F80
F8000F80
F8000F80
F8000F80
F8000F80
F8000F80
F8000F80
F8000F80
F8000F80
F8000F80
F8000F80
F8000F80
F8000F80
F8000F80
F8000F80
FC001F80
FC001F80
FC001F80
FC003F80
7E007F80
7F81F780
3FFFF780
3FFFE780
0FFF8780
03FF0780
ENDCHAR
STARTCHAR 016C
ENCODING 364
SWIDTH 716 0
DWIDTH 43 0
BBX 33 54 5 -1
BITMAP
00F0038000
00F0078000
0078078000
007C0F8000
003FFF0000
003FFE0000
001FFC0000
0007F00000
0000000000
0000000000
0000000000
F800000F80
F800000F80
F800000F80
F800000F80
F800000F80
F800000F80
F800000F80
F800000F80
F800000F80
F800000F80
F800000F80
F800000F80
F800000F80
F800000F80
F800000F80
F800000F80
F800000F80
F800000F80
F800000F80
F800000F80
F800000F80
F800000F80
F800000F80
F800000F80
F800000F80
F800000F80
F800000F80
F800000F80
FC00000F80
FC00000F80
FC00000F80
7C00001F80
7C00001F80
7E00001F00
7E00003F00
3F00007F00
3F8000FE00
1FE001FE00
1FFFFFFC00
0FFFFFF800
03FFFFF000
01FFFFC000
003FFF0000
ENDCHAR
STARTCHAR 016D
ENCODING 365
SWIDTH 566 0
DWIDTH 34 0
BBX 25 43 4 -1
BITMAP
07003C00
07807C00
07C0F800
03FFF800
03FFF000
00FFE000
003F8000
00000000
00000000
00000000
00000000
00000000
F8000F80
F8000F80
F8000F80
F8000F80
F8000F80
F8000F80
F8000F80
F8000F80
F8000F80
F8000F80
F8000F80
F8000F80
F8000F80
F8000F80
F8000F80
F8000F80
F8000F80
F8000F80
F8000F80
F8000F80
F8000F80
FC001F80
FC001F80
FC001F80
FC003F80
7E007F80
7F81F780
3FFFF780
3FFFE780
0FFF8780
03FF0780
ENDCHAR
STARTCHAR 016E
ENCODING 366
SWIDTH 716 0
DWIDTH 43 0
BBX 33 57 5 -1
BITMAP
0001E00000
0007F00000
0007380000
000E1C0000
000C0C0000
000C0C0000
000C0C0000
000E1C0000
0007380000
0007F80000
0001E00000
0000000000
0000000000
0000000000
F800000F80
F800000F80
F800000F80
F800000F80
F800000F80
F800000F80
F800000F80
F800000F80
F800000F80
F800000F80
F800000F80
F800000F80
F800000F80
F800000F80
F800000F80
F800000F80
F800000F80
F800000F80
F800000F80
F800000F80
F800000F80
F800000F80
F800000F80
F800000F80
F800000F80
F800000F80
F800000F80
F800000F80
FC00000F80
FC00000F80
FC00000F80
7C00001F80
7C00001F80
7E00001F00
7E00003F00
3F00007F00
3F8000FE00
1FE001FE00
1FFFFFFC00
0FFFFFF800
03FFFFF000
01FFFFC000
003FFF0000
ENDCHAR
STARTCHAR 016F
ENCODING 367
SWIDTH 566 0
DWIDTH 34 0
BBX 25 45 4 -1
BITMAP
003E0000
007F0000
00E38000
01C1C000
0180C000
0180C000
0180C000
01C1C000
00E38000
007F0000
003E0000
00000000
00000000
00000000
F8000F80
F8000F80
F8000F80
F8000F80
F8000F80
F8000F80
F8000F80
F8000F80
F8000F80
F8000F80
F8000F80
F8000F80
F8000F80
F8000F80
F8000F80
F8000F80
F8000F80
F8000F80
F8000F80
F8000F80
F8000F80
FC001F80
FC001F80
FC001F80
FC003F80
7E007F80
7F81F780
3FFFF780
3FFFE780
0FFF8780
03FF0780
ENDCHAR
STARTCHAR 0170
ENCODING 368
SWIDTH 716 0
DWIDTH 43 0
BBX 33 54 5 -1
BITMAP
000FE3F800
000FC3F000
001F87F000
001F07E000
003F07C000
003E0F8000
007C0F8000
00781F0000
0000000000
0000000000
0000000000
F800000F80
F800000F80
F800000F80
F800000F80
F800000F80
F800000F80
F800000F80
F800000F80
F800000F80
F800000F80
F800000F80
F800000F80
F800000F80
F800000F80
F800000F80
F800000F80
F800000F80
F800000F80
F800000F80
F800000F80
F800000F80
F800000F80
F800000F80
F800000F80
F800000F80
F800000F80
F800000F80
F800000F80
FC00000F80
FC00000F80
FC00000F80
7C00001F80
7C00001F80
7E00001F00
7E00003F00
3F00007F00
3F8000FE00
1FE001FE00
1FFFFFFC00
0FFFFFF800
03FFFFF000
01FFFFC000
003FFF0000
ENDCHAR
STARTCHAR 0171
ENCODING 369
SWIDTH 566 0
DWIDTH 34 0
BBX 25 43 4 -1
BITMAP
01F87F00
03F0FE00
03F0FC00
07E1F800
07C1F000
0F81F000
0F83E000
1F03C000
00000000
00000000
00000000
00000000
F8000F80
F8000F80
F8000F80
F8000F80
F8000F80
F8000F80
F8000F80
F8000F80
F8000F80
F8000F80
F8000F80
F8000F80
F8000F80
F8000F80
F8000F80
F8000F80
F8000F80
F8000F80
F8000F80
F8000F80
F8000F80
FC001F80
FC001F80
FC001F80
FC003F80
7E007F80
7F81F780
3FFFF780
3FFFE780
0FFF8780
03FF0780
ENDCHAR
STARTCHAR 0172
ENCODING 370
SWIDTH 716 0
DWIDTH 43 0
BBX 33 55 5 -13
BITMAP
F800000F80
F800000F80
F800000F80
F800000F80
F800000F80
F800000F80
F800000F80
F800000F80
F800000F80
F800000F80
F800000F80
F800000F80
F800000F80
F800000F80
F800000F80
F800000F80
F800000F80
F800000F80
F800000F80
F800000F80
F800000F80
F800000F80
F800000F80
F800000F80
F800000F80
F800000F80
F800000F80
F800000F80
FC00000F80
FC00000F80
FC00000F80
FC00001F80
7C00001F80
7C00001F80
7E00003F00
3F00003F00
3F00007F00
1FC000FE00
1FF007FC00
0FFFFFF800
07FFFFF000
01FFFFE000
007FFF8000
0003E00000
0001C00000
0003C00000
0003C00000
0003C00000
0003C00000
0003E00000
0003F06000
0003FFE000
0001FFE000
0000FFE000
00007F8000
ENDCHAR
STARTCHAR 0173
ENCODING 371
SWIDTH 566 0
DWIDTH 34 0
BBX 33 43 4 -13
BITMAP
F8000F8000
F8000F8000
F8000F8000
F8000F8000
F8000F8000
F8000F8000
F8000F8000
F8000F8000
F8000F8000
F8000F8000
F8000F8000
F8000F8000
F8000F8000
F8000F8000
F8000F8000
F8000F8000
F8000F8000
F8000F8000
F8000F8000
F8000F8000
FC000F8000
FC001F8000
FC001F8000
FC001F8000
FC003F8000
7E007F8000
7F81F78000
3FFFF78000
1FFFE78000
0FFF878000
07FF078000
00000F0000
00000E0000
00000E0000
00001E0000
00001E0000
00001E0000
00001F0000
00001F8180
00001FFF80
00000FFF80
000007FF80
000003FC00
ENDCHAR
STARTCHAR 0174
ENCODING 372
SWIDTH 950 0
DWIDTH 57 0
BBX 55 54 1 0
BITMAP
000000FC000000
000001FE000000
000003FF000000
000007FF800000
000007CFC00000
00000FC7C00000
00001F87E00000
00003F03F00000
00000000000000
00000000000000
00000000000000
FC0000FE00007E
FC0000FE00007E
FC0001FF00007C
7C0001FF0000FC
7E0001FF0000FC
7E0003FF0000F8
7E0003EF8000F8
3E0003EF8001F8
3F0003EF8001F8
3F0007CFC001F0
1F0007C7C001F0
1F0007C7C003F0
1F000F87C003F0
1F800F83E003E0
0F800F83E003E0
0F800F83E007E0
0F801F03F007C0
0FC01F01F007C0
07C01F01F007C0
07C01E01F00FC0
07C03E01F80F80
07E03E00F80F80
03E03E00F80F80
03E07C00F81F80
03E07C007C1F00
03E07C007C1F00
01F07C007C1F00
01F0F8007E1E00
01F0F8003E3E00
00F0F8003E3E00
00F9F0003E3E00
00F9F0001E3C00
00F9F0001F7C00
0079F0001F7C00
007BE0001F7C00
007FE0000F7800
007FE0000FF800
003FC0000FF800
003FC0000FF000
003FC00007F000
003FC00007F000
001F800007F000
001F800003E000
ENDCHAR
STARTCHAR 0175
ENCODING 373
SWIDTH 716 0
DWIDTH 43 0
BBX 43 43 0 0
BITMAP
00001F800000
00003FC00000
00007FE00000
0000FFF00000
0000F9F00000
0001F8F80000
0003F0FC0000
0007E07E0000
000000000000
000000000000
000000000000
000000000000
FC001F8003E0
7C001F8007C0
7C003F8007C0
7E003F8007C0
3E003FC00F80
3E007FC00F80
3E007FC00F80
3F007BC01F80
1F007BE01F00
1F00FBE01F00
1F80FBE01F00
0F80F3E03E00
0F80F1F03E00
0F81F1F03E00
07C1F1F07C00
07C1E0F07C00
07C3E0F87C00
03C3E0F87800
03E3E0F8F800
03E3C078F800
03E7C07CF000
01F7C07DF000
01F7807DF000
01F7803DF000
00FF803FE000
00FF803FE000
00FF003FE000
007F001FC000
007F001FC000
007F001FC000
003E000F8000
ENDCHAR
STARTCHAR 0176
ENCODING 374
SWIDTH 666 0
DWIDTH 40 0
BBX 38 54 1 0
BITMAP
00007E0000
0000FF0000
0001FF0000
0003FF8000
0003E7C000
0007C7E000
000FC3F000
001F83F000
0000000000
0000000000
0000000000
FE000000FC
FE000001FC
7F000003F8
3F800003F0
3F800007E0
1FC0000FE0
0FE0000FC0
0FE0001F80
07F0003F80
03F0003F00
03F8007E00
01FC00FE00
00FC00FC00
00FE01F800
007F03F800
003F03F000
003F87E000
001F87C000
000FCFC000
000FFF8000
0007FF0000
0003FF0000
0003FE0000
0001FC0000
0000FC0000
0000F80000
0000F80000
0000F80000
0000F80000
0000F80000
0000F80000
0000F80000
0000F80000
0000F80000
0000F80000
0000F80000
0000F80000
0000F80000
0000F80000
0000F80000
0000F80000
0000F80000
0000F80000
ENDCHAR
STARTCHAR 0177
ENCODING 375
SWIDTH 500 0
DWIDTH 30 0
BBX 28 55 1 -13
BITMAP
000FC000
001FE000
003FF000
003EF800
007EFC00
00FC7C00
01F83E00
01F83F00
00000000
00000000
00000000
00000000
FC0001F0
7C0001F0
7E0003F0
7E0003E0
3E0003E0
3F0007C0
3F0007C0
1F000FC0
1F800F80
0F800F80
0F801F80
0FC01F00
07C01F00
07E03E00
07E03E00
03E07E00
03F07C00
01F07C00
01F0FC00
01F8F800
00F8F800
00F9F000
007DF000
007DF000
007DE000
003FE000
003FE000
003FC000
001FC000
001F8000
000F8000
000F8000
001F0000
001F0000
003E0000
003E0000
003E0000
007C0000
3FFC0000
3FF80000
3FF00000
1FE00000
1FC00000
ENDCHAR
STARTCHAR 0178
ENCODING 376
SWIDTH 666 0
DWIDTH 40 0
BBX 38 52 1 0
BITMAP
001F03E000
001F03E000
001F03E000
001F03E000
001F03E000
001F03E000
0000000000
0000000000
0000000000
FE000000FC
7E000001FC
7F000003F8
3F800003F0
1F800007F0
1FC0000FE0
0FE0000FC0
07E0001FC0
07F0003F80
03F8003F00
01F8007E00
01FC00FE00
00FC00FC00
007E01F800
007F01F800
003F03F000
001F87E000
001F87E000
000FCFC000
0007FF8000
0007FF0000
0003FF0000
0001FE0000
0001FC0000
0000FC0000
0000F80000
0000F80000
0000F80000
0000F80000
0000F80000
0000F80000
0000F80000
0000F80000
0000F80000
0000F80000
0000F80000
0000F80000
0000F80000
0000F80000
0000F80000
0000F80000
0000F80000
0000F80000
ENDCHAR
STARTCHAR 0179
ENCODING 377
SWIDTH 616 0
DWIDTH 37 0
BBX 34 54 1 0
BITMAP
0000FE0000
0001FC0000
0001F80000
0003F00000
0003E00000
0007E00000
0007C00000
000F800000
0000000000
0000000000
0000000000
3FFFFFFF80
3FFFFFFF80
3FFFFFFF80
3FFFFFFF80
3FFFFFFF80
0000003F80
0000007F00
000000FE00
000001FC00
000003F800
000007F800
000007F000
00000FE000
00001FC000
00003F8000
00003F8000
00007F0000
0000FE0000
0001FC0000
0003F80000
0003F00000
0007F00000
000FE00000
001FC00000
003F800000
003F000000
007F000000
00FE000000
01FC000000
03F8000000
03F0000000
07F0000000
0FE0000000
1FC0000000
1F80000000
3F00000000
7E00000000
FE00000000
FFFFFFFFC0
FFFFFFFFC0
FFFFFFFFC0
FFFFFFFFC0
FFFFFFFFC0
ENDCHAR
STARTCHAR 017A
ENCODING 378
SWIDTH 500 0
DWIDTH 30 0
BBX 28 43 1 0
BITMAP
0003F000
0007E000
0007E000
000FC000
000F8000
001F0000
001F0000
003E0000
00000000
00000000
00000000
00000000
7FFFFFC0
7FFFFFC0
7FFFFFC0
7FFFFFC0
00001F80
00003F00
00007F00
00007E00
0000FC00
0001F800
0003F000
0007E000
000FE000
001FC000
001F8000
003F0000
007E0000
00FC0000
01F80000
03F80000
07F00000
07E00000
0FC00000
1F800000
3F000000
7E000000
FE000000
FFFFFFF0
FFFFFFF0
FFFFFFF0
FFFFFFF0
ENDCHAR
STARTCHAR 017B
ENCODING 379
SWIDTH 616 0
DWIDTH 37 0
BBX 34 53 1 0
BITMAP
0003F80000
0003F80000
0003F80000
0003F80000
0003F80000
0003F80000
0003F80000
0000000000
0000000000
0000000000
3FFFFFFF80
3FFFFFFF80
3FFFFFFF80
3FFFFFFF80
3FFFFFFF80
0000003F80
0000007F00
000000FE00
000001FC00
000003F800
000003F800
000007F000
00000FE000
00001FC000
00003F8000
00003F8000
00007F0000
0000FE0000
0001FC0000
0003F80000
0003F00000
0007F00000
000FE00000
001FC00000
001F800000
003F000000
007F000000
00FE000000
01FC000000
01F8000000
03F0000000
07F0000000
0FE0000000
1FC0000000
1F80000000
3F00000000
7E00000000
FE00000000
FFFFFFFFC0
FFFFFFFFC0
FFFFFFFFC0
FFFFFFFFC0
FFFFFFFFC0
ENDCHAR
STARTCHAR 017C
ENCODING 380
SWIDTH 500 0
DWIDTH 30 0
BBX 28 42 1 0
BITMAP
003F8000
003F8000
003F8000
003F8000
003F8000
003F8000
003F8000
00000000
00000000
00000000
00000000
7FFFFFC0
7FFFFFC0
7FFFFFC0
7FFFFFC0
00001F80
00001F00
00003F00
00007E00
0000FC00
0001F800
0003F000
0007E000
000FE000
000FC000
001F8000
003F0000
007E0000
00FC0000
01F80000
03F80000
03F00000
07E00000
0FC00000
1F800000
3F000000
7E000000
FE000000
FFFFFFF0
FFFFFFF0
FFFFFFF0
FFFFFFF0
ENDCHAR
STARTCHAR 017D
ENCODING 381
SWIDTH 616 0
DWIDTH 37 0
BBX 34 54 1 0
BITMAP
00FC0FC000
007E1F8000
007E1F0000
003F3F0000
001FFE0000
000FFC0000
000FF80000
0007F00000
0003F00000
0000000000
0000000000
3FFFFFFF80
3FFFFFFF80
3FFFFFFF80
3FFFFFFF80
3FFFFFFF80
0000003F80
0000007F00
000000FE00
000001FC00
000003F800
000007F800
000007F000
00000FE000
00001FC000
00003F8000
00003F8000
00007F0000
0000FE0000
0001FC0000
0003F80000
0003F00000
0007F00000
000FE00000
001FC00000
003F800000
003F000000
007F000000
00FE000000
01FC000000
03F8000000
03F0000000
07F0000000
0FE0000000
1FC0000000
1F80000000
3F00000000
7E00000000
FE00000000
FFFFFFFFC0
FFFFFFFFC0
FFFFFFFFC0
FFFFFFFFC0
FFFFFFFFC0
ENDCHAR
STARTCHAR 017E
ENCODING 382
SWIDTH 500 0
DWIDTH 30 0
BBX 28 43 1 0
BITMAP
03E07E00
03F07C00
01F8F800
00F9F800
007DF000
007FE000
003FC000
001F8000
00000000
00000000
00000000
00000000
7FFFFFC0
7FFFFFC0
7FFFFFC0
7FFFFFC0
00001F80
00003F00
00007F00
00007E00
0000FC00
0001F800
0003F000
0007E000
000FE000
001FC000
001F8000
003F0000
007E0000
00FC0000
01F80000
03F80000
07F00000
07E00000
0FC00000
1F800000
3F000000
7E000000
FE000000
FFFFFFF0
FFFFFFF0
FFFFFFF0
FFFFFFF0
ENDCHAR
STARTCHAR 017F
ENCODING 383
SWIDTH 216 0
DWIDTH 13 0
BBX 14 43 4 1
BITMAP
0FFC
3FF8
7FF8
7FF8
FE00
FC00
FC00
F800
F800
F800
F800
F800
F800
F800
F800
F800
F800
F800
F800
F800
F800
F800
F800
F800
F800
F800
F800
F800
F800
F800
F800
F800
F800
F800
F800
F800
F800
F800
F800
F800
F800
F800
F800
ENDCHAR
STARTCHAR 018F
ENCODING 399
SWIDTH 750 0
DWIDTH 45 0
BBX 39 43 3 0
BITMAP
0007FFC000
003FFFF000
007FFFFC00
01FFFFFE00
03FFFFFF80
07FC007FC0
07F0001FC0
0FE00007E0
1FC00003F0
1F800001F0
1F000001F8
3F000000F8
07000000FC
00000000FC
000000007C
000000007E
000000007E
000000007E
FFFFFFFFFE
FFFFFFFFFE
FFFFFFFFFE
FFFFFFFFFE
FFFFFFFFFE
F80000007E
F80000007E
FC0000007E
FC0000007E
7C0000007C
7C000000FC
7C000000FC
7E000000FC
3E000001F8
3F000001F8
1F000003F0
1F800007F0
0FC00007E0
0FE0001FE0
07F0003FC0
03FE00FF80
01FFFFFF00
00FFFFFE00
003FFFF800
000FFFC000
ENDCHAR
STARTCHAR 0192
ENCODING 402
SWIDTH 550 0
DWIDTH 33 0
BBX 31 55 1 -12
BITMAP
00000FFE
00001FFE
00003FFC
00007FFC
00007E04
00007C00
0000FC00
0000FC00
0000F800
0000F800
0000F800
0000F800
007FFFE0
007FFFE0
007FFFC0
007FFFC0
0001F000
0001F000
0003F000
0003F000
0003E000
0003E000
0003E000
0003E000
0007E000
0007E000
0007C000
0007C000
0007C000
0007C000
000FC000
000F8000
000F8000
000F8000
000F8000
001F8000
001F8000
001F0000
001F0000
001F0000
001F0000
003F0000
003F0000
003E0000
003E0000
003E0000
003E0000
007E0000
007C0000
007C0000
00FC0000
7FFC0000
7FF80000
7FF00000
FFE00000
ENDCHAR
STARTCHAR 01A0
ENCODING 416
SWIDTH 850 0
DWIDTH 51 0
BBX 47 44 3 0
BITMAP
0003FFE0007E
001FFFFC007E
007FFFFE007E
00FFFFFF807E
01FF007FC07E
03F8001FE07E
07F00007F00E
0FC00003F80E
1FC00001FC0E
1F800000FC1C
3F0000007E1C
3F0000007E38
7E0000003FF0
7E0000003FE0
7C0000001F80
7C0000001F00
FC0000001F80
FC0000001F80
FC0000001F80
FC0000001F80
F80000000F80
F80000000F80
F80000000F80
F80000001F80
FC0000001F80
FC0000001F80
FC0000001F80
7C0000001F00
7C0000001F00
7E0000003F00
7E0000003F00
3E0000007E00
3F0000007E00
1F800000FC00
1FC00001FC00
0FE00003F800
07F00007F000
03F8000FE000
01FF007FC000
00FFFFFF8000
007FFFFF0000
001FFFFC0000
0003FFE00000
000008000000
ENDCHAR
STARTCHAR 01A1
ENCODING 417
SWIDTH 666 0
DWIDTH 40 0
BBX 36 33 2 -1
BITMAP
00020003F0
007FF003F0
01FFFC03F0
07FFFF03F0
0FFFFF83F0
1FE03FC3F0
3F800FC3F0
3F0007E070
7E0007F070
7E0003F0E0
7C0001F0E0
FC0001F9C0
FC0001FF80
FC0001FF00
FC0001FC00
F80000F800
F80000F800
F80000F800
F80001F800
FC0001F800
FC0001F800
FC0001F000
7C0001F000
7E0003F000
7E0007F000
3F0007E000
1F800FC000
1FE03FC000
0FFFFF8000
07FFFF0000
01FFFC0000
007FF00000
0002000000
ENDCHAR
STARTCHAR 01AF
ENCODING 431
SWIDTH 850 0
DWIDTH 51 0
BBX 44 43 5 -1
BITMAP
F800000F83F0
F800000F83F0
F800000F83F0
F800000F83F0
F800000F83F0
F800000F83F0
F800000F8070
F800000F8070
F800000F8070
F800000F8070
F800000F80E0
F800000F80E0
F800000F81C0
F800000F8780
F800000FFF00
F800000FFC00
F800000F8000
F800000F8000
F800000F8000
F800000F8000
F800000F8000
F800000F8000
F800000F8000
F800000F8000
F800000F8000
F800000F8000
F800000F8000
F800000F8000
FC00000F8000
FC00000F8000
FC00001F8000
7C00001F8000
7C00001F8000
7E00001F0000
7E00003F0000
3F00007F0000
3F8000FE0000
1FE001FE0000
1FFFFFFC0000
0FFFFFF80000
07FFFFF00000
01FFFFC00000
007FFF000000
ENDCHAR
STARTCHAR 01B0
ENCODING 432
SWIDTH 683 0
DWIDTH 41 0
BBX 35 31 4 -1
BITMAP
F8000F87E0
F8000F87E0
F8000F87E0
F8000F87E0
F8000F87E0
F8000F87E0
F8000F80E0
F8000F80E0
F8000F80E0
F8000F80C0
F8000F81C0
F8000F81C0
F8000F8780
F8000F8F00
F8000FFE00
F8000FF800
F8000F8000
F8000F8000
F8000F8000
F8000F8000
F8000F8000
FC001F8000
FC001F8000
FC001F8000
FC003F8000
7E007F8000
7F81FF8000
3FFFFF8000
3FFFEF8000
0FFF8F8000
03FF0F8000
ENDCHAR
STARTCHAR 01CD
ENCODING 461
SWIDTH 666 0
DWIDTH 40 0
BBX 40 54 0 0
BITMAP
001F83F000
001F83F000
000FC7E000
0007E7C000
0003EF8000
0003FF8000
0001FF0000
0000FE0000
00007C0000
0000000000
0000000000
0000FE0000
0000FE0000
0001FF0000
0001FF0000
0001FF0000
0003EF8000
0003EF8000
0003EFC000
0007C7C000
0007C7C000
000FC7E000
000F83E000
000F83F000
001F83F000
001F01F000
003F01F800
003F01F800
003E00FC00
007E00FC00
007E007E00
007C007E00
00FC007E00
00F8003F00
01F8003F00
01F8003F80
01F0001F80
03FFFFFF80
03FFFFFFC0
07FFFFFFC0
07FFFFFFE0
07E00007E0
0FC00007E0
0FC00003F0
0F800003F0
1F800003F8
1F800001F8
3F000001F8
3F000000FC
3F000000FC
7E000000FE
7E0000007E
FE0000007E
FC0000007F
ENDCHAR
STARTCHAR 01CE
ENCODING 462
SWIDTH 550 0
DWIDTH 33 0
BBX 28 43 2 -1
BITMAP
03F03F00
01F83F00
00FC7E00
007CFC00
007EF800
003FF000
001FE000
000FE000
00000000
00000000
00000000
00000000
00FFFC00
03FFFF00
0FFFFF80
1FFFFFC0
1FC03FC0
3F000FC0
3E0007E0
7E0007E0
7C0007E0
040003E0
000003E0
000007E0
00007FE0
003FFFE0
03FFFFE0
0FFFFBE0
1FFF83E0
3FE003E0
7F0003E0
7E0007E0
FC0007E0
FC0007E0
F80007E0
FC000FE0
FC001FE0
FE003FE0
7F00FFE0
7FFFFBE0
3FFFF3F0
1FFFC1F0
07FF01F0
ENDCHAR
STARTCHAR 01CF
ENCODING 463
SWIDTH 283 0
DWIDTH 17 0
BBX 17 54 0 0
BITMAP
FC0F80
7C1F80
7E3F00
3F3E00
1F7C00
0FFC00
0FF800
07F000
03E000
000000
000000
03E000
03E000
03E000
03E000
03E000
03E000
03E000
03E000
03E000
03E000
03E000
03E000
03E000
03E000
03E000
03E000
03E000
03E000
03E000
03E000
03E000
03E000
03E000
03E000
03E000
03E000
03E000
03E000
03E000
03E000
03E000
03E000
03E000
03E000
03E000
03E000
03E000
03E000
03E000
03E000
03E000
03E000
03E000
ENDCHAR
STARTCHAR 01D0
ENCODING 464
SWIDTH 216 0
DWIDTH 13 0
BBX 18 43 -2 0
BITMAP
FC0FC0
7E1F80
3E1F00
3F3F00
1FFE00
0FFC00
07F800
07F000
000000
000000
000000
000000
03E000
03E000
03E000
03E000
03E000
03E000
03E000
03E000
03E000
03E000
03E000
03E000
03E000
03E000
03E000
03E000
03E000
03E000
03E000
03E000
03E000
03E000
03E000
03E000
03E000
03E000
03E000
03E000
03E000
03E000
03E000
ENDCHAR
STARTCHAR 01D1
ENCODING 465
SWIDTH 783 0
DWIDTH 47 0
BBX 41 55 3 -1
BITMAP
000FC0FC0000
000FC1F80000
0007E3F00000
0003F3E00000
0001FFC00000
0000FFC00000
0000FF800000
00007F000000
000000000000
000000000000
000000000000
0003FFE00000
001FFFFC0000
007FFFFF0000
00FFFFFF8000
01FF007FC000
03FC001FE000
07F00007F000
0FE00003F800
1F800001FC00
1F800000FC00
3F0000007E00
3E0000007E00
7E0000003E00
7E0000003F00
7C0000001F00
7C0000001F00
FC0000001F80
FC0000001F80
FC0000001F80
FC0000001F80
F80000000F80
F80000000F80
F80000000F80
F80000001F80
FC0000001F80
FC0000001F80
FC0000001F80
7C0000001F00
7C0000001F00
7E0000003F00
7E0000003F00
3E0000007E00
3F0000007E00
1F800000FC00
1FC00001FC00
0FE00003F800
07F00007F000
03F8001FE000
01FF007FC000
00FFFFFF8000
003FFFFF0000
001FFFFC0000
0003FFE00000
000008000000
ENDCHAR
STARTCHAR 01D2
ENCODING 466
SWIDTH 550 0
DWIDTH 33 0
BBX 29 44 2 -1
BITMAP
03F07E00
03F07E00
01F8FC00
00FCF800
007DF000
003FE000
003FE000
001FC000
00000000
00000000
00000000
00020000
007FF000
01FFFC00
07FFFF00
0FFFFF80
1FE03FC0
3F800FC0
3F0007E0
7E0003F0
7E0003F0
7C0001F0
FC0001F8
FC0001F8
FC0001F8
FC0001F8
F80000F8
F80000F8
F80000F8
F80001F8
FC0001F8
FC0001F8
FC0001F8
7C0001F0
7E0003F0
7E0003F0
3F0007E0
3F800FE0
1FE03FC0
0FFFFF80
07FFFF00
01FFFC00
007FF000
00020000
ENDCHAR
STARTCHAR 01D3
ENCODING 467
SWIDTH 716 0
DWIDTH 43 0
BBX 33 54 5 -1
BITMAP
00FC0FC000
007E0F8000
003F1F8000
001F3F0000
000FBE0000
000FFC0000
0007F80000
0003F00000
0000000000
0000000000
0000000000
F800000F80
F800000F80
F800000F80
F800000F80
F800000F80
F800000F80
F800000F80
F800000F80
F800000F80
F800000F80
F800000F80
F800000F80
F800000F80
F800000F80
F800000F80
F800000F80
F800000F80
F800000F80
F800000F80
F800000F80
F800000F80
F800000F80
F800000F80
F800000F80
F800000F80
F800000F80
F800000F80
F800000F80
FC00000F80
FC00000F80
FC00000F80
7C00001F80
7C00001F80
7E00001F00
7E00003F00
3F00007F00
3F8000FE00
1FE001FE00
1FFFFFFC00
0FFFFFF800
03FFFFF000
01FFFFC000
003FFF0000
ENDCHAR
STARTCHAR 01D4
ENCODING 468
SWIDTH 566 0
DWIDTH 34 0
BBX 25 43 4 -1
BITMAP
0FC0FC00
07E1F800
03F1F000
01F3F000
01FFE000
00FFC000
007F8000
003F0000
00000000
00000000
00000000
00000000
F8000F80
F8000F80
F8000F80
F8000F80
F8000F80
F8000F80
F8000F80
F8000F80
F8000F80
F8000F80
F8000F80
F8000F80
F8000F80
F8000F80
F8000F80
F8000F80
F8000F80
F8000F80
F8000F80
F8000F80
F8000F80
FC001F80
FC001F80
FC001F80
FC003F80
7E007F80
7F81F780
3FFFF780
3FFFE780
0FFF8780
03FF0780
ENDCHAR
STARTCHAR 01D5
ENCODING 469
SWIDTH 716 0
DWIDTH 43 0
BBX 33 54 5 -1
BITMAP
003FFF8000
003FFF8000
003FFF8000
0000000000
0000000000
0000000000
003C078000
003C078000
003C078000
003C078000
0000000000
F800000F80
F800000F80
F800000F80
F800000F80
F800000F80
F800000F80
F800000F80
F800000F80
F800000F80
F800000F80
F800000F80
F800000F80
F800000F80
F800000F80
F800000F80
F800000F80
F800000F80
F800000F80
F800000F80
F800000F80
F800000F80
F800000F80
F800000F80
F800000F80
F800000F80
F800000F80
F800000F80
F800000F80
FC00000F80
FC00000F80
FC00000F80
7C00001F80
7C00001F80
7E00001F00
7E00003F00
3F00007F00
3F8000FE00
1FE001FE00
1FFFFFFC00
0FFFFFF800
03FFFFF000
01FFFFC000
003FFF0000
ENDCHAR
STARTCHAR 01D6
ENCODING 470
SWIDTH 566 0
DWIDTH 34 0
BBX 25 51 4 0
BITMAP
0FFFFC00
0FFFFC00
0FFFFC00
0FFFFC00
00000000
00000000
00000000
00000000
07C0F800
07C0F800
07C0F800
07C0F800
07C0F800
07C0F800
00000000
00000000
00000000
00000000
00000000
00000000
F8000F80
F8000F80
F8000F80
F8000F80
F8000F80
F8000F80
F8000F80
F8000F80
F8000F80
F8000F80
F8000F80
F8000F80
F8000F80
F8000F80
F8000F80
F8000F80
F8000F80
F8000F80
F8000F80
F8000F80
F8000F80
FC001F80
FC001F80
FC001F80
FC003F80
7E007F80
7F81F780
3FFFF780
3FFFE780
0FFF8780
03FF0780
ENDCHAR
STARTCHAR 01D7
ENCODING 471
SWIDTH 716 0
DWIDTH 43 0
BBX 33 55 5 -1
BITMAP
00003F8000
00007F0000
00007C0000
0000F80000
0001E00000
0003C00000
0000000000
003C078000
003C078000
003C078000
003C078000
0000000000
F800000F80
F800000F80
F800000F80
F800000F80
F800000F80
F800000F80
F800000F80
F800000F80
F800000F80
F800000F80
F800000F80
F800000F80
F800000F80
F800000F80
F800000F80
F800000F80
F800000F80
F800000F80
F800000F80
F800000F80
F800000F80
F800000F80
F800000F80
F800000F80
F800000F80
F800000F80
F800000F80
F800000F80
FC00000F80
FC00000F80
FC00000F80
7C00001F80
7C00001F80
7E00001F00
7E00003F00
3F00007F00
3F8000FE00
1FE001FE00
1FFFFFFC00
0FFFFFF800
03FFFFF000
01FFFFC000
003FFF0000
ENDCHAR
STARTCHAR 01D8
ENCODING 472
SWIDTH 566 0
DWIDTH 34 0
BBX 25 55 4 -1
BITMAP
0003F000
0007F000
0007E000
000FC000
000F8000
001F0000
001F0000
003E0000
003C0000
00000000
00000000
00000000
07C0F800
07C0F800
07C0F800
07C0F800
07C0F800
07C0F800
00000000
00000000
00000000
00000000
00000000
00000000
F8000F80
F8000F80
F8000F80
F8000F80
F8000F80
F8000F80
F8000F80
F8000F80
F8000F80
F8000F80
F8000F80
F8000F80
F8000F80
F8000F80
F8000F80
F8000F80
F8000F80
F8000F80
F8000F80
F8000F80
F8000F80
FC001F80
FC001F80
FC001F80
FC003F80
7E007F80
7F81F780
3FFFF780
3FFFE780
0FFF8780
03FF0780
ENDCHAR
STARTCHAR 01D9
ENCODING 473
SWIDTH 716 0
DWIDTH 43 0
BBX 33 55 5 -1
BITMAP
001E0F0000
000F1E0000
0007BC0000
0003F80000
0001F00000
0001E00000
0000000000
003C078000
003C078000
003C078000
003C078000
0000000000
F800000F80
F800000F80
F800000F80
F800000F80
F800000F80
F800000F80
F800000F80
F800000F80
F800000F80
F800000F80
F800000F80
F800000F80
F800000F80
F800000F80
F800000F80
F800000F80
F800000F80
F800000F80
F800000F80
F800000F80
F800000F80
F800000F80
F800000F80
F800000F80
F800000F80
F800000F80
F800000F80
F800000F80
FC00000F80
FC00000F80
FC00000F80
7C00001F80
7C00001F80
7E00001F00
7E00003F00
3F00007F00
3F8000FE00
1FE001FE00
1FFFFFFC00
0FFFFFF800
03FFFFF000
01FFFFC000
003FFF0000
ENDCHAR
STARTCHAR 01DA
ENCODING 474
SWIDTH 566 0
DWIDTH 34 0
BBX 25 55 4 -1
BITMAP
0FC07E00
07E0FC00
03E1F800
03F1F000
01FBE000
00FFC000
007FC000
007F8000
003F0000
00000000
00000000
00000000
07C0F800
07C0F800
07C0F800
07C0F800
07C0F800
07C0F800
00000000
00000000
00000000
00000000
00000000
00000000
F8000F80
F8000F80
F8000F80
F8000F80
F8000F80
F8000F80
F8000F80
F8000F80
F8000F80
F8000F80
F8000F80
F8000F80
F8000F80
F8000F80
F8000F80
F8000F80
F8000F80
F8000F80
F8000F80
F8000F80
F8000F80
FC001F80
FC001F80
FC001F80
FC003F80
7E007F80
7F81F780
3FFFF780
3FFFE780
0FFF8780
03FF0780
ENDCHAR
STARTCHAR 01DB
ENCODING 475
SWIDTH 716 0
DWIDTH 43 0
BBX 33 55 5 -1
BITMAP
003F800000
001FC00000
0007C00000
0003E00000
0000F00000
0000780000
0000000000
003C078000
003C078000
003C078000
003C078000
0000000000
F800000F80
F800000F80
F800000F80
F800000F80
F800000F80
F800000F80
F800000F80
F800000F80
F800000F80
F800000F80
F800000F80
F800000F80
F800000F80
F800000F80
F800000F80
F800000F80
F800000F80
F800000F80
F800000F80
F800000F80
F800000F80
F800000F80
F800000F80
F800000F80
F800000F80
F800000F80
F800000F80
F800000F80
FC00000F80
FC00000F80
FC00000F80
7C00001F80
7C00001F80
7E00001F00
7E00003F00
3F00007F00
3F8000FE00
1FE001FE00
1FFFFFFC00
0FFFFFF800
03FFFFF000
01FFFFC000
003FFF0000
ENDCHAR
STARTCHAR 01DC
ENCODING 476
SWIDTH 566 0
DWIDTH 34 0
BBX 25 55 4 -1
BITMAP
07F00000
03F00000
01F80000
01FC0000
00FC0000
007E0000
003E0000
001F0000
000F0000
00000000
00000000
00000000
07C0F800
07C0F800
07C0F800
07C0F800
07C0F800
07C0F800
00000000
00000000
00000000
00000000
00000000
00000000
F8000F80
F8000F80
F8000F80
F8000F80
F8000F80
F8000F80
F8000F80
F8000F80
F8000F80
F8000F80
F8000F80
F8000F80
F8000F80
F8000F80
F8000F80
F8000F80
F8000F80
F8000F80
F8000F80
F8000F80
F8000F80
FC001F80
FC001F80
FC001F80
FC003F80
7E007F80
7F81F780
3FFFF780
3FFFE780
0FFF8780
03FF0780
ENDCHAR
STARTCHAR 01FA
ENCODING 506
SWIDTH 650 0
DWIDTH 39 0
BBX 39 62 0 0
BITMAP
00000FC000
00001FC000
00001F8000
00003F0000
00003E0000
00007C0000
00007C0000
0000F80000
0000000000
0000000000
0000780000
0001FE0000
0001C60000
0003830000
0003030000
0003030000
0003030000
0003870000
0001FE0000
0000FC0000
0000FE0000
0001FE0000
0001FE0000
0003FF0000
0003FF0000
0003FF8000
0007CF8000
0007CF8000
0007CFC000
000FC7C000
000F87E000
001F87E000
001F83F000
001F03F000
003F01F000
003F01F800
003E01F800
007E00FC00
007C00FC00
00FC00FC00
00FC007E00
00F8007E00
01F8003F00
01F8003F00
03F0003F00
03FFFFFF80
03FFFFFF80
07FFFFFFC0
07FFFFFFC0
07C0000FC0
0FC00007E0
0FC00007E0
1F800007F0
1F800003F0
1F800003F8
3F000001F8
3F000001F8
3F000001FC
7E000000FC
7E000000FE
FC0000007E
FC0000007E
ENDCHAR
STARTCHAR 01FB
ENCODING 507
SWIDTH 550 0
DWIDTH 33 0
BBX 28 57 2 -1
BITMAP
0000FE00
0000FC00
0001F800
0001F000
0003F000
0003E000
0007C000
000F8000
00000000
00000000
00000000
00000000
000F8000
001FC000
0038E000
00707000
00603000
00603000
00603000
00707000
0038E000
001FC000
000F8000
00000000
00000000
00000000
00FFFC00
03FFFF00
0FFFFF80
1FFFFFC0
1FC03FC0
3F000FC0
3E0007E0
7E0007E0
7C0007E0
040003E0
000003E0
000007E0
00007FE0
003FFFE0
03FFFFE0
0FFFFBE0
1FFF83E0
3FE003E0
7F0003E0
7E0007E0
FC0007E0
FC0007E0
F80007E0
FC000FE0
FC001FE0
FE003FE0
7F00FFE0
7FFFFBE0
3FFFF3F0
1FFFC1F0
07FF01F0
ENDCHAR
STARTCHAR 01FC
ENCODING 508
SWIDTH 1000 0
DWIDTH 60 0
BBX 56 54 1 0
BITMAP
00000007E00000
0000000FE00000
0000000FC00000
0000001F800000
0000001F000000
0000003E000000
0000003E000000
0000007C000000
00000000000000
00000000000000
00000000000000
00000FFFFFFFFF
00001FFFFFFFFF
00001FFFFFFFFF
00003FFFFFFFFF
00003FFFFFFFFF
00007F0F800000
00007E0F800000
0000FE0F800000
0000FC0F800000
0001FC0F800000
0001F80F800000
0001F80F800000
0003F00F800000
0003F00F800000
0007E00F800000
0007E00F800000
000FC00F800000
000FC00F800000
001F800FFFFFFC
001F800FFFFFFC
003F000FFFFFFC
003F000FFFFFFC
007E000FFFFFFC
007E000F800000
00FC000F800000
00FFFFFF800000
01FFFFFF800000
01FFFFFF800000
03FFFFFF800000
03FFFFFF800000
07E0000F800000
07E0000F800000
0FC0000F800000
0FC0000F800000
1F80000F800000
1F80000F800000
1F80000F800000
3F00000F800000
3F00000FFFFFFF
7E00000FFFFFFF
7E00000FFFFFFF
FC00000FFFFFFF
FC00000FFFFFFF
ENDCHAR
STARTCHAR 01FD
ENCODING 509
SWIDTH 883 0
DWIDTH 53 0
BBX 49 43 2 -1
BITMAP
0000003F800000
0000007F000000
0000007E000000
000000FC000000
000000F8000000
000001F8000000
000001F0000000
000003E0000000
00000000000000
00000000000000
00000000000000
00000000000000
00FFF807FF8000
03FFFE0FFFE000
0FFFFF3FFFF000
1FFFFFFFFFF800
1FC03FFE01FC00
3F000FF800FE00
3E000FF0003E00
7C0007F0003F00
7C0007E0001F00
000007E0001F00
000007E0001F00
00001FC0001F80
0003FFFFFFFF80
00FFFFFFFFFF80
07FFFFFFFFFF80
0FFFE7FFFFFF80
3FFE07C0000000
3FC007C0000000
7E0007C0000000
7C0007E0000000
FC0007E0001000
F8000FE0001F80
F8000FE0001F00
FC001FF0003F00
FC001FF8007F00
FE007FFC00FE00
7F01FEFF01FC00
3FFFF87FFFF800
3FFFF03FFFF000
1FFFC01FFFE000
07FF0007FF8000
ENDCHAR
STARTCHAR 01FE
ENCODING 510
SWIDTH 783 0
DWIDTH 47 0
BBX 41 56 3 -2
BITMAP
000007F00000
000007E00000
00000FE00000
00000FC00000
00001F800000
00001F000000
00003E000000
00003E000000
00007C000000
000000000000
000000000000
000000000300
0003FFF00780
001FFFFC0F80
003FFFFF1F00
00FFFFFFFE00
01FF007FFC00
03F8001FFC00
07F00007F800
0FE00003F800
0FC00003FC00
1F800007FC00
3F00000FFE00
3E00001F7E00
3E00003E3F00
7E00007E3F00
7C0000FC1F00
7C0001F81F00
FC0001F01F80
FC0003E01F80
FC0007C01F80
F8000F801F80
F8001F000F80
F8003E000F80
F8007C000F80
F800FC001F80
FC01F8001F80
FC03F0001F80
FC03E0001F80
FC07C0001F00
7C0F80001F00
7E1F00003F00
7E3E00003E00
3F7C00007E00
3FF800007E00
1FF80000FC00
1FF00001FC00
0FE00003F800
0FF00007F000
0FF8001FE000
1FFF007FC000
3FFFFFFF8000
7C7FFFFE0000
F81FFFFC0000
F007FFE00000
600000000000
ENDCHAR
STARTCHAR 01FF
ENCODING 511
SWIDTH 616 0
DWIDTH 37 0
BBX 29 45 4 -3
BITMAP
0001FC00
0001F800
0003F800
0003F000
0007E000
0007C000
00078000
000F8000
00000000
00000000
00000000
00000070
007FF0F8
01FFFDF0
07FFFFE0
0FFFFFC0
1FE03FC0
3F800FC0
3F000FE0
7E001FE0
7E003FF0
7C007DF0
FC00F9F0
FC00F1F8
FC01E1F8
FC03C1F8
F807C0F8
F80780F8
F80F00F8
FC1E01F8
FC3E01F8
FC7C01F8
FC7801F8
7CF001F0
7FE003F0
7FE007F0
3FC007E0
1F800FE0
1FE03FC0
1FFFFF80
3FFFFF00
3DFFFC00
787FF000
78000000
30000000
ENDCHAR
STARTCHAR 0259
ENCODING 601
SWIDTH 550 0
DWIDTH 33 0
BBX 28 31 2 0
BITMAP
00FFF000
03FFFC00
0FFFFE00
1FFFFF00
3FC07F80
3F801FC0
7F000FE0
7E0007E0
FC0003E0
1C0003F0
000001F0
000001F0
000001F0
000001F0
FFFFFFF0
FFFFFFF0
FFFFFFF0
FFFFFFF0
FC0001F0
FC0001F0
7C0003F0
7C0003F0
7E0003E0
3E0007E0
3F000FC0
1F801FC0
1FE03F80
0FFFFF00
07FFFE00
01FFFC00
00FFF000
ENDCHAR
STARTCHAR 02C6
ENCODING 710
SWIDTH 333 0
DWIDTH 20 0
BBX 18 8 1 35
BITMAP
03F000
07F800
0FFC00
1FFE00
3F3E00
3E1F00
7E1F80
FC0FC0
ENDCHAR
STARTCHAR 02C7
ENCODING 711
SWIDTH 333 0
DWIDTH 20 0
BBX 17 8 2 35
BITMAP
FC1F80
FC1F80
7E3F00
3F7E00
1F7C00
0FF800
0FF000
07F000
ENDCHAR
STARTCHAR 02C9
ENCODING 713
SWIDTH 333 0
DWIDTH 20 0
BBX 18 4 1 37
BITMAP
FFFFC0
FFFFC0
FFFFC0
FFFFC0
ENDCHAR
STARTCHAR 02D8
ENCODING 728
SWIDTH 333 0
DWIDTH 20 0
BBX 18 8 1 35
BITMAP
F003C0
700380
780780
7C0F80
3FFF00
1FFE00
0FFC00
03F000
ENDCHAR
STARTCHAR 02D9
ENCODING 729
SWIDTH 350 0
DWIDTH 21 0
BBX 7 7 7 35
BITMAP
FE
FE
FE
FE
FE
FE
FE
ENDCHAR
STARTCHAR 02DA
ENCODING 730
SWIDTH 333 0
DWIDTH 20 0
BBX 10 11 5 34
BITMAP
1E00
3F00
7380
E1C0
C0C0
C0C0
C0C0
E1C0
7380
3F80
1E00
ENDCHAR
STARTCHAR 02DB
ENCODING 731
SWIDTH 333 0
DWIDTH 20 0
BBX 13 13 5 -13
BITMAP
7800
7800
7000
F000
F000
F000
F000
F800
FC18
FFF8
7FF8
3FF8
1FE0
ENDCHAR
STARTCHAR 02DC
ENCODING 732
SWIDTH 350 0
DWIDTH 21 0
BBX 19 7 1 36
BITMAP
0F00E0
3FE1E0
7FFBE0
7FFFE0
FDFFC0
F07FC0
F00F00
ENDCHAR
STARTCHAR 02DD
ENCODING 733
SWIDTH 333 0
DWIDTH 20 0
BBX 20 8 2 35
BITMAP
1FC7F0
1F87E0
3F0FC0
3E0FC0
7E1F80
7C1F00
F81E00
F03E00
ENDCHAR
STARTCHAR 0300
ENCODING 768
SWIDTH 0 0
DWIDTH 0 0
BBX 10 8 -15 46
BITMAP
FE00
7E00
7F00
3F00
1F80
0F80
07C0
03C0
ENDCHAR
STARTCHAR 0301
ENCODING 769
SWIDTH 0 0
DWIDTH 0 0
BBX 10 8 -11 46
BITMAP
0FC0
1FC0
1F80
3F00
3E00
7C00
7800
F800
ENDCHAR
STARTCHAR 0303
ENCODING 771
SWIDTH 0 0
DWIDTH 0 0
BBX 19 7 -27 46
BITMAP
0F00E0
3FE1E0
7FFBE0
7FFFE0
F9FFE0
F07FC0
F00F80
ENDCHAR
STARTCHAR 0309
ENCODING 777
SWIDTH 0 0
DWIDTH 0 0
BBX 13 10 -14 44
BITMAP
FF00
FFE0
FFF0
03F8
00F8
01F8
0FF0
0FC0
0E00
0E00
ENDCHAR
STARTCHAR 0323
ENCODING 803
SWIDTH 0 0
DWIDTH 0 0
BBX 5 6 -23 -10
BITMAP
F8
F8
F8
F8
F8
F8
ENDCHAR
STARTCHAR 037E
ENCODING 894
SWIDTH 266 0
DWIDTH 16 0
BBX 6 39 5 -9
BITMAP
FC
FC
FC
FC
FC
FC
00
00
00
00
00
00
00
00
00
00
00
00
00
00
00
00
00
00
00
FC
FC
FC
FC
FC
FC
1C
1C
1C
3C
38
78
F0
E0
ENDCHAR
STARTCHAR 0384
ENCODING 900
SWIDTH 333 0
DWIDTH 20 0
BBX 10 8 7 35
BITMAP
1FC0
1F80
3F00
3F00
7E00
7C00
F800
F000
ENDCHAR
STARTCHAR 0385
ENCODING 901
SWIDTH 333 0
DWIDTH 20 0
BBX 21 8 -1 36
BITMAP
001F00
003E00
F83CF8
F87CF8
F878F8
F8F0F8
F8F0F8
F9E0F8
ENDCHAR
STARTCHAR 0386
ENCODING 902
SWIDTH 666 0
DWIDTH 40 0
BBX 40 43 0 0
BITMAP
07F0FE0000
07E0FE0000
0FC1FF0000
0FC1FF0000
1F81FF0000
1F03EF8000
3E03EF8000
3C03EFC000
0007C7C000
0007C7C000
000FC7E000
000FC3E000
000F83F000
001F83F000
001F01F800
001F01F800
003F00F800
003E00FC00
007E00FC00
007E007E00
007C007E00
00FC007E00
00FC003F00
01F8003F00
01F8001F80
01F0001F80
03FFFFFF80
03FFFFFFC0
03FFFFFFC0
07FFFFFFE0
07E00007E0
0FC00007E0
0FC00003F0
0F800003F0
1F800003F8
1F800001F8
3F000001FC
3F000000FC
3F000000FC
7E000000FE
7E0000007E
7E0000007F
FC0000007F
ENDCHAR
STARTCHAR 0387
ENCODING 903
SWIDTH 266 0
DWIDTH 16 0
BBX 5 6 5 25
BITMAP
F8
F8
F8
F8
F8
F8
ENDCHAR
STARTCHAR 0388
ENCODING 904
SWIDTH 783 0
DWIDTH 47 0
BBX 46 43 -2 0
BITMAP
1FC3FFFFFFF8
1F83FFFFFFF8
3F03FFFFFFF8
3F03FFFFFFF8
7E03FFFFFFF8
7C03E0000000
F803E0000000
F003E0000000
0003E0000000
0003E0000000
0003E0000000
0003E0000000
0003E0000000
0003E0000000
0003E0000000
0003E0000000
0003E0000000
0003E0000000
0003FFFFFFF0
0003FFFFFFF0
0003FFFFFFF0
0003FFFFFFF0
0003FFFFFFF0
0003E0000000
0003E0000000
0003E0000000
0003E0000000
0003E0000000
0003E0000000
0003E0000000
0003E0000000
0003E0000000
0003E0000000
0003E0000000
0003E0000000
0003E0000000
0003E0000000
0003E0000000
0003FFFFFFFC
0003FFFFFFFC
0003FFFFFFFC
0003FFFFFFFC
0003FFFFFFFC
ENDCHAR
STARTCHAR 0389
ENCODING 905
SWIDTH 833 0
DWIDTH 50 0
BBX 46 43 -2 0
BITMAP
1FC7C000007C
1F87C000007C
1F87C000007C
3F07C000007C
3E07C000007C
7C07C000007C
7807C000007C
F807C000007C
0007C000007C
0007C000007C
0007C000007C
0007C000007C
0007C000007C
0007C000007C
0007C000007C
0007C000007C
0007C000007C
0007C000007C
0007FFFFFFFC
0007FFFFFFFC
0007FFFFFFFC
0007FFFFFFFC
0007FFFFFFFC
0007C000007C
0007C000007C
0007C000007C
0007C000007C
0007C000007C
0007C000007C
0007C000007C
0007C000007C
0007C000007C
0007C000007C
0007C000007C
0007C000007C
0007C000007C
0007C000007C
0007C000007C
0007C000007C
0007C000007C
0007C000007C
0007C000007C
0007C000007C
ENDCHAR
STARTCHAR 038A
ENCODING 906
SWIDTH 383 0
DWIDTH 23 0
BBX 18 43 -2 0
BITMAP
1FC7C0
1F87C0
1F87C0
3F07C0
3E07C0
7C07C0
7807C0
F807C0
0007C0
0007C0
0007C0
0007C0
0007C0
0007C0
0007C0
0007C0
0007C0
0007C0
0007C0
0007C0
0007C0
0007C0
0007C0
0007C0
0007C0
0007C0
0007C0
0007C0
0007C0
0007C0
0007C0
0007C0
0007C0
0007C0
0007C0
0007C0
0007C0
0007C0
0007C0
0007C0
0007C0
0007C0
0007C0
ENDCHAR
STARTCHAR 038C
ENCODING 908
SWIDTH 783 0
DWIDTH 47 0
BBX 46 44 -2 0
BITMAP
1FC01FFF0000
1F80FFFFE000
3F03FFFFF800
3F07FFFFFC00
7E0FF803FE00
7C1FC000FF00
783F80003F80
F87F00001FC0
00FE00000FE0
00FC000007E0
01F8000003F0
01F0000003F0
03F0000001F8
03F0000001F8
03E0000000F8
03E0000000F8
07E0000000FC
07E0000000FC
07E0000000FC
07E0000000FC
07C00000007C
07C00000007C
07C00000007C
07C0000000FC
07E0000000FC
07E0000000FC
07E0000000FC
03E0000000F8
03E0000000F8
03F0000001F8
03F0000001F8
01F8000003F0
01F8000003F0
00FC000007E0
00FE00000FE0
007F00001FC0
003F80003F80
001FC0007F00
000FF803FE00
0007FFFFFC00
0003FFFFF800
0000FFFFE000
00001FFF0000
000000400000
ENDCHAR
STARTCHAR 038E
ENCODING 910
SWIDTH 850 0
DWIDTH 51 0
BBX 52 43 -2 0
BITMAP
1FC3F8000003F0
1F83F8000007F0
3F81FC00000FE0
3F00FE00000FC0
7E00FE00001F80
7C007F00003F80
F8003F80003F00
F0003F80007E00
00001FC000FE00
00000FE000FC00
000007E001F800
000007F003F800
000003F003F000
000001F807E000
000001FC0FE000
000000FC0FC000
0000007E1F8000
0000007F1F0000
0000003F3F0000
0000001FFE0000
0000001FFC0000
0000000FFC0000
00000007F80000
00000007F00000
00000003F00000
00000003E00000
00000003E00000
00000003E00000
00000003E00000
00000003E00000
00000003E00000
00000003E00000
00000003E00000
00000003E00000
00000003E00000
00000003E00000
00000003E00000
00000003E00000
00000003E00000
00000003E00000
00000003E00000
00000003E00000
00000003E00000
ENDCHAR
STARTCHAR 038F
ENCODING 911
SWIDTH 750 0
DWIDTH 45 0
BBX 45 43 -3 1
BITMAP
0FC01FFF0000
1FC07FFFE000
1F81FFFFF000
3F03FFFFF800
3E0FF803FE00
7E0FE000FE00
7C1FC0007F00
F83F80003F80
007F00001FC0
007E00000FC0
00FC000007E0
00FC000007E0
00F8000003E0
01F8000003F0
01F8000003F0
01F0000003F0
01F0000001F0
01F0000001F0
01F0000001F0
01F0000001F0
01F0000001F0
01F0000001F0
01F0000001F0
01F0000001F0
01F0000001F0
01F8000001F0
01F8000003F0
00F8000003E0
00F8000003E0
007C000007C0
007C000007C0
003E00000F80
003F00000F80
001F00001F00
000F80003E00
0007C0007C00
0003F001F800
0001F803F000
03FFFE0FFFF8
03FFFE0FFFF8
03FFFE0FFFF8
03FFFE0FFFF8
03FFFE0FFFF8
ENDCHAR
STARTCHAR 0390
ENCODING 912
SWIDTH 233 0
DWIDTH 14 0
BBX 21 45 -4 0
BITMAP
001F00
003E00
003E00
F83CF8
F878F8
F878F8
F8F0F8
F8E0F8
F9E0F8
000000
000000
000000
000000
000000
00F800
00F800
00F800
00F800
00F800
00F800
00F800
00F800
00F800
00F800
00F800
00F800
00F800
00F800
00F800
00F800
00F800
00F800
00F800
00F800
00F800
00F800
00F800
00F800
00F800
00F800
00F800
00F800
00F800
00F800
00F800
ENDCHAR
STARTCHAR 0391
ENCODING 913
SWIDTH 666 0
DWIDTH 40 0
BBX 40 43 0 0
BITMAP
0000FE0000
0000FE0000
0001FF0000
0001FF0000
0001FF0000
0003EF8000
0003EF8000
0003EFC000
0007C7C000
0007C7C000
000FC7E000
000F83E000
000F83F000
001F83F000
001F01F000
003F01F800
003F01F800
003E00FC00
007E00FC00
007E007E00
007C007E00
00FC007E00
00F8003F00
01F8003F00
01F8003F80
01F0001F80
03FFFFFF80
03FFFFFFC0
07FFFFFFC0
07FFFFFFE0
07E00007E0
0FC00007E0
0FC00003F0
0F800003F0
1F800003F8
1F800001F8
3F000001F8
3F000000FC
3F000000FC
7E000000FE
7E0000007E
FE0000007E
FC0000007F
ENDCHAR
STARTCHAR 0392
ENCODING 914
SWIDTH 650 0
DWIDTH 39 0
BBX 32 43 4 0
BITMAP
FFFFF800
FFFFFF00
FFFFFFC0
FFFFFFE0
FFFFFFF0
F8000FF8
F80001F8
F80000FC
F80000FC
F800007C
F800007C
F800007C
F800007C
F800007C
F80000FC
F80000F8
F80001F8
F80007F0
FFFFFFE0
FFFFFFC0
FFFFFFC0
FFFFFFF0
FFFFFFF8
F80007FC
F80001FC
F800007E
F800007E
F800003F
F800003F
F800001F
F800001F
F800001F
F800003F
F800003F
F800007E
F800007E
F80000FE
F80007FC
FFFFFFF8
FFFFFFF0
FFFFFFE0
FFFFFF80
FFFFFC00
ENDCHAR
STARTCHAR 0393
ENCODING 915
SWIDTH 550 0
DWIDTH 33 0
BBX 27 43 5 0
BITMAP
FFFFFFE0
FFFFFFE0
FFFFFFE0
FFFFFFE0
FFFFFFE0
F8000000
F8000000
F8000000
F8000000
F8000000
F8000000
F8000000
F8000000
F8000000
F8000000
F8000000
F8000000
F8000000
F8000000
F8000000
F8000000
F8000000
F8000000
F8000000
F8000000
F8000000
F8000000
F8000000
F8000000
F8000000
F8000000
F8000000
F8000000
F8000000
F8000000
F8000000
F8000000
F8000000
F8000000
F8000000
F8000000
F8000000
F8000000
ENDCHAR
STARTCHAR 0394
ENCODING 916
SWIDTH 666 0
DWIDTH 40 0
BBX 40 43 0 0
BITMAP
0000FE0000
0000FE0000
0001FF0000
0001FF0000
0001FF0000
0003EF8000
0003EF8000
0003EFC000
0007C7C000
0007C7C000
000FC7E000
000F83E000
000F83F000
001F83F000
001F01F000
003F01F800
003F00F800
003E00FC00
007E00FC00
007E007E00
007C007E00
00FC007E00
00FC003F00
01F8003F00
01F8001F80
01F0001F80
03F0001F80
03F0000FC0
07E0000FC0
07E0000FE0
07E00007E0
0FC00007E0
0FC00003F0
0F800003F0
1F800003F8
1F800001F8
3F000001F8
3F000000FC
3FFFFFFFFC
7FFFFFFFFE
7FFFFFFFFE
FFFFFFFFFF
FFFFFFFFFF
ENDCHAR
STARTCHAR 0395
ENCODING 917
SWIDTH 666 0
DWIDTH 40 0
BBX 32 43 5 0
BITMAP
FFFFFFFE
FFFFFFFE
FFFFFFFE
FFFFFFFE
FFFFFFFE
F8000000
F8000000
F8000000
F8000000
F8000000
F8000000
F8000000
F8000000
F8000000
F8000000
F8000000
F8000000
F8000000
FFFFFFFC
FFFFFFFC
FFFFFFFC
FFFFFFFC
FFFFFFFC
F8000000
F8000000
F8000000
F8000000
F8000000
F8000000
F8000000
F8000000
F8000000
F8000000
F8000000
F8000000
F8000000
F8000000
F8000000
FFFFFFFF
FFFFFFFF
FFFFFFFF
FFFFFFFF
FFFFFFFF
ENDCHAR
STARTCHAR 0396
ENCODING 918
SWIDTH 616 0
DWIDTH 37 0
BBX 34 43 1 0
BITMAP
3FFFFFFF80
3FFFFFFF80
3FFFFFFF80
3FFFFFFF80
3FFFFFFF80
0000003F80
0000007F00
000000FE00
000001FC00
000003F800
000007F800
000007F000
00000FE000
00001FC000
00003F8000
00003F8000
00007F0000
0000FE0000
0001FC0000
0003F80000
0003F00000
0007F00000
000FE00000
001FC00000
003F800000
003F000000
007F000000
00FE000000
01FC000000
03F8000000
03F0000000
07F0000000
0FE0000000
1FC0000000
1F80000000
3F00000000
7E00000000
FE00000000
FFFFFFFFC0
FFFFFFFFC0
FFFFFFFFC0
FFFFFFFFC0
FFFFFFFFC0
ENDCHAR
STARTCHAR 0397
ENCODING 919
SWIDTH 716 0
DWIDTH 43 0
BBX 33 43 5 0
BITMAP
F800000F80
F800000F80
F800000F80
F800000F80
F800000F80
F800000F80
F800000F80
F800000F80
F800000F80
F800000F80
F800000F80
F800000F80
F800000F80
F800000F80
F800000F80
F800000F80
F800000F80
F800000F80
FFFFFFFF80
FFFFFFFF80
FFFFFFFF80
FFFFFFFF80
FFFFFFFF80
F800000F80
F800000F80
F800000F80
F800000F80
F800000F80
F800000F80
F800000F80
F800000F80
F800000F80
F800000F80
F800000F80
F800000F80
F800000F80
F800000F80
F800000F80
F800000F80
F800000F80
F800000F80
F800000F80
F800000F80
ENDCHAR
STARTCHAR 0398
ENCODING 920
SWIDTH 783 0
DWIDTH 47 0
BBX 41 44 3 0
BITMAP
0003FFE00000
001FFFFC0000
007FFFFF0000
00FFFFFF8000
01FF007FC000
03F8001FE000
07F00007F000
0FE00003F800
1FC00001FC00
1F800000FC00
3F0000007E00
3E0000007E00
7E0000003F00
7E0000003F00
7C0000001F00
7C0000001F00
FC0000001F80
FC0000001F80
FC0000001F80
FC0FFFF81F80
F80FFFF80F80
F80FFFF80F80
F80FFFF80F80
F80FFFF81F80
FC0000001F80
FC0000001F80
FC0000001F80
7C0000001F00
7C0000001F00
7E0000003F00
7E0000003F00
3F0000007E00
3F0000007E00
1F800000FC00
1FC00001FC00
0FE00003F800
07F00007F000
03F8000FE000
01FF007FC000
00FFFFFF8000
007FFFFF0000
001FFFFC0000
0003FFE00000
000008000000
ENDCHAR
STARTCHAR 0399
ENCODING 921
SWIDTH 283 0
DWIDTH 17 0
BBX 5 43 6 0
BITMAP
F8
F8
F8
F8
F8
F8
F8
F8
F8
F8
F8
F8
F8
F8
F8
F8
F8
F8
F8
F8
F8
F8
F8
F8
F8
F8
F8
F8
F8
F8
F8
F8
F8
F8
F8
F8
F8
F8
F8
F8
F8
F8
F8
ENDCHAR
STARTCHAR 039A
ENCODING 922
SWIDTH 650 0
DWIDTH 39 0
BBX 35 43 4 0
BITMAP
F800003FC0
F800007F80
F80000FF00
F80001FE00
F80003FC00
F80007F800
F8000FF000
F8001FE000
F8003FC000
F8007F8000
F800FF0000
F801FE0000
F803FC0000
F807F80000
F80FE00000
F81FC00000
F83F800000
F87F000000
F8FF800000
F9FFC00000
FBFFE00000
FFF7E00000
FFE7F00000
FFC3F80000
FF81FC0000
FF01FC0000
FE00FE0000
FC007F0000
F8003F8000
F8003F8000
F8001FC000
F8000FE000
F8000FF000
F80007F000
F80003F800
F80003FC00
F80001FC00
F80000FE00
F800007F00
F800007F80
F800003F80
F800001FC0
F800001FE0
ENDCHAR
STARTCHAR 039B
ENCODING 923
SWIDTH 666 0
DWIDTH 40 0
BBX 38 43 1 0
BITMAP
0000FC0000
0000FE0000
0001FE0000
0001FE0000
0003FF0000
0003FF0000
0003EF0000
0007CF8000
0007CF8000
000FCFC000
000F87C000
000F87C000
001F03E000
001F03E000
003F03F000
003E01F000
003E01F000
007E01F800
007C00F800
00FC00FC00
00F800FC00
00F8007C00
01F8007E00
01F0007E00
01F0003E00
03F0003F00
03E0001F00
07E0001F80
07E0001F80
07C0000F80
0FC0000FC0
0F80000FC0
1F800007E0
1F800007E0
1F000007E0
3F000003F0
3F000003F0
7E000003F0
7E000001F8
7C000001F8
FC000000FC
FC000000FC
F8000000FC
ENDCHAR
STARTCHAR 039C
ENCODING 924
SWIDTH 833 0
DWIDTH 50 0
BBX 41 43 4 0
BITMAP
FF8000007F80
FF8000007F80
FF8000007F80
FFC00000FF80
FFC00000FF80
FFC00001FF80
FFE00001FF80
FBE00001EF80
FBE00003EF80
FBF00003EF80
F9F00003CF80
F9F00007CF80
F8F80007CF80
F8F800078F80
F8F8000F8F80
F87C000F8F80
F87C000F0F80
F87C001F0F80
F83E001F0F80
F83E001E0F80
F83E003E0F80
F81F003E0F80
F81F003C0F80
F81F007C0F80
F80F807C0F80
F80F80780F80
F80F80F80F80
F807C0F00F80
F807C0F00F80
F807C1F00F80
F803E1E00F80
F803E1E00F80
F803E3E00F80
F801F3C00F80
F801F7C00F80
F801F7C00F80
F800FF800F80
F800FF800F80
F800FF800F80
F8007F000F80
F8007F000F80
F8007F000F80
F8003E000F80
ENDCHAR
STARTCHAR 039D
ENCODING 925
SWIDTH 733 0
DWIDTH 44 0
BBX 34 43 5 0
BITMAP
FC000007C0
FE000007C0
FF000007C0
FF000007C0
FF800007C0
FFC00007C0
FFC00007C0
FFE00007C0
FFF00007C0
FBF00007C0
FBF80007C0
F9FC0007C0
F8FC0007C0
F8FE0007C0
F87F0007C0
F83F0007C0
F83F8007C0
F81FC007C0
F80FC007C0
F80FE007C0
F807F007C0
F803F007C0
F803F807C0
F801FC07C0
F800FC07C0
F800FE07C0
F8007F07C0
F8003F07C0
F8003F87C0
F8001FC7C0
F8000FC7C0
F8000FE7C0
F80007F7C0
F80003F7C0
F80003FFC0
F80001FFC0
F80000FFC0
F80000FFC0
F800007FC0
F800003FC0
F800003FC0
F800001FC0
F800000FC0
ENDCHAR
STARTCHAR 039E
ENCODING 926
SWIDTH 650 0
DWIDTH 39 0
BBX 33 43 3 0
BITMAP
7FFFFFFF00
7FFFFFFF00
7FFFFFFF00
7FFFFFFF00
7FFFFFFF00
0000000000
0000000000
0000000000
0000000000
0000000000
0000000000
0000000000
0000000000
0000000000
0000000000
0000000000
0000000000
0000000000
0000000000
1FFFFFF800
1FFFFFF800
1FFFFFF800
1FFFFFF800
1FFFFFF800
0000000000
0000000000
0000000000
0000000000
0000000000
0000000000
0000000000
0000000000
0000000000
0000000000
0000000000
0000000000
0000000000
0000000000
FFFFFFFF80
FFFFFFFF80
FFFFFFFF80
FFFFFFFF80
FFFFFFFF80
ENDCHAR
STARTCHAR 039F
ENCODING 927
SWIDTH 783 0
DWIDTH 47 0
BBX 41 44 3 0
BITMAP
0003FFE00000
001FFFFC0000
007FFFFF0000
00FFFFFF8000
01FF007FC000
03FC001FE000
07F00007F000
0FE00003F800
1F800001FC00
1F800000FC00
3F0000007E00
3E0000007E00
7E0000003E00
7E0000003F00
7C0000001F00
7C0000001F00
FC0000001F80
FC0000001F80
FC0000001F80
FC0000001F80
F80000000F80
F80000000F80
F80000000F80
F80000001F80
FC0000001F80
FC0000001F80
FC0000001F80
7C0000001F00
7C0000001F00
7E0000003F00
7E0000003F00
3E0000007E00
3F0000007E00
1F800000FC00
1FC00001FC00
0FE00003F800
07F00007F000
03F8001FE000
01FF007FC000
00FFFFFF8000
003FFFFF0000
001FFFFC0000
0003FFE00000
000008000000
ENDCHAR
STARTCHAR 03A0
ENCODING 928
SWIDTH 716 0
DWIDTH 43 0
BBX 33 43 5 0
BITMAP
FFFFFFFF80
FFFFFFFF80
FFFFFFFF80
FFFFFFFF80
FFFFFFFF80
F800000F80
F800000F80
F800000F80
F800000F80
F800000F80
F800000F80
F800000F80
F800000F80
F800000F80
F800000F80
F800000F80
F800000F80
F800000F80
F800000F80
F800000F80
F800000F80
F800000F80
F800000F80
F800000F80
F800000F80
F800000F80
F800000F80
F800000F80
F800000F80
F800000F80
F800000F80
F800000F80
F800000F80
F800000F80
F800000F80
F800000F80
F800000F80
F800000F80
F800000F80
F800000F80
F800000F80
F800000F80
F800000F80
ENDCHAR
STARTCHAR 03A1
ENCODING 929
SWIDTH 666 0
DWIDTH 40 0
BBX 32 43 5 0
BITMAP
FFFFFE00
FFFFFFC0
FFFFFFF0
FFFFFFF8
FFFFFFFC
F80003FE
F80000FE
F800007F
F800003F
F800003F
F800001F
F800001F
F800001F
F800001F
F800001F
F800003F
F800003F
F800007E
F80000FE
F80007FC
FFFFFFFC
FFFFFFF8
FFFFFFF0
FFFFFFC0
FFFFFC00
F8000000
F8000000
F8000000
F8000000
F8000000
F8000000
F8000000
F8000000
F8000000
F8000000
F8000000
F8000000
F8000000
F8000000
F8000000
F8000000
F8000000
F8000000
ENDCHAR
STARTCHAR 03A3
ENCODING 931
SWIDTH 600 0
DWIDTH 36 0
BBX 30 43 4 0
BITMAP
FFFFFFF8
FFFFFFF8
FFFFFFF8
FFFFFFF8
FFFFFFF8
FE000000
7E000000
3F000000
1F800000
0FC00000
07E00000
07F00000
03F80000
01FC0000
00FE0000
007F0000
003F8000
001FC000
000FE000
0007F000
0003F800
0007F000
000FE000
000FC000
001F8000
003F8000
007F0000
00FE0000
01FC0000
03F80000
03F00000
07F00000
0FE00000
1FC00000
3F800000
7F000000
7E000000
FE000000
FFFFFFFC
FFFFFFFC
FFFFFFFC
FFFFFFFC
FFFFFFFC
ENDCHAR
STARTCHAR 03A4
ENCODING 932
SWIDTH 600 0
DWIDTH 36 0
BBX 34 43 1 0
BITMAP
FFFFFFFFC0
FFFFFFFFC0
FFFFFFFFC0
FFFFFFFFC0
FFFFFFFFC0
0003E00000
0003E00000
0003E00000
0003E00000
0003E00000
0003E00000
0003E00000
0003E00000
0003E00000
0003E00000
0003E00000
0003E00000
0003E00000
0003E00000
0003E00000
0003E00000
0003E00000
0003E00000
0003E00000
0003E00000
0003E00000
0003E00000
0003E00000
0003E00000
0003E00000
0003E00000
0003E00000
0003E00000
0003E00000
0003E00000
0003E00000
0003E00000
0003E00000
0003E00000
0003E00000
0003E00000
0003E00000
0003E00000
ENDCHAR
STARTCHAR 03A5
ENCODING 933
SWIDTH 666 0
DWIDTH 40 0
BBX 38 43 1 0
BITMAP
FE000000FC
FE000001FC
7F000003F8
3F800003F0
3F800007E0
1FC0000FE0
0FE0000FC0
0FE0001F80
07F0003F80
03F0003F00
03F8007E00
01FC00FE00
00FC00FC00
00FE01F800
007F03F800
003F03F000
003F87E000
001F87C000
000FCFC000
000FFF8000
0007FF0000
0003FF0000
0003FE0000
0001FC0000
0000FC0000
0000F80000
0000F80000
0000F80000
0000F80000
0000F80000
0000F80000
0000F80000
0000F80000
0000F80000
0000F80000
0000F80000
0000F80000
0000F80000
0000F80000
0000F80000
0000F80000
0000F80000
0000F80000
ENDCHAR
STARTCHAR 03A6
ENCODING 934
SWIDTH 783 0
DWIDTH 47 0
BBX 42 46 2 -2
BITMAP
00001F000000
00001F000000
00001F000000
00001F000000
00001F000000
00001F000000
000FFFFE0000
007FFFFF8000
01FFFFFFE000
03FFFFFFF800
07FC1F0FFC00
0FE01F01FE00
1FC01F007E00
3F801F003F00
3F001F003F80
7E001F001F80
7E001F000F80
7C001F000FC0
FC001F000FC0
FC001F0007C0
FC001F0007C0
F8001F0007C0
F8001F0007C0
F8001F0007C0
FC001F0007C0
FC001F0007C0
FC001F0007C0
7C001F000FC0
7E001F000F80
7E001F001F80
3F001F001F80
3F801F003F00
1FC01F007E00
0FF01F01FE00
07FC1F0FFC00
03FFFFFFF000
01FFFFFFE000
007FFFFF8000
000FFFFE0000
00001F000000
00001F000000
00001F000000
00001F000000
00001F000000
00001F000000
00001F000000
ENDCHAR
STARTCHAR 03A7
ENCODING 935
SWIDTH 666 0
DWIDTH 40 0
BBX 38 43 1 0
BITMAP
3F000001F8
3F800003F0
1FC00007F0
0FC00007E0
0FE0000FC0
07F0001F80
03F8003F80
01F8003F00
01FC007E00
00FE00FC00
007E01FC00
007F01F800
003F83F000
001F87E000
000FCFE000
000FEFC000
0007FF8000
0003FF0000
0003FF0000
0001FE0000
0000FE0000
0001FE0000
0003FF0000
0003FF8000
0007FF8000
000FDFC000
001FCFE000
001F87F000
003F87F000
007F03F800
007E01FC00
00FC01FC00
01FC00FE00
03F8007F00
03F0003F80
07E0003F80
0FE0001FC0
1FC0000FE0
1F80000FE0
3F800007F0
7F000003F8
FE000001FC
FC000001FC
ENDCHAR
STARTCHAR 03A8
ENCODING 936
SWIDTH 833 0
DWIDTH 50 0
BBX 43 43 4 0
BITMAP
F8001F0007E0
F8001F0007E0
F8001F0007E0
F8001F0007E0
F8001F0007E0
F8001F0007E0
F8001F0007E0
F8001F0007E0
F8001F0007E0
F8001F0007E0
F8001F0007E0
F8001F0007E0
F8001F0007E0
F8001F0007E0
FC001F0007C0
FC001F0007C0
FC001F0007C0
7C001F000FC0
7C001F000FC0
7E001F000F80
7E001F001F80
3F001F003F80
1FC01F007F00
1FE01F01FE00
0FFC1F07FC00
07FFFFFFF800
03FFFFFFF000
00FFFFFFC000
001FFFFE0000
00001F000000
00001F000000
00001F000000
00001F000000
00001F000000
00001F000000
00001F000000
00001F000000
00001F000000
00001F000000
00001F000000
00001F000000
00001F000000
00001F000000
ENDCHAR
STARTCHAR 03A9
ENCODING 937
SWIDTH 750 0
DWIDTH 45 0
BBX 39 43 3 1
BITMAP
0007FFC000
001FFFF800
007FFFFC00
00FFFFFE00
03FE00FF80
03F8003F80
07F0001FC0
0FE0000FE0
1FC00007F0
1F800003F0
3F000001F8
3F000001F8
3E000000F8
7E000000FC
7E000000FC
7C000000FC
7C0000007C
7C0000007C
7C0000007C
7C0000007C
7C0000007C
7C0000007C
7C0000007C
7C0000007C
7C0000007C
7E0000007C
7E000000FC
3E000000F8
3E000000F8
1F000001F0
1F000001F0
0F800003E0
0FC00003E0
07C00007C0
03E0000F80
01F0001F00
00FC007E00
007E00FC00
FFFF83FFFE
FFFF83FFFE
FFFF83FFFE
FFFF83FFFE
FFFF83FFFE
ENDCHAR
STARTCHAR 03AA
ENCODING 938
SWIDTH 300 0
DWIDTH 18 0
BBX 16 52 1 0
BITMAP
FC1F
FC1F
FC1F
FC1F
FC1F
FC1F
0000
0000
0000
03E0
03E0
03E0
03E0
03E0
03E0
03E0
03E0
03E0
03E0
03E0
03E0
03E0
03E0
03E0
03E0
03E0
03E0
03E0
03E0
03E0
03E0
03E0
03E0
03E0
03E0
03E0
03E0
03E0
03E0
03E0
03E0
03E0
03E0
03E0
03E0
03E0
03E0
03E0
03E0
03E0
03E0
03E0
ENDCHAR
STARTCHAR 03AB
ENCODING 939
SWIDTH 666 0
DWIDTH 40 0
BBX 38 52 1 0
BITMAP
001F03E000
001F03E000
001F03E000
001F03E000
001F03E000
001F03E000
0000000000
0000000000
0000000000
FE000000FC
7E000001FC
7F000003F8
3F800003F0
1F800007F0
1FC0000FE0
0FE0000FC0
07E0001FC0
07F0003F80
03F8003F00
01F8007E00
01FC00FE00
00FC00FC00
007E01F800
007F01F800
003F03F000
001F87E000
001F87E000
000FCFC000
0007FF8000
0007FF0000
0003FF0000
0001FE0000
0001FC0000
0000FC0000
0000F80000
0000F80000
0000F80000
0000F80000
0000F80000
0000F80000
0000F80000
0000F80000
0000F80000
0000F80000
0000F80000
0000F80000
0000F80000
0000F80000
0000F80000
0000F80000
0000F80000
0000F80000
ENDCHAR
STARTCHAR 03AC
ENCODING 940
SWIDTH 566 0
DWIDTH 34 0
BBX 30 43 2 -1
BITMAP
0001FC00
0003F800
0003F000
0007E000
0007E000
0007C000
000F8000
000F0000
00000000
00000000
00000000
00000000
00FFC07C
03FFF0FC
07FFF8F8
0FFFFCF8
1FE07FF8
3F803FF8
3F001FF0
7E000FF0
7E0007F0
7C0007F0
FC0007E0
FC0003E0
FC0003E0
F80003E0
F80003E0
F80003C0
F80003E0
F80003E0
FC0003E0
FC0003E0
FC0007E0
7C0007F0
7E0007F0
7E000FF0
3F001FF0
3F803FF0
1FC0FDF8
0FFFFCF8
07FFF8F8
03FFF0FC
00FFC07C
ENDCHAR
STARTCHAR 03AD
ENCODING 941
SWIDTH 450 0
DWIDTH 27 0
BBX 23 43 3 -1
BITMAP
000FC0
001FC0
001F80
003F00
003E00
007E00
007C00
00F800
000000
000000
000000
000000
03FF80
0FFFE0
1FFFF0
3FFFFC
7F03F0
7E00E0
7C0000
7C0000
7C0000
7C0000
7E0000
7F0000
3FF000
1FFE00
07FE00
0FFE00
3FFE00
7F8000
7E0000
FC0000
FC0000
F80000
F80000
FC0000
FC0030
7E00FC
7F03FE
3FFFFC
3FFFF0
0FFFE0
07FF80
ENDCHAR
STARTCHAR 03AE
ENCODING 942
SWIDTH 550 0
DWIDTH 33 0
BBX 25 55 4 -12
BITMAP
0007F000
0007E000
000FC000
000FC000
001F8000
001F0000
003E0000
003E0000
00000000
00000000
00000000
00000000
F83FF000
F8FFFC00
F9FFFE00
FBFFFF00
FFC07F00
FF003F80
FE001F80
FE001F80
FC000F80
FC000F80
FC000F80
FC000F80
F8000F80
F8000F80
F8000F80
F8000F80
F8000F80
F8000F80
F8000F80
F8000F80
F8000F80
F8000F80
F8000F80
F8000F80
F8000F80
F8000F80
F8000F80
F8000F80
F8000F80
F8000F80
F8000F80
00000F80
00000F80
00000F80
00000F80
00000F80
00000F80
00000F80
00000F80
00000F80
00000F80
00000F80
00000F80
ENDCHAR
STARTCHAR 03AF
ENCODING 943
SWIDTH 216 0
DWIDTH 13 0
BBX 10 43 3 0
BITMAP
0FC0
1FC0
1F80
3F00
3E00
7C00
7C00
F800
0000
0000
0000
0000
7C00
7C00
7C00
7C00
7C00
7C00
7C00
7C00
7C00
7C00
7C00
7C00
7C00
7C00
7C00
7C00
7C00
7C00
7C00
7C00
7C00
7C00
7C00
7C00
7C00
7C00
7C00
7C00
7C00
7C00
7C00
ENDCHAR
STARTCHAR 03B0
ENCODING 944
SWIDTH 550 0
DWIDTH 33 0
BBX 25 45 4 -1
BITMAP
0007C000
000F8000
000F8000
3E1F3E00
3E1E3E00
3E3E3E00
3E3C3E00
3E383E00
3E783E00
00000000
00000000
00000000
00000000
00000000
F8000F80
F8000F80
F8000F80
F8000F80
F8000F80
F8000F80
F8000F80
F8000F80
F8000F80
F8000F80
F8000F80
F8000F80
F8000F80
F8000F80
F8000F80
F8000F80
F8000F80
F8000F80
F8000F80
F8000F80
FC001F80
FC001F80
FC001F80
7C001F00
7E003F00
7F007F00
3FC1FE00
1FFFFC00
0FFFF800
07FFF000
01FFC000
ENDCHAR
STARTCHAR 03B1
ENCODING 945
SWIDTH 566 0
DWIDTH 34 0
BBX 30 31 2 0
BITMAP
00FFC07C
03FFF0FC
07FFF8F8
0FFFFCF8
1FE07FF8
3F803FF8
3F001FF0
7E000FF0
7E0007F0
7C0007F0
FC0007E0
FC0003E0
FC0003E0
F80003E0
F80003E0
F80003C0
F80003E0
F80003E0
FC0003E0
FC0003E0
FC0007E0
7C0007F0
7E0007F0
7E000FF0
3F001FF0
3F803FF0
1FC0FDF8
0FFFFCF8
07FFF8F8
03FFF0FC
00FFC07C
ENDCHAR
STARTCHAR 03B2
ENCODING 946
SWIDTH 566 0
DWIDTH 34 0
BBX 27 55 4 -11
BITMAP
00FFE000
03FFF800
0FFFFC00
1FFFFE00
3FC0FF00
3F003F00
7E001F80
7C001F80
FC000F80
FC000F80
FC000F80
F8000F80
F8000F80
F8001F80
F8003F00
F8007E00
F81FFC00
F83FF000
F83F8000
F83FF800
F83FFE00
F801FF00
F8003F80
F8001FC0
F8000FC0
F80007E0
F80007E0
F80003E0
F80003E0
FC0003E0
FC0003E0
FC0003E0
FC0003E0
FC0003E0
FE0007E0
FE0007C0
FF000FC0
FF801FC0
FBE03F80
FBFFFF00
F9FFFE00
F8FFFC00
F83FF000
F8000000
F8000000
F8000000
F8000000
F8000000
F8000000
F8000000
F8000000
F8000000
F8000000
F8000000
F8000000
ENDCHAR
STARTCHAR 03B3
ENCODING 947
SWIDTH 500 0
DWIDTH 30 0
BBX 28 43 1 -12
BITMAP
F80003F0
FC0003F0
FC0003E0
7C0007E0
7E0007C0
7E0007C0
3E000FC0
3F000F80
1F000F80
1F001F80
1F801F00
0F803F00
0F803E00
0FC03E00
07C07E00
07E07C00
03E07C00
03E0FC00
03F0F800
01F0F800
01F1F000
01F9F000
00FBF000
00FBE000
007FE000
007FE000
007FC000
003FC000
003F8000
003F8000
001F8000
001F0000
001F0000
001F0000
001F0000
001F0000
001F0000
001F0000
001F0000
001F0000
001F0000
001F0000
001F0000
ENDCHAR
STARTCHAR 03B4
ENCODING 948
SWIDTH 550 0
DWIDTH 33 0
BBX 29 43 2 -1
BITMAP
1FFFFFC0
1FFFFFC0
1FFFFFC0
1FFFFFC0
0FC00000
07E00000
03F00000
01FC0000
00FE0000
003F0000
001FC000
000FE000
007FF000
01FFFC00
07FFFE00
0FFFFF00
1FF8FF80
1FC01FC0
3F800FE0
7F0007E0
7E0003F0
7E0003F0
7C0001F0
FC0001F8
FC0001F8
FC0001F8
F80000F8
F80000F8
F80000F8
F80001F8
FC0001F8
FC0001F8
7C0001F0
7C0001F0
7E0003F0
3F0003F0
3F0007E0
1FC00FC0
1FE03FC0
0FFFFF80
07FFFF00
01FFFC00
00FFF000
ENDCHAR
STARTCHAR 03B5
ENCODING 949
SWIDTH 450 0
DWIDTH 27 0
BBX 23 31 3 0
BITMAP
03FF80
0FFFE0
1FFFF0
3FFFFC
7F03F0
7E00E0
7C0000
7C0000
7C0000
7C0000
7E0000
7F0000
3FF000
1FFE00
07FE00
0FFE00
3FFE00
7F8000
7E0000
FC0000
FC0000
F80000
F80000
FC0000
FC0030
7E00FC
7F03FE
3FFFFC
3FFFF0
0FFFE0
07FF80
ENDCHAR
STARTCHAR 03B6
ENCODING 950
SWIDTH 450 0
DWIDTH 27 0
BBX 24 55 2 -13
BITMAP
07FFFF
07FFFF
07FFFF
07FFFF
00007E
0001F8
0003F0
0007E0
000FC0
001F80
003F00
007E00
00FC00
01F800
03F000
03E000
07E000
0FC000
0F8000
1F8000
1F0000
3F0000
3E0000
7E0000
7E0000
7C0000
FC0000
FC0000
FC0000
F80000
F80000
F80000
FC0000
FC0000
FC0000
7E0000
7E0000
7F8000
3FFF00
1FFFF0
1FFFF8
07FFFC
01FFFE
0000FE
00007E
00003E
00003E
00003E
00007E
00007E
0003FC
0007F8
0007F0
000FE0
000FC0
ENDCHAR
STARTCHAR 03B7
ENCODING 951
SWIDTH 550 0
DWIDTH 33 0
BBX 25 43 4 -11
BITMAP
F83FF000
F8FFFC00
F9FFFE00
FBFFFF00
FFC07F00
FF003F80
FE001F80
FE001F80
FC000F80
FC000F80
FC000F80
FC000F80
F8000F80
F8000F80
F8000F80
F8000F80
F8000F80
F8000F80
F8000F80
F8000F80
F8000F80
F8000F80
F8000F80
F8000F80
F8000F80
F8000F80
F8000F80
F8000F80
F8000F80
F8000F80
F8000F80
00000F80
00000F80
00000F80
00000F80
00000F80
00000F80
00000F80
00000F80
00000F80
00000F80
00000F80
00000F80
ENDCHAR
STARTCHAR 03B8
ENCODING 952
SWIDTH 566 0
DWIDTH 34 0
BBX 28 43 3 0
BITMAP
007FE000
01FFF800
03FFFC00
07FFFE00
0FE07F00
1F801F80
1F000F80
3F000FC0
3E0007C0
7E0007C0
7C0003E0
7C0003E0
7C0003E0
7C0003E0
FC0003F0
FC0003F0
F80001F0
F80001F0
F80001F0
FFFFFFF0
FFFFFFF0
FFFFFFF0
FFFFFFF0
F80001F0
F80001F0
F80001F0
FC0003F0
FC0003F0
FC0003F0
7C0003E0
7C0003E0
7C0003E0
7C0007E0
7E0007E0
3E0007C0
3F000FC0
1F000F80
1F801F80
0FE07F00
07FFFE00
03FFFC00
01FFF800
007FE000
ENDCHAR
STARTCHAR 03B9
ENCODING 953
SWIDTH 216 0
DWIDTH 13 0
BBX 5 31 4 0
BITMAP
F8
F8
F8
F8
F8
F8
F8
F8
F8
F8
F8
F8
F8
F8
F8
F8
F8
F8
F8
F8
F8
F8
F8
F8
F8
F8
F8
F8
F8
F8
F8
ENDCHAR
STARTCHAR 03BA
ENCODING 954
SWIDTH 500 0
DWIDTH 30 0
BBX 26 31 4 0
BITMAP
F8003F00
F800FE00
F801FC00
F803F800
F807F000
F80FE000
F81FC000
F83F8000
F87F0000
F8FE0000
F9FC0000
FBF80000
FFF00000
FFF00000
FFF00000
FFF80000
FFFC0000
FCFE0000
F87F0000
F83F8000
F81F8000
F80FC000
F80FE000
F807F000
F803F800
F801FC00
F800FC00
F8007E00
F8007F00
F8003F80
F8001FC0
ENDCHAR
ENDFONT
